<svg xmlns="http://www.w3.org/2000/svg" xmlns:xlink="http://www.w3.org/1999/xlink" fill="none" version="1.1" width="89.5" height="46.5" viewBox="0 0 89.5 46.5"><g><path d="M18.914099999999998,22.7109Q24.2812,23.4375,26.8359,25.4062Q29.3906,27.375,29.3906,30.7734Q29.3906,35.039100000000005,25.6055,37.6875Q21.8203,40.3359,15.5625,40.3359Q11.36719,40.3359,8.70703,38.5781Q6.04688,36.8203,6.04688,34.1719Q6.04688,32.3906,7.00781,31.3477Q7.96875,30.3047,9.5625,30.3047Q11.17969,30.3047,12.22266,31.2422Q13.26562,32.1797,13.26562,33.6094Q13.26562,35.25,11.96484,36.3047Q10.66406,37.3594,10.66406,37.5Q10.66406,38.0625,11.90625,38.4727Q13.14844,38.8828,15.0234,38.8828Q18.0938,38.8828,19.6055,37.0078Q21.1172,35.1328,21.1172,31.3594Q21.1172,27.3516,19.300800000000002,25.4648Q17.4844,23.5781,13.64062,23.5781Q13.17188,23.5781,12.48047,23.625Q11.78906,23.6719,11.57812,23.6719Q11.08594,23.6719,10.82812,23.4492Q10.57031,23.2266,10.57031,22.8047Q10.57031,22.4062,10.85156,22.1719Q11.13281,21.9375,11.625,21.9375Q11.74219,21.9375,12.25781,21.9844Q12.77344,22.0312,13.14844,22.0312Q16.7578,22.0312,18.3398,20.3555Q19.9219,18.6797,19.9219,14.8359Q19.9219,11.78906,18.914099999999998,10.535160000000001Q17.9062,9.28125,15.5156,9.28125Q14.1328,9.28125,13.21875,9.621089999999999Q12.30469,9.96094,12.30469,10.42969Q12.30469,10.57031,12.77344,10.92188Q14.4141,12.16406,14.4141,13.73438Q14.4141,15.2812,13.5,16.1836Q12.58594,17.085900000000002,11.03906,17.085900000000002Q9.65625,17.085900000000002,8.8125,16.1836Q7.96875,15.2812,7.96875,13.8281Q7.96875,11.17969,10.441410000000001,9.503910000000001Q12.91406,7.82812,16.898400000000002,7.82812Q21.7031,7.82812,24.6328,9.79688Q27.5625,11.76562,27.5625,14.9297Q27.5625,17.625,25.3359,19.5352Q23.1094,21.4453,18.914099999999998,22.3359L18.914099999999998,22.7109ZM47.1797,24.2344Q44.625,24.2344,43.582,26.0977Q42.5391,27.9609,42.5391,33.023399999999995Q42.5391,36.5859,43.5234,37.7812Q44.5078,38.9766,47.3438,38.9766Q50.0156,38.9766,50.9062,37.7109Q51.7969,36.4453,51.7969,31.0078Q51.7969,27.3047,50.7305,25.7695Q49.6641,24.2344,47.1797,24.2344ZM47.3906,9.16406Q45,9.16406,44.2266,10.28906Q43.4531,11.41406,43.4531,16.3828Q43.4531,19.7812,44.2969,21.1758Q45.1406,22.5703,47.1328,22.5703Q49.3828,22.5703,50.2266,21.1055Q51.0703,19.6406,51.0703,14.1562Q51.0703,11.10938,50.3203,10.13672Q49.5703,9.16406,47.3906,9.16406ZM44.0156,23.3906L44.0156,23.0391Q39.9609,22.1953,37.9336,20.332Q35.9062,18.4688,35.9062,15.6094Q35.9062,12.14062,39,9.96094Q42.0938,7.78125,47.0859,7.78125Q52.2422,7.78125,55.4297,9.972660000000001Q58.6172,12.16406,58.6172,15.6094Q58.6172,18.585900000000002,56.6016,20.4141Q54.5859,22.2422,50.3203,23.1328L50.3203,23.4375Q54.9375,24.2109,57.375,26.2617Q59.8125,28.3125,59.8125,31.4062Q59.8125,35.601600000000005,56.4609,37.9922Q53.1094,40.3828,47.1797,40.3828Q41.25,40.3828,37.8867,38.0977Q34.523399999999995,35.8125,34.523399999999995,31.8281Q34.523399999999995,28.4062,37.0195,26.1797Q39.5156,23.9531,44.0156,23.3906ZM78.1895,37.5283Q78.1895,38.2729,78.5435,38.6636Q78.8975,39.0542,79.5811,39.0542Q80.2769,39.0542,80.9727,38.5476Q81.6685,38.041,82.3154,37.0767Q82.8525,36.2588,83.1577,35.2517Q83.4629,34.2446,83.4629,33.2559Q83.4629,32.3403,83.1028,31.8337Q82.7427,31.3271,82.1079,31.3271Q81.6074,31.3271,81.1313,31.7178Q80.6553,32.1084,80.0815,32.9995Q79.2393,34.3179,78.7144,35.6179Q78.1895,36.918,78.1895,37.5283ZM78.8364,39.8721Q77.2373,39.8721,76.3096,38.9749Q75.3818,38.0776,75.3818,36.5273Q75.3818,35.648399999999995,75.748,34.6841Q76.1143,33.7197,76.8101,32.8042Q77.7012,31.6201,78.8364,30.9609Q79.9717,30.3018,81.1069,30.3018Q82.4985,30.3018,83.3042,31.1379Q84.1099,31.9741,84.1099,33.4268Q84.1099,34.574200000000005,83.6521,35.7949Q83.1943,37.0156,82.3887,38.0288Q81.6074,38.9688,80.7407,39.4204Q79.874,39.8721,78.8364,39.8721ZM71.1094,25.6021Q70.6699,25.4312,70.2976,25.1626Q69.9253,24.894,69.6079,24.5278Q69.0342,24.6133,68.5581,25.0588Q68.082,25.5044,67.4351,26.6274Q66.6782,27.9458,66.2693,29.0444Q65.8604,30.1431,65.8604,30.8267Q65.8604,31.4004,66.2449,31.7605Q66.6294,32.120599999999996,67.2397,32.120599999999996Q67.9722,32.120599999999996,68.7046,31.6018Q69.437,31.083,70.1084,30.0698Q70.6333,29.2642,70.908,28.373Q71.1826,27.4819,71.1826,26.5786Q71.1826,26.3223,71.1643,26.0842Q71.146,25.8462,71.1094,25.6021ZM67.96,40.519L76.7368,25.0771Q76.0166,25.6143,75.1926,25.8706Q74.3687,26.127,73.3799,26.127Q73.0259,26.127,72.623,26.072Q72.2202,26.0171,71.7563,25.9072Q71.7686,26.0171,71.7747,26.1575Q71.7808,26.2979,71.7808,26.5786Q71.7808,27.6772,71.4634,28.6782Q71.146,29.6792,70.5112,30.5947Q69.7178,31.7422,68.7046,32.3464Q67.6914,32.9507,66.5806,32.9507Q65.0181,32.9507,64.0415,32.047399999999996Q63.0649,31.144,63.0649,29.6792Q63.0649,28.4951,63.5593,27.3599Q64.05369999999999,26.2246,65.0303,25.1748Q65.83590000000001,24.2959,66.8064,23.8381Q67.7769,23.3804,68.8145,23.3804Q69.8154,23.3804,70.4746,23.7771Q71.1338,24.1738,71.5122,25.0039Q72.0615,25.2358,72.5254,25.3457Q72.9893,25.4556,73.4287,25.4556Q74.9424,25.4556,76.0776,24.8086Q77.2129,24.1616,78.1284,22.7944L79.3369,22.7944L69.2051,40.519L67.96,40.519Z" fill="#111925" fill-opacity="0.8500000238418579"/><path d="M40.3165,24.254Q39.3038,24.6282,38.4512,25.1354Q37.6678,25.6014,37.0195,26.1797Q34.523399999999995,28.4062,34.523399999999995,31.8281Q34.523399999999995,35.8125,37.8867,38.0977Q38.8353,38.7422,39.988,39.2049Q42.9224,40.3828,47.1797,40.3828Q51.4556,40.3828,54.3909,39.1397Q55.5262,38.6589,56.4609,37.9922Q59.4484,35.8613,59.7729,32.2964Q59.8125,31.862,59.8125,31.4062Q59.8125,30.0541,59.3469,28.9012Q58.7472,27.4162,57.375,26.2617Q56.7266,25.7162,55.924,25.2611Q55.1907,24.8452,54.3286,24.5048Q53.5994,24.2169,52.7781,23.983Q51.6665,23.6664,50.3863,23.4486Q50.3536,23.4431,50.3203,23.4375L50.3203,23.1328Q50.3469,23.1273,50.3732,23.1217Q51.7044,22.841,52.815,22.4685Q53.3837,22.2777,53.8946,22.0628Q54.9697,21.6106,55.7888,21.0516Q56.2328,20.7485,56.6016,20.4141Q58.6172,18.585900000000002,58.6172,15.6094Q58.6172,12.16406,55.4297,9.972660000000001Q54.7747,9.52232,54.0365,9.16452Q51.1826,7.78125,47.0859,7.78125Q43.3572,7.78125,40.6876,8.997250000000001Q39.783,9.40929,39,9.96094Q35.9062,12.14062,35.9062,15.6094Q35.9062,18.4688,37.9336,20.332Q38.2504,20.6232,38.6166,20.8894Q39.447,21.493,40.5317,21.9687Q41.0925,22.2146,41.7213,22.4263Q42.7542,22.7741,43.9705,23.0296Q43.9935,23.0345,44.0156,23.0391L44.0156,23.3906Q43.9783,23.3953,43.9405,23.4002Q42.6892,23.561,41.5941,23.8515Q40.9263,24.0287,40.3165,24.254ZM43.863,25.6655Q43.7109,25.8673,43.582,26.0977Q43.2988,26.6037,43.0925,27.3456Q42.5391,29.3358,42.5391,33.023399999999995Q42.5391,34.949799999999996,42.8269,36.184Q43.0714,37.2323,43.5234,37.7812Q44.5078,38.9766,47.3438,38.9766Q50.0156,38.9766,50.9062,37.7109Q51.2397,37.237,51.4484,36.1781Q51.7969,34.4092,51.7969,31.0078Q51.7969,28.9085,51.4542,27.5059Q51.3578,27.1117,51.2344,26.7724Q51.104,26.4141,50.9434,26.1173Q50.8429,25.9313,50.7305,25.7695Q50.6815,25.699,50.6294,25.6317Q49.6881,24.4133,47.7656,24.2573Q47.4832,24.2344,47.1797,24.2344Q46.8634,24.2344,46.5703,24.2629Q44.7885,24.4365,43.863,25.6655ZM46.5703,22.54Q46.8391,22.5703,47.1328,22.5703Q47.4645,22.5703,47.7656,22.5385Q49.5072,22.3544,50.2266,21.1055Q50.2653,21.0382,50.3023,20.9625Q50.603,20.3463,50.786,19.1692Q51.0703,17.34,51.0703,14.1562Q51.0703,12.89865,50.9425,11.9944Q50.7607,10.7079,50.3203,10.13672Q49.5703,9.16406,47.3906,9.16406Q45,9.16406,44.2266,10.28906Q43.9032,10.75947,43.715,11.90192Q43.4531,13.49169,43.4531,16.3828Q43.4531,17.9514,43.6329,19.093Q43.8125,20.2342,44.1718,20.9489Q44.2318,21.0683,44.2969,21.1758Q45.0162,22.3647,46.5703,22.54ZM35.1485,22.8587Q34.8266,23.1107,34.5233,23.3813Q33.086600000000004,24.6628,32.2003,26.2024Q31.1974,24.0331,29.125,22.4359Q28.7476,22.1451,28.332,21.8762Q31.3125,18.9875,31.3125,14.9297Q31.3125,9.76756,26.7244,6.6843699999999995Q22.8461,4.078125,16.898400000000002,4.078125Q11.76304,4.078125,8.33757,6.399649999999999Q4.21875,9.19108,4.21875,13.8281Q4.21875,16.761400000000002,6.07341,18.744799999999998Q6.82119,19.5445,7.72328,20.0384Q6.82031,21.2011,6.82031,22.8047Q6.82031,24.9429,8.37705,26.2873Q8.56605,26.4505,8.76691,26.5903Q6.06399,26.8378,4.249925,28.8067Q2.29688,30.9265,2.29688,34.1719Q2.29688,38.8371,6.63965,41.7068Q10.240120000000001,44.0859,15.5625,44.0859Q23.002,44.0859,27.7553,40.7601Q30.3699,38.9307,31.7151,36.5236Q32.9446,39.2734,35.7792,41.1994Q40.0966,44.1328,47.1797,44.1328Q54.3097,44.1328,58.6386,41.0451Q61.6498,38.8973,62.8195,35.7716Q64.1661,36.5336,65.8339,36.6706L64.69980000000001,38.666L61.5151,44.269L71.3809,44.269L73.1848,41.1133Q73.4251,41.4021,73.7026,41.6705Q75.7206,43.6221,78.8364,43.6221Q80.7925,43.6221,82.4737,42.7459Q84.0092,41.9457,85.3238,40.3628Q86.4978,38.8864,87.1633,37.1116Q87.8599,35.2542,87.8599,33.4268Q87.8599,30.4615,86.0047,28.536Q84.2213,26.6851,81.5034,26.5607L85.7999,19.0444L76.1264,19.0444L75.0125,20.7079Q74.5886,21.341,74.2209,21.5505Q74.0487,21.6487,73.7771,21.6847Q73.1788,21.0278,72.4083,20.5641Q70.8569,19.6304,68.8145,19.6304Q66.9368,19.6304,65.20660000000001,20.4465Q63.5696,21.2187,62.2846,22.6207Q61.474,23.4921,60.8815,24.4306Q60.3819,23.8909,59.7892,23.3922Q59.5579,23.1976,59.3142,23.0121Q62.3672,20.1072,62.3672,15.6094Q62.3672,10.19145,57.5542,6.8825Q53.4069,4.03125,47.0859,4.03125Q40.9054,4.03125,36.8402,6.895379999999999Q32.1562,10.19542,32.1562,15.6094Q32.1562,19.9399,35.1485,22.8587ZM63.1865,28.5169Q63.0649,29.092,63.0649,29.6792Q63.0649,30.7246,63.5623,31.484Q63.7619,31.7887,64.0415,32.047399999999996Q65.0181,32.9507,66.5806,32.9507Q67.3781,32.9507,68.1253,32.6392Q68.4188,32.5169,68.7046,32.3464Q69.7178,31.7422,70.5112,30.5947Q70.8469,30.1106,71.0938,29.6026Q71.2564,29.268,71.3805,28.9232Q71.4243,28.8014,71.4634,28.6782Q71.7808,27.6772,71.7808,26.5786Q71.7808,26.3505,71.7767,26.2149Q71.7758,26.1835,71.7747,26.1575Q71.7686,26.0171,71.7563,25.9072Q71.8439,25.928,71.9292,25.9467Q72.2962,26.0275,72.623,26.072Q72.8798,26.107,73.1167,26.1197Q73.2515,26.127,73.3799,26.127Q74.2041,26.127,74.9138,25.9488Q75.0555,25.9133,75.1926,25.8706Q75.3521,25.821,75.5077,25.7608Q76.156,25.5103,76.7368,25.0771L75.5118,27.2324L74.711,28.6413L74.4165,29.1595L74.0191,29.8586L71.6451,34.0355L70.8552,35.425200000000004L69.2051,38.3284L68.2653,39.9818L67.96,40.519L69.2051,40.519L71.6361,36.2663L75.3995,29.6826L75.8394,28.913L76.2763,28.1487L77.47,26.0603L77.9874,25.1553L78.1284,24.9086L79.0024,23.3797L79.3369,22.7944L78.1284,22.7944Q77.5633,23.6383,76.9145,24.2078Q76.5549,24.5234,76.1696,24.7548Q76.1238,24.7823,76.0776,24.8086Q75.5118,25.131,74.852,25.2928Q74.2177,25.4483,73.4965,25.4552Q73.4627,25.4556,73.4287,25.4556Q72.9893,25.4556,72.5254,25.3457Q72.4169,25.32,72.3038,25.2876Q71.9331,25.1816,71.5122,25.0039Q71.1338,24.1738,70.4746,23.7771Q69.8154,23.3804,68.8145,23.3804Q68.2561,23.3804,67.71719999999999,23.5129Q67.2547,23.6267,66.8064,23.8381Q65.83590000000001,24.2959,65.0303,25.1748Q64.05369999999999,26.2246,63.5593,27.3599Q63.3101,27.9322,63.1865,28.5169ZM67.9685,25.7744Q67.8618,25.9285,67.7493,26.1061Q67.7269,26.1413,67.7042,26.1777Q67.5735,26.3871,67.4351,26.6274Q67.43350000000001,26.6302,67.4319,26.6329Q67.2361,26.9742,67.0637,27.3007Q66.5715,28.2326,66.2693,29.0444Q65.8604,30.1431,65.8604,30.8267Q65.8604,31.4004,66.2449,31.7605Q66.6294,32.120599999999996,67.2397,32.120599999999996Q67.9722,32.120599999999996,68.7046,31.6018Q68.7133,31.5956,68.722,31.5894Q69.1774,31.2629,69.6091,30.7448Q69.636,30.7126,69.6625,30.6799Q69.8887,30.4014,70.1084,30.0698Q70.5245,29.4311,70.7834,28.7387Q70.851,28.5577,70.908,28.373Q70.9772,28.1483,71.029,27.9228Q71.0357,27.8939,71.0419,27.8657Q71.0986,27.6076,71.1325,27.3484Q71.1826,26.9647,71.1826,26.5786Q71.1826,26.3223,71.1643,26.0842Q71.146,25.8462,71.1094,25.6021Q70.6699,25.4312,70.2976,25.1626Q69.9253,24.894,69.6079,24.5278Q69.0342,24.6133,68.5581,25.0588Q68.2903,25.3094,67.9685,25.7744ZM79.0582,30.8385Q78.9473,30.8966,78.8364,30.9609Q77.7012,31.6201,76.8101,32.8042Q76.1143,33.7197,75.748,34.6841Q75.3818,35.648399999999995,75.3818,36.5273Q75.3818,36.8743,75.4283,37.1885Q75.5895,38.2784,76.3096,38.9749Q77.2373,39.8721,78.8364,39.8721Q79.874,39.8721,80.7407,39.4204Q81.6074,38.9688,82.3887,38.0288Q83.1943,37.0156,83.6521,35.7949Q84.1099,34.574200000000005,84.1099,33.4268Q84.1099,31.9741,83.3042,31.1379Q82.4985,30.3018,81.1069,30.3018Q80.0826,30.3018,79.0582,30.8385ZM13.10981,27.3439Q13.9792,27.7788,14.7295,28.4533Q17.0156,30.5082,17.0156,33.6094Q17.0156,33.8508,17.002299999999998,34.086Q17.3672,33.152699999999996,17.3672,31.3594Q17.3672,28.8633,16.5993,28.0657Q15.8892,27.3281,13.64062,27.3281Q13.42117,27.3281,13.10981,27.3439ZM12.18,36.118Q13.26562,35.1082,13.26562,33.6094Q13.26562,32.1797,12.22266,31.2422Q11.17969,30.3047,9.5625,30.3047Q7.96875,30.3047,7.00781,31.3477Q6.04688,32.3906,6.04688,34.1719Q6.04688,35.726299999999995,6.96325,36.9739Q7.60818,37.852,8.70703,38.5781Q11.36719,40.3359,15.5625,40.3359Q19.616799999999998,40.3359,22.6332,39.2243Q24.2726,38.6201,25.6055,37.6875Q29.3906,35.039100000000005,29.3906,30.7734Q29.3906,27.375,26.8359,25.4062Q26.0111,24.7706,24.8931,24.2644Q23.8258,23.7813,22.4914,23.4161Q21.7604,23.2161,20.9494,23.0514Q20.0248,22.8638,18.996000000000002,22.7221Q18.9548,22.7165,18.914099999999998,22.7109L18.914099999999998,22.3359Q18.939799999999998,22.3305,18.9663,22.3248Q19.955,22.1128,20.8337,21.8438Q21.5685,21.6189,22.2264,21.3542Q23.5497,20.8216,24.5619,20.1279Q24.9748,19.845,25.3359,19.5352Q27.5625,17.625,27.5625,14.9297Q27.5625,11.76562,24.6328,9.79688Q23.5181,9.04781,22.132,8.58375Q19.8751,7.82812,16.898400000000002,7.82812Q15.9202,7.82812,15.0331,7.92914L15.033,7.92915Q12.30696,8.23957,10.441410000000001,9.503910000000001Q9.27065,10.297360000000001,8.654219999999999,11.30886Q7.96875,12.43367,7.96875,13.8281Q7.96875,15.2812,8.8125,16.1836Q9.65625,17.085900000000002,11.03906,17.085900000000002Q12.58594,17.085900000000002,13.5,16.1836Q14.4141,15.2812,14.4141,13.73438Q14.4141,12.80488,13.8392,11.99035Q13.44295,11.42879,12.77344,10.92188Q12.30469,10.57031,12.30469,10.42969Q12.30469,9.96094,13.21875,9.621089999999999Q14.1328,9.28125,15.5156,9.28125Q15.7214,9.28125,15.917,9.29054Q16.2459,9.306180000000001,16.5459,9.348099999999999Q18.139,9.57078,18.914099999999998,10.535160000000001Q19.3079,11.025220000000001,19.5479,11.78917Q19.9219,12.97988,19.9219,14.8359Q19.9219,16.9007,19.465400000000002,18.3398Q19.0721,19.579900000000002,18.3398,20.3555Q18.270699999999998,20.4287,18.1976,20.4988Q17.1102,21.5418,15.1641,21.8749Q14.7088,21.9529,14.2065,21.9919Q13.70123,22.0312,13.14844,22.0312Q12.77344,22.0312,12.25781,21.9844Q11.74219,21.9375,11.625,21.9375Q11.13281,21.9375,10.85156,22.1719Q10.57031,22.4062,10.57031,22.8047Q10.57031,23.2266,10.82812,23.4492Q11.08594,23.6719,11.57812,23.6719Q11.78906,23.6719,12.48047,23.625Q13.17188,23.5781,13.64062,23.5781Q13.9369,23.5781,14.221,23.5893Q14.7104,23.6086,15.1641,23.6612Q17.165300000000002,23.8929,18.4717,24.7712Q18.928800000000003,25.0784,19.300800000000002,25.4648Q19.4955,25.6671,19.6693,25.8937Q19.7071,25.9429,19.7439,25.9933Q19.9907,26.3315,20.1932,26.7214Q21.1172,28.5009,21.1172,31.3594Q21.1172,34.275,20.2147,36.0572Q19.9491,36.5816,19.6055,37.0078Q18.0938,38.8828,15.0234,38.8828Q14.8689,38.8828,14.7186,38.88Q14.4532,38.8751,14.2013,38.8615Q12.8652,38.7893,11.90625,38.4727Q10.66406,38.0625,10.66406,37.5Q10.66406,37.3594,11.96484,36.3047Q12.07729,36.2135,12.18,36.118ZM47.2543,12.91515Q47.2031,13.829,47.2031,16.3828Q47.2031,17.125999999999998,47.2333,17.6842Q47.3203,16.4128,47.3203,14.1562Q47.3203,13.44074,47.2745,12.91484Q47.2642,12.91499,47.2543,12.91515ZM46.8148,28.0051Q46.9348,27.9844,47.1797,27.9844Q47.5326,27.9844,47.7189,28.0278Q48.0469,28.7075,48.0469,31.0078Q48.0469,34.270399999999995,47.9247,35.202200000000005Q47.6838,35.226600000000005,47.3438,35.226600000000005Q46.7388,35.226600000000005,46.3577,35.161100000000005Q46.2891,34.6398,46.2891,33.023399999999995Q46.2891,29.0845,46.8148,28.0051ZM78.5435,38.6636Q78.1895,38.2729,78.1895,37.5283Q78.1895,36.918,78.7144,35.6179Q79.1094,34.6395,79.6842,33.6507Q79.7247,33.581,79.7662,33.5111Q79.9179,33.255700000000004,80.0815,32.9995Q80.6553,32.1084,81.1313,31.7178Q81.6074,31.3271,82.1079,31.3271Q82.7427,31.3271,83.1028,31.8337Q83.4629,32.3403,83.4629,33.2559Q83.4629,34.0107,83.2851,34.7761Q83.2515,34.9207,83.2115,35.0657Q83.1859,35.1586,83.1577,35.2517Q82.8525,36.2588,82.3154,37.0767Q82.1643,37.3019,82.0106,37.5021Q81.9752,37.5482,81.9394,37.5934Q81.4684,38.1867,80.9727,38.5476Q80.2769,39.0542,79.5811,39.0542Q78.8975,39.0542,78.5435,38.6636Z" fill-rule="evenodd" fill="#FFFFFF" fill-opacity="1"/></g></svg>