<svg xmlns="http://www.w3.org/2000/svg" xmlns:xlink="http://www.w3.org/1999/xlink" fill="none" version="1.1" width="76" height="76" viewBox="0 0 76 76"><defs><clipPath id="master_svg0_53_25561/53_24635"><rect x="0" y="0" width="76" height="76" rx="0"/></clipPath></defs><g clip-path="url(#master_svg0_53_25561/53_24635)"><g style="opacity:0.20000000298023224;"><path d="M50.4831,13.3476Q50.8083,13.7027,51.1852,14.0022Q51.5622,14.3016,51.9816,14.538Q52.401,14.7744,52.8524,14.9419Q53.3038,15.1093,53.7759,15.2036L65.018,17.4496Q65.1767,17.4813,65.3335,17.5215Q65.4903,17.5616,65.6447,17.6099Q65.7992,17.6583,65.9508,17.7149Q66.1025,17.7714,66.2509,17.8359Q66.3993,17.9005,66.5441,17.9728Q66.6889,18.0451,66.8296,18.1251Q66.9704,18.205,67.1066,18.2923Q67.2429,18.3796,67.3744,18.474Q67.5058,18.5685,67.632,18.6698Q67.7583,18.7711,67.8789,18.8789Q67.9996,18.9868,68.1143,19.1009Q68.2291,19.2151,68.3376,19.3351Q68.4461,19.4552,68.5481,19.5809Q68.6501,19.7066,68.7452,19.8375Q68.8404,19.9684,68.9284,20.1042Q69.0165,20.24,69.0972,20.3803Q69.1779,20.5206,69.251,20.665Q69.3241,20.8094,69.3894,20.9574Q69.4548,21.1055,69.5121,21.2568Q69.5695,21.4082,69.6187,21.5624Q69.668,21.7165,69.7089,21.8731Q69.7499,22.0297,69.7824,22.1882Q69.815,22.3468,69.8391,22.5068Q69.8632,22.6669,69.8787,22.828Q69.8943,22.989,69.9012,23.1507Q69.9082,23.3124,69.9065,23.4743Q69.9048,23.6361,69.8946,23.7976Q69.8843,23.9592,69.8655,24.1199Q69.8466,24.2806,69.8192,24.4402Q69.7919,24.5997,69.756,24.7575Q69.7202,24.9153,69.6761,25.071Q69.6319,25.2267,69.5795,25.3799L66.0653,35.6519Q65.9028,36.1271,65.8204,36.6225Q65.738,37.1178,65.738,37.62Q65.738,38.1222,65.8204,38.6175Q65.9028,39.1129,66.0653,39.5881L69.5795,49.8601Q69.6319,50.0132,69.6761,50.169Q69.7202,50.3247,69.756,50.4825Q69.7919,50.6403,69.8192,50.7998Q69.8466,50.9593,69.8655,51.1201Q69.8843,51.2808,69.8946,51.4424Q69.9048,51.6039,69.9065,51.7657Q69.9082,51.9276,69.9012,52.0893Q69.8943,52.2509,69.8787,52.412Q69.8632,52.5731,69.8391,52.7332Q69.815,52.8932,69.7824,53.0518Q69.7499,53.2103,69.7089,53.3669Q69.6679,53.5235,69.6187,53.6776Q69.5695,53.8318,69.5121,53.9831Q69.4548,54.1345,69.3894,54.2826Q69.3241,54.4306,69.251,54.575Q69.1778,54.7194,69.0972,54.8597Q69.0165,55,68.9284,55.1358Q68.8404,55.2716,68.7452,55.4025Q68.6501,55.5334,68.5481,55.6591Q68.4461,55.7848,68.3376,55.9049Q68.2291,56.0249,68.1143,56.1391Q67.9996,56.2532,67.8789,56.3611Q67.7582,56.4689,67.632,56.5702Q67.5058,56.6715,67.3744,56.766Q67.2429,56.8604,67.1066,56.9477Q66.9704,57.035,66.8296,57.1149Q66.6889,57.1949,66.5441,57.2672Q66.3993,57.3395,66.2509,57.404Q66.1025,57.4686,65.9508,57.5251Q65.7992,57.5816,65.6447,57.63Q65.4903,57.6784,65.3335,57.7185Q65.1767,57.7586,65.018,57.7904L53.7759,60.0364Q53.3038,60.1307,52.8524,60.2981Q52.401,60.4656,51.9816,60.702Q51.5622,60.9384,51.1852,61.2378Q50.8083,61.5373,50.4831,61.8924L42.7439,70.3435Q42.6375,70.4598,42.5252,70.5703Q42.4129,70.6809,42.295,70.7855Q42.1771,70.8901,42.0539,70.9884Q41.9307,71.0868,41.8026,71.1786Q41.6745,71.2705,41.5419,71.3555Q41.4092,71.4406,41.2723,71.5187Q41.1354,71.5968,40.9946,71.6677Q40.8538,71.7386,40.7096,71.8021Q40.5653,71.8656,40.418,71.9215Q40.2706,71.9774,40.1206,72.0257Q39.9705,72.0739,39.8182,72.1143Q39.6658,72.1547,39.5116,72.1871Q39.3574,72.2196,39.2017,72.244Q39.0459,72.2684,38.8892,72.2847Q38.7324,72.301,38.575,72.3092Q38.4176,72.3174,38.26,72.3174Q38.1024,72.3174,37.945,72.3092Q37.7876,72.301,37.6308,72.2847Q37.4741,72.2684,37.3183,72.244Q37.1626,72.2196,37.0084,72.1871Q36.8542,72.1547,36.7018,72.1143Q36.5495,72.0739,36.3994,72.0257Q36.2494,71.9774,36.102,71.9215Q35.9547,71.8656,35.8104,71.8021Q35.6662,71.7386,35.5254,71.6677Q35.3846,71.5968,35.2477,71.5187Q35.1108,71.4406,34.9781,71.3555Q34.8455,71.2705,34.7174,71.1786Q34.5893,71.0868,34.4661,70.9884Q34.3429,70.8901,34.225,70.7855Q34.1071,70.6809,33.9948,70.5703Q33.8825,70.4598,33.7761,70.3435L26.0369,61.8924Q25.7118,61.5373,25.3348,61.2378Q24.9578,60.9384,24.5384,60.702Q24.119,60.4656,23.6676,60.2981Q23.2162,60.1307,22.7441,60.0364L11.502,57.7904Q11.3433,57.7586,11.1865,57.7185Q11.0297,57.6784,10.8753,57.63Q10.7208,57.5816,10.5692,57.5251Q10.4175,57.4686,10.2691,57.404Q10.1207,57.3395,9.9759,57.2672Q9.8311,57.1949,9.6904,57.1149Q9.5496,57.035,9.41337,56.9477Q9.27709,56.8604,9.14565,56.7659Q9.01421,56.6715,8.88798,56.5702Q8.76175,56.4689,8.64108,56.3611Q8.52042,56.2532,8.40567,56.1391Q8.29091,56.0249,8.18239,55.9049Q8.07388,55.7848,7.9719,55.6591Q7.8699200000000005,55.5334,7.77477,55.4025Q7.6796299999999995,55.2716,7.59158,55.1358Q7.50353,55,7.42284,54.8597Q7.34214,54.7194,7.26902,54.575Q7.1959,54.4306,7.13057,54.2826Q7.06523,54.1345,7.00787,53.9831Q6.95051,53.8318,6.90127,53.6776Q6.85204,53.5234,6.81108,53.3669Q6.77012,53.2103,6.73755,53.0518Q6.70498,52.8932,6.68089,52.7332Q6.6568,52.5731,6.64126,52.412Q6.62572,52.2509,6.61877,52.0892Q6.61182,51.9275,6.61348,51.7657Q6.61514,51.6039,6.62541,51.4424Q6.63568,51.2808,6.65453,51.1201Q6.67338,50.9593,6.70076,50.7998Q6.72813,50.6403,6.76395,50.4825Q6.79977,50.3247,6.84394,50.169Q6.88811,50.0132,6.9405,49.8601L10.4547,39.5881Q10.6173,39.1129,10.6996,38.6175Q10.782,38.1222,10.782,37.62Q10.782,37.1178,10.6996,36.6225Q10.6173,36.1271,10.4547,35.6519L6.9405,25.3799Q6.88811,25.2267,6.84394,25.071Q6.79977,24.9153,6.76395,24.7575Q6.72813,24.5997,6.70076,24.4402Q6.67338,24.2806,6.65453,24.1199Q6.63568,23.9592,6.62541,23.7976Q6.61514,23.6361,6.61348,23.4743Q6.61182,23.3124,6.61877,23.1507Q6.62572,22.989,6.64126,22.828Q6.6568,22.6669,6.68089,22.5068Q6.70498,22.3468,6.73755,22.1882Q6.77012,22.0297,6.81108,21.8731Q6.85204,21.7165,6.90127,21.5624Q6.9505,21.4082,7.00787,21.2568Q7.06523,21.1055,7.13057,20.9574Q7.1959,20.8094,7.26902,20.665Q7.34214,20.5206,7.42284,20.3803Q7.50353,20.24,7.59158,20.1042Q7.6796299999999995,19.9684,7.77477,19.8375Q7.8699200000000005,19.7066,7.9719,19.5809Q8.07387,19.4552,8.18239,19.3351Q8.29091,19.2151,8.40566,19.1009Q8.52042,18.9868,8.64108,18.8789Q8.76174,18.7711,8.88797,18.6698Q9.0142,18.5685,9.14565,18.4741Q9.27709,18.3796,9.41336,18.2923Q9.5496,18.205,9.6904,18.1251Q9.8311,18.0451,9.9759,17.9728Q10.1207,17.9005,10.2691,17.8359Q10.4175,17.7714,10.5692,17.7149Q10.7208,17.6583,10.8753,17.61Q11.0297,17.5616,11.1865,17.5215Q11.3433,17.4813,11.502,17.4496L22.7441,15.2036Q23.2162,15.1093,23.6676,14.9419Q24.119,14.7744,24.5384,14.538Q24.9578,14.3016,25.3348,14.0022Q25.7118,13.7027,26.0369,13.3476L33.7761,4.89647Q33.8825,4.78023,33.9948,4.66967Q34.1071,4.5591,34.225,4.4545Q34.3429,4.34991,34.4661,4.25156Q34.5893,4.15321,34.7174,4.06137Q34.8455,3.96954,34.9781,3.88446Q35.1108,3.79939,35.2477,3.7213Q35.3846,3.64321,35.5254,3.57232Q35.6662,3.50144,35.8104,3.43794Q35.9547,3.37443,36.102,3.31849Q36.2494,3.26255,36.3994,3.21432Q36.5495,3.16609,36.7018,3.1257Q36.8542,3.0853,37.0084,3.05286Q37.1626,3.02042,37.3183,2.996Q37.4741,2.97159,37.6308,2.95528Q37.7876,2.93897,37.945,2.93081Q38.1024,2.92264,38.26,2.92264Q38.4176,2.92264,38.575,2.93081Q38.7324,2.93897,38.8892,2.95528Q39.0459,2.97159,39.2017,2.996Q39.3574,3.02041,39.5116,3.05286Q39.6658,3.0853,39.8182,3.1257Q39.9705,3.16609,40.1206,3.21432Q40.2706,3.26255,40.418,3.31849Q40.5653,3.37443,40.7096,3.43794Q40.8538,3.50144,40.9946,3.57232Q41.1354,3.64321,41.2723,3.7213Q41.4092,3.79939,41.5419,3.88446Q41.6745,3.96954,41.8026,4.06137Q41.9307,4.15321,42.0539,4.25156Q42.1771,4.34991,42.295,4.4545Q42.4129,4.5591,42.5252,4.66967Q42.6375,4.78023,42.7439,4.89647L50.4831,13.3476Z" fill="#00BFFF" fill-opacity="1"/></g><g><path d="M36.744,53.888Q36.204,54.212,35.7,54.212Q34.656,54.212,33.792,52.592Q33.288,51.512,32.406,50.756Q31.524,50,30.156,49.46Q29.796,49.316,29.796,49.064Q29.796,48.956,29.904,48.866Q30.012,48.776,30.192,48.776L31.560000000000002,48.776Q32.172,48.776,32.64,48.74Q33.324,48.632,33.81,48.398Q34.296,48.164,34.512,47.444Q34.728,46.58,34.89,43.052Q35.052,39.524,35.052,35.564L35.052,34.484Q34.908,34.772,34.44,35.510000000000005Q33.972,36.248000000000005,33.647999999999996,37.111999999999995Q32.1,41.216,30.875999999999998,43.466Q29.652,45.716,27.564,47.372Q25.476,49.028,21.948,49.964Q21.228,50.144,20.832,50.144Q20.4,50.144,20.4,49.928Q20.4,49.712,20.976,49.136Q22.632,48.236,24.342,45.986000000000004Q26.052,43.736000000000004,27.42,40.964Q28.788,38.192,29.436,35.708Q29.508,35.492000000000004,29.22,35.492000000000004Q28.788,35.492000000000004,28.14,35.852000000000004L27.492,36.176Q26.88,36.536,26.43,36.716Q25.98,36.896,25.476,36.896Q24.972,36.896,24.576,36.716Q23.676000000000002,36.32,22.866,35.510000000000005Q22.056,34.7,21.84,34.16Q21.768,33.944,21.768,33.836Q21.768,33.403999999999996,22.776,33.332Q23.532,33.296,26.034,32.684Q28.536,32.072,29.868000000000002,31.712Q30.588,31.496,31.236,31.136Q31.308,31.1,31.578,30.974Q31.848,30.848,32.064,30.848Q32.496,30.848,33.504,31.784Q34.224000000000004,32.396,34.188,32.36Q34.836,32.9,35.016,33.152Q34.944,28.436,34.656,26.131999999999998Q34.548,25.16,34.35,24.53Q34.152,23.9,33.918,23.378Q33.684,22.856,33.612,22.64Q33.432,22.208,33.432,21.992Q33.432,21.524,33.9,21.344Q34.368,21.164,35.268,21.164Q36.024,21.164,37.698,21.758Q39.372,22.352,39.948,22.82Q40.308,23.144,40.308,23.576Q40.308,23.792,40.092,24.584Q39.804,25.484,39.768,26.168Q39.66,29.119999999999997,39.588,34.16L39.66,34.196Q41.316,32.072,42.36,30.308Q43.403999999999996,28.544,43.656,27.5Q43.836,26.672,43.962,26.42Q44.088,26.168,44.484,26.168Q44.772,26.168,45.132000000000005,26.276Q47.328,26.852,49.344,29.156Q49.56,29.372,49.56,29.768Q49.56,30.380000000000003,48.84,31.064Q47.507999999999996,32.072,45.635999999999996,33.134Q43.763999999999996,34.196,40.812,35.6Q42.216,37.22,44.646,39.506Q47.076,41.792,48.84,42.980000000000004Q50.748000000000005,44.168,51.846,44.762Q52.944,45.356,54.06,45.716Q55.068,46.004000000000005,55.068,46.472Q55.068,46.832,54.42,47.156Q51.576,48.38,49.164,48.596Q47.867999999999995,48.668,47.58,48.668Q46.716,48.668,46.176,48.434Q45.635999999999996,48.2,44.844,47.408Q43.8,46.436,42.54,44.582Q41.28,42.728,39.516,39.775999999999996Q39.516,44.672,39.623999999999995,47.372Q39.66,49.208,39.480000000000004,50.27Q39.3,51.332,38.688,52.214Q38.076,53.096,36.744,53.888Z" fill="#00BFFF" fill-opacity="1"/></g></g></svg>