<svg xmlns="http://www.w3.org/2000/svg" xmlns:xlink="http://www.w3.org/1999/xlink" fill="none" version="1.1" width="76" height="76" viewBox="0 0 76 76"><defs><clipPath id="master_svg0_53_25708/53_24613"><rect x="0" y="0" width="76" height="76" rx="0"/></clipPath></defs><g clip-path="url(#master_svg0_53_25708/53_24613)"><g style="opacity:0.20000000298023224;"><rect x="7" y="6" width="64" height="64" rx="12.80000114440918" fill="#DCBC46" fill-opacity="1"/></g><g><path d="M31.796,54.716Q31.58,54.788,31.148,54.788Q30.176000000000002,54.788,29.42,54.194Q28.664,53.6,27.764,52.484Q27.404,52.052,27.404,51.656Q27.404,51.296,27.746000000000002,51.044Q28.088,50.792,28.736,50.792Q31.4,50.792,36.188,50.504Q36.368,47.156,36.368,43.232Q34.568,43.412,32.3,43.736000000000004Q32.192,43.772,31.939999999999998,43.772Q31.112000000000002,43.772,30.41,42.962Q29.708,42.152,29.456,41.18Q29.348,40.748000000000005,29.348,40.712Q29.348,40.135999999999996,29.996000000000002,40.135999999999996Q31.796,40.135999999999996,36.332,39.739999999999995Q36.26,38.263999999999996,36.152,37.724000000000004L36.116,37.58Q35.792,37.58,35.216,37.652L34.244,37.688Q33.164,37.688,32.263999999999996,36.536Q30.14,38.444,27.944,39.668Q25.748,40.891999999999996,23.804,41.216Q23.624,41.251999999999995,23.3,41.251999999999995Q22.76,41.251999999999995,22.76,41Q22.76,40.712,23.408,40.244Q26.54,38.084,29.312,34.448Q32.084,30.811999999999998,33.757999999999996,27.176000000000002Q35.432,23.54,35.432,21.524Q35.432,20.624,36.224000000000004,20.624Q36.584,20.624,36.763999999999996,20.695999999999998Q39.284,21.344,40.94,22.532Q41.408,22.964,41.408,23.432000000000002Q41.408,23.864,40.94,24.548000000000002Q40.652,24.944000000000003,40.364000000000004,25.448Q41.948,26.887999999999998,45.152,29.516Q48.356,32.144,49.652,33.007999999999996Q53.468,35.708,56.6,36.968Q57.248,37.22,57.248,37.544Q57.248,37.796,56.708,37.976Q54.332,38.696,51.488,38.876000000000005Q51.236000000000004,38.912,50.768,38.912Q49.616,38.912,48.878,38.552Q48.14,38.192,47.312,37.436Q46.304,36.464,45.188,35.114000000000004Q44.072,33.763999999999996,42.379999999999995,31.64Q39.896,28.544,39.176,27.716L39.14,27.788Q37.232,31.388,34.424,34.412Q39.032,33.872,41.984,33.296Q42.236000000000004,33.224000000000004,42.596000000000004,33.224000000000004Q43.1,33.224000000000004,43.424,33.476Q43.82,33.8,44.251999999999995,34.448Q44.684,35.096000000000004,44.972,35.672Q45.044,35.96,45.044,36.068Q45.044,36.68,44.108000000000004,36.788Q42.848,36.932,39.896,37.22L40.292,37.4Q40.903999999999996,37.796,40.903999999999996,38.480000000000004L40.832,39.056L40.796,39.308Q43.784,39.019999999999996,45.188,38.768Q45.584,38.66,45.836,38.66Q46.123999999999995,38.66,46.448,38.876000000000005Q46.952,39.236000000000004,47.492000000000004,39.956Q48.032,40.676,48.212,41.288Q48.32,41.504000000000005,48.32,41.72Q48.32,42.007999999999996,48.104,42.206Q47.888000000000005,42.403999999999996,47.492000000000004,42.403999999999996Q45.548,42.367999999999995,40.688,42.8Q40.652,44.42,40.652,48.164L40.652,50.252L41.408,50.18Q46.916,49.784,47.995999999999995,49.604Q48.176,49.568,48.5,49.568Q49.328,49.568,49.976,50.216Q50.480000000000004,50.684,51.074,51.71Q51.668,52.736,51.668,53.276Q51.668,53.996,50.768,53.924Q48.751999999999995,53.852,46.7,53.852Q42.416,53.852,38.204,54.068Q33.992000000000004,54.284,31.796,54.716ZM29.528,45.391999999999996Q29.384,45.248000000000005,29.384,45.032Q29.384,44.708,29.887999999999998,44.672Q30.823999999999998,44.6,31.922,44.78Q33.019999999999996,44.96,33.74,45.284Q35.504,46.256,35.504,47.66Q35.504,48.38,35.018,49.028Q34.532,49.676,33.74,50.072Q33.632,50.144,33.416,50.144Q33.092,50.144,32.624,49.784Q32.192,49.244,31.67,48.488Q31.148,47.732,30.968,47.444Q29.924,45.896,29.528,45.391999999999996ZM41.336,49.424Q42.164,48.056,42.686,46.418Q43.208,44.78,43.208,43.664Q43.208,43.34,43.406,43.16Q43.604,42.980000000000004,43.928,43.052Q44.9,43.123999999999995,46.106,43.592Q47.312,44.06,47.96,44.672Q48.176,44.888000000000005,48.176,45.068Q48.176,45.428,47.384,46.04L46.772,46.616Q44.576,48.812,41.948,49.784Q41.876000000000005,49.82,41.732,49.82Q41.516,49.82,41.372,49.694Q41.228,49.568,41.336,49.424Z" fill="#DCBC46" fill-opacity="1"/></g></g></svg>