<svg xmlns="http://www.w3.org/2000/svg" xmlns:xlink="http://www.w3.org/1999/xlink" fill="none" version="1.1" width="272" height="44" viewBox="0 0 272 44"><g><path d="M2.72,26.35C3.604,25.194,4.42,24.004,5.27,22.712L5.27,37.57L9.384,37.57L9.384,15.028C10.438,12.648,11.39,10.2,12.206,7.684L7.888,6.596C6.426,12.138,4.284,16.898,1.632,20.876C1.938,22.746,2.312,24.412,2.72,26.35ZM29.92,19.89L31.688,14.416L31.688,10.778L18.768,10.778C19.21,9.724,19.584,8.602,19.992,7.446L15.708,6.834C14.416,11.084,12.75,14.62,10.302,18.02C11.492,18.904,12.41,19.754,13.532,20.808C14.892,18.836,16.048,16.864,17.034,14.79L27.438,14.79L25.874,18.938C27.098,19.21,28.662,19.516,29.92,19.89ZM15.368,37.23C16.796,37.23,18.496,37.196,19.584,37.094C22.542,36.89,23.664,35.394,23.664,32.368L23.664,16.66L19.448,16.66L19.448,31.416C19.448,32.708,19.006,33.184,17.748,33.184C16.558,33.184,15.674,33.15,14.62,33.048C14.858,34.204,15.198,36.074,15.368,37.23ZM28.254,32.742L32.3,31.45C31.246,28.492,29.818,24.48,28.356,20.536L24.548,21.624C25.84,25.33,27.098,29.206,28.254,32.742ZM14.178,32.708C15.572,29.274,17.238,24.888,18.394,21.556L14.586,20.298C13.498,23.426,11.866,27.846,10.336,31.11C11.866,31.62,12.92,32.13,14.178,32.708ZM53.38,19.992C54.094,18.632,54.74,17.204,55.386,15.674L61.03,15.674C60.996,19.89,60.86,26.656,60.724,29.818C60.656,32.028,59.942,32.81,57.732,32.81C56.202,32.81,54.57,32.776,53.074,32.708C53.346,33.966,53.652,35.394,53.924,37.06C55.93,37.06,57.868,37.026,59.466,36.924C63.478,36.72,64.804,34.884,64.906,30.702C65.042,26.112,65.212,19.21,65.382,11.594L56.984,11.594L58.344,7.582L54.162,6.596C53.006,10.71,51.442,14.586,49.776,17.918L49.776,11.594L44.812,11.594C45.186,10.268,45.56,8.908,46.002,7.344L41.446,6.698C41.174,8.194,40.834,9.86,40.392,11.594L36.924,11.594L36.924,37.196L40.97,37.196L40.97,34.918L45.73,34.918L45.73,36.992L49.776,36.992L49.776,18.054C51,18.632,52.258,19.346,53.38,19.992ZM56.066,28.56L59.67,26.18C58.072,23.936,56.508,21.862,54.876,19.686L51.612,21.862C53.244,24.106,54.74,26.452,56.066,28.56ZM40.97,25.296L45.73,25.296L45.73,30.872L40.97,30.872L40.97,25.296ZM40.97,15.64L45.73,15.64L45.73,21.25L40.97,21.25L40.97,15.64ZM70.89,12.342L79.628,12.342L78.506,18.734L71.638,18.734L71.638,22.848L77.792,22.848L76.16,32.096L69.836,32.096L69.836,36.21L100.198,36.21L100.198,32.096L95.744,32.096L95.744,18.734L83.164,18.734L84.286,12.342L99.008,12.342L99.008,8.262L70.89,8.262L70.89,12.342ZM91.256,22.848L91.256,32.096L80.818,32.096L82.416,22.848L91.256,22.848ZM115.702,22.168L125.12,22.168L125.12,30.702C125.12,32.368,124.508,32.98,122.842,32.98C121.278,32.98,119.408,32.912,118.116,32.844C118.456,34.272,118.728,35.768,118.966,37.06C120.36,37.06,122.4,37.06,124.61,36.958C128.18,36.788,129.472,35.258,129.472,31.654L129.472,22.168L134.062,22.168L134.062,18.054L115.702,18.054L115.702,22.168ZM105.06,28.798C106.046,27.948,107.066,27.03,108.052,26.112L108.052,37.604L112.132,37.604L112.132,21.76C113.152,20.536,114.172,19.244,115.192,17.816L111.894,15.368C109.174,19.21,106.76,21.964,103.734,24.616C104.176,25.908,104.652,27.404,105.06,28.798ZM116.96,12.648L132.838,12.648L132.838,8.534L116.96,8.534L116.96,12.648ZM105.842,18.088C109.48,15.13,111.996,12.614,114.954,9.18L111.554,6.528C109.412,9.248,107.1,11.56,104.142,13.906C104.618,14.926,105.366,16.796,105.842,18.088ZM140.114,36.754L144.534,36.754L144.534,34.034L161.602,34.034L161.602,36.754L166.022,36.754L166.022,9.248L140.114,9.248L140.114,36.754ZM144.534,13.396L161.602,13.396L161.602,29.92L144.534,29.92L144.534,13.396ZM183.362,35.19C186.422,32.674,188.462,30.26,190.162,27.064L190.162,37.604L194.174,37.604L194.174,27.064C195.602,29.886,197.404,32.232,200.226,34.782C200.736,33.898,201.892,31.926,202.47,30.872C199.206,28.492,197.064,26.146,195.262,22.61L201.484,22.61L201.484,18.802L194.174,18.802L194.174,15.096L200.498,15.096L200.498,11.322L194.174,11.322L194.174,6.664L190.162,6.664L190.162,11.322L184.076,11.322L184.076,15.096L190.162,15.096L190.162,18.802L183.192,18.802L183.192,22.61L188.972,22.61C187.272,25.908,185.334,28.118,182.376,30.498L182.376,8.942L173.06,8.942L173.06,34.816L176.63,34.816L176.63,32.232L181.22,32.232C182.002,33.218,182.716,34.272,183.362,35.19ZM176.63,12.75L178.976,12.75L178.976,28.39L176.63,28.39L176.63,12.75ZM206.142,16.388L208.896,16.388L208.896,21.692L205.734,22.372L206.108,26.826L208.896,26.01L208.896,31.892C208.896,32.946,208.454,33.354,207.57,33.354C206.89,33.354,206.346,33.32,205.768,33.32C206.006,34.714,206.244,36.074,206.448,37.4C207.672,37.366,208.726,37.298,209.576,37.264C211.888,37.026,212.772,35.632,212.772,32.912L212.772,24.888C213.588,24.684,214.336,24.514,215.152,24.31C215.118,23.732,215.084,23.12,215.084,22.508C215.526,23.324,215.934,24.106,216.308,24.82C217.634,24.106,218.824,23.392,219.912,22.644L219.912,24.31L230.86,24.31L230.86,22.508C231.948,23.222,233.24,23.868,234.77,24.582C235.314,23.324,235.824,22.168,236.538,20.876C232.458,19.55,230.146,18.054,227.426,14.926L227.97,14.178L223.618,14.042C221.476,17.034,219.402,18.904,215.084,20.944L215.084,20.128C214.268,20.332,213.52,20.57,212.772,20.74L212.772,16.388L215.186,16.388L215.186,12.41L212.772,12.41L212.772,6.698L208.896,6.698L208.896,12.41L206.142,12.41L206.142,16.388ZM216.886,37.672L220.762,37.672L220.762,36.312L230.214,36.312L230.214,37.672L234.09,37.672L234.09,26.248L216.886,26.248L216.886,37.672ZM215.39,12.784L218.994,12.784L218.994,15.028L222.768,15.028L222.768,12.784L228.378,12.784L228.378,15.028L232.186,15.028L232.186,12.784L235.96,12.784L235.96,9.282L232.186,9.282L232.186,6.698L228.378,6.698L228.378,9.282L222.768,9.282L222.768,6.698L218.994,6.698L218.994,9.282L215.39,9.282L215.39,12.784ZM220.762,29.648L230.214,29.648L230.214,32.946L220.762,32.946L220.762,29.648ZM225.352,17.748C226.542,19.176,227.698,20.264,229.058,21.284L221.782,21.284C223.108,20.196,224.264,19.108,225.352,17.748ZM239.836,24.446L253.028,24.446L253.028,30.124C253.028,32.13,252.484,32.742,250.512,32.742C248.472,32.742,247.146,32.674,246.296,32.64C246.602,34.068,246.874,35.632,247.146,37.196C249.05,37.162,251.26,37.094,252.926,36.958C256.394,36.72,257.55,35.19,257.55,31.654L257.55,24.446L270.13,24.446L270.13,20.4L257.55,20.4L257.55,19.278L267.682,13.26L267.682,8.194L242.318,8.194L242.318,12.206L261.29,12.206L253.028,17.238L253.028,20.4L239.836,20.4L239.836,24.446Z" fill="#111925" fill-opacity="0.8500000238418579"/></g></svg>