<svg xmlns="http://www.w3.org/2000/svg" xmlns:xlink="http://www.w3.org/1999/xlink" fill="none" version="1.1" width="89.5" height="46.5" viewBox="0 0 89.5 46.5"><g><path d="M8.83594,39.75L8.83594,38.3203L14.8359,38.3203L14.8359,11.13281Q14.8359,10.26562,14.3438,10.00781Q13.8516,9.75,11.57812,9.75L8.97656,9.75L9,8.55469Q11.48438,8.50781,14.25,8.32031Q17.0156,8.13281,20.2031,7.78125L21.8438,7.78125L21.8438,38.3203L27.4688,38.3203L27.4688,39.75L8.83594,39.75ZM34.664100000000005,24.0469Q34.664100000000005,20.625,35.5547,17.6836Q36.4453,14.7422,38.1094,12.58594Q39.9844,10.19531,42.2695,8.98828Q44.5547,7.78125,47.2266,7.78125Q49.875,7.78125,52.1719,9.02344Q54.4688,10.26562,56.3203,12.67969Q58.0547,14.9297,58.957,17.8828Q59.8594,20.8359,59.8594,24.2344Q59.8594,27.5625,58.9336,30.3398Q58.0078,33.1172,56.1094,35.5312Q54.2578,37.875,51.9844,39.1289Q49.7109,40.3828,47.2266,40.3828Q44.8125,40.3828,42.5156,39.1758Q40.2188,37.9688,38.4609,35.7656Q36.6562,33.4922,35.6602,30.4219Q34.664100000000005,27.3516,34.664100000000005,24.0469ZM47.2266,9.21094Q45.7266,9.21094,44.8125,9.808589999999999Q43.8984,10.40625,43.5469,11.625Q43.1484,12.91406,42.9844,15.6445Q42.8203,18.375,42.8203,25.5L42.8203,26.6484Q42.8203,35.0625,43.7344,36.9961Q44.6484,38.9297,47.2266,38.9297Q49.8516,38.9297,50.7773,36.9375Q51.7031,34.9453,51.7031,26.0156L51.7031,25.4062Q51.7031,20.3203,51.6328,17.3086Q51.5625,14.2969,51.4219,13.35938Q51.0469,11.13281,50.0742,10.17188Q49.1016,9.21094,47.2266,9.21094ZM78.1895,37.5283Q78.1895,38.2729,78.5435,38.6636Q78.8975,39.0542,79.5811,39.0542Q80.2769,39.0542,80.9727,38.5476Q81.6685,38.041,82.3154,37.0767Q82.8525,36.2588,83.1577,35.2517Q83.4629,34.2446,83.4629,33.2559Q83.4629,32.3403,83.1028,31.8337Q82.7427,31.3271,82.1079,31.3271Q81.6074,31.3271,81.1313,31.7178Q80.6553,32.1084,80.0815,32.9995Q79.2393,34.3179,78.7144,35.6179Q78.1895,36.918,78.1895,37.5283ZM78.8364,39.8721Q77.2373,39.8721,76.3096,38.9749Q75.3818,38.0776,75.3818,36.5273Q75.3818,35.648399999999995,75.748,34.6841Q76.1143,33.7197,76.8101,32.8042Q77.7012,31.6201,78.8364,30.9609Q79.9717,30.3018,81.1069,30.3018Q82.4985,30.3018,83.3042,31.1379Q84.1099,31.9741,84.1099,33.4268Q84.1099,34.574200000000005,83.6521,35.7949Q83.1943,37.0156,82.3887,38.0288Q81.6074,38.9688,80.7407,39.4204Q79.874,39.8721,78.8364,39.8721ZM71.1094,25.6021Q70.6699,25.4312,70.2976,25.1626Q69.9253,24.894,69.6079,24.5278Q69.0342,24.6133,68.5581,25.0588Q68.082,25.5044,67.4351,26.6274Q66.6782,27.9458,66.2693,29.0444Q65.8604,30.1431,65.8604,30.8267Q65.8604,31.4004,66.2449,31.7605Q66.6294,32.120599999999996,67.2397,32.120599999999996Q67.9722,32.120599999999996,68.7046,31.6018Q69.437,31.083,70.1084,30.0698Q70.6333,29.2642,70.908,28.373Q71.1826,27.4819,71.1826,26.5786Q71.1826,26.3223,71.1643,26.0842Q71.146,25.8462,71.1094,25.6021ZM67.96,40.519L76.7368,25.0771Q76.0166,25.6143,75.1926,25.8706Q74.3687,26.127,73.3799,26.127Q73.0259,26.127,72.623,26.072Q72.2202,26.0171,71.7563,25.9072Q71.7686,26.0171,71.7747,26.1575Q71.7808,26.2979,71.7808,26.5786Q71.7808,27.6772,71.4634,28.6782Q71.146,29.6792,70.5112,30.5947Q69.7178,31.7422,68.7046,32.3464Q67.6914,32.9507,66.5806,32.9507Q65.0181,32.9507,64.0415,32.047399999999996Q63.0649,31.144,63.0649,29.6792Q63.0649,28.4951,63.5593,27.3599Q64.05369999999999,26.2246,65.0303,25.1748Q65.83590000000001,24.2959,66.8064,23.8381Q67.7769,23.3804,68.8145,23.3804Q69.8154,23.3804,70.4746,23.7771Q71.1338,24.1738,71.5122,25.0039Q72.0615,25.2358,72.5254,25.3457Q72.9893,25.4556,73.4287,25.4556Q74.9424,25.4556,76.0776,24.8086Q77.2129,24.1616,78.1284,22.7944L79.3369,22.7944L69.2051,40.519L67.96,40.519Z" fill="#111925" fill-opacity="0.8500000238418579"/><path d="M5.08594,34.5703L5.08594,43.5L31.2188,43.5L31.2188,34.5703L25.5938,34.5703L25.5938,4.03125L19.9969,4.03125L19.792,4.053853Q16.6831,4.396748,13.9963,4.578901Q11.32208,4.76021,8.92926,4.80535L5.32146,4.87343L5.15231,13.5L11.08594,13.5L11.08594,34.5703L5.08594,34.5703ZM14.8359,34.5703L14.8359,38.3203L8.83594,38.3203L8.83594,39.75L27.4688,39.75L27.4688,38.3203L21.8438,38.3203L21.8438,7.78125L20.2031,7.78125Q19.124299999999998,7.90024,18.0938,8.000440000000001Q17.893,8.019960000000001,17.6941,8.03876Q15.8972,8.208639999999999,14.25,8.32031Q11.48438,8.50781,9,8.55469L8.97656,9.75L11.57812,9.75Q12.22449,9.75,12.72687,9.77084Q13.9915,9.8233,14.3438,10.00781Q14.8359,10.26562,14.8359,11.13281L14.8359,34.5703ZM31.9656,16.596899999999998Q30.9141,20.0697,30.9141,24.0469Q30.9141,27.9447,32.093199999999996,31.5791Q33.2982,35.2934,35.5296,38.1044Q37.778,40.9224,40.7712,42.4953Q43.8872,44.1328,47.2266,44.1328Q50.6765,44.1328,53.7955,42.4126Q56.7314,40.7933,59.0571,37.8493Q60.3088,36.2576,61.2147,34.527100000000004Q61.35,34.6661,61.4951,34.800200000000004Q63.2913,36.4618,65.8339,36.6706L64.69980000000001,38.666L61.5151,44.269L71.3809,44.269L73.1848,41.1133Q73.4251,41.4021,73.7026,41.6705Q75.7206,43.6221,78.8364,43.6221Q80.7925,43.6221,82.4737,42.7459Q84.0092,41.9457,85.3238,40.3628Q86.4978,38.8864,87.1633,37.1116Q87.8599,35.2542,87.8599,33.4268Q87.8599,30.4615,86.0047,28.536Q84.2213,26.6851,81.5034,26.5607L85.7999,19.0444L76.1264,19.0444L75.0125,20.7079Q74.5886,21.341,74.2209,21.5505Q74.0487,21.6487,73.7771,21.6847Q73.1788,21.0278,72.4083,20.5641Q70.8569,19.6304,68.8145,19.6304Q66.9368,19.6304,65.20660000000001,20.4465Q64.2867,20.8804,63.478,21.5132Q63.2352,19.0512,62.5434,16.787Q61.4415,13.18098,59.2959,10.397459999999999Q56.957,7.34803,53.9558,5.72492Q50.8241,4.03125,47.2266,4.03125Q43.6252,4.03125,40.5181,5.67242Q37.5266,7.2525200000000005,35.1406,10.29485Q33.055800000000005,12.99631,31.9656,16.596899999999998ZM63.3452,27.924Q63.1062,28.6605,63.071,29.4171Q63.0649,29.5478,63.0649,29.6792Q63.0649,31.144,64.0415,32.047399999999996Q65.0181,32.9507,66.5806,32.9507Q67.3781,32.9507,68.1253,32.6392Q68.4188,32.5169,68.7046,32.3464Q69.7178,31.7422,70.5112,30.5947Q70.8469,30.1106,71.0938,29.6026Q71.2564,29.268,71.3805,28.9232Q71.4243,28.8014,71.4634,28.6782Q71.7808,27.6772,71.7808,26.5786Q71.7808,26.3505,71.7767,26.2149Q71.7758,26.1835,71.7747,26.1575Q71.7686,26.0171,71.7563,25.9072Q71.8439,25.928,71.9292,25.9467Q72.2962,26.0275,72.623,26.072Q72.8798,26.107,73.1167,26.1197Q73.2515,26.127,73.3799,26.127Q74.2041,26.127,74.9138,25.9488Q75.0555,25.9133,75.1926,25.8706Q75.3521,25.821,75.5077,25.7608Q76.156,25.5103,76.7368,25.0771L75.5118,27.2324L74.711,28.6413L74.4165,29.1595L74.0191,29.8586L71.6451,34.0355L70.8552,35.425200000000004L69.2051,38.3284L68.2653,39.9818L67.96,40.519L69.2051,40.519L71.6361,36.2663L75.3995,29.6826L75.8394,28.913L76.2763,28.1487L77.47,26.0603L77.9874,25.1553L78.1284,24.9086L79.0024,23.3797L79.3369,22.7944L78.1284,22.7944Q77.5633,23.6383,76.9145,24.2078Q76.5549,24.5234,76.1696,24.7548Q76.1238,24.7823,76.0776,24.8086Q75.5118,25.131,74.852,25.2928Q74.2177,25.4483,73.4965,25.4552Q73.4627,25.4556,73.4287,25.4556Q72.9893,25.4556,72.5254,25.3457Q72.4169,25.32,72.3038,25.2876Q71.9331,25.1816,71.5122,25.0039Q71.1338,24.1738,70.4746,23.7771Q69.8154,23.3804,68.8145,23.3804Q68.2561,23.3804,67.71719999999999,23.5129Q67.2547,23.6267,66.8064,23.8381Q65.83590000000001,24.2959,65.0303,25.1748Q64.05369999999999,26.2246,63.5593,27.3599Q63.4371,27.6404,63.3452,27.924ZM67.9685,25.7744Q67.8618,25.9285,67.7493,26.1061Q67.7269,26.1413,67.7042,26.1777Q67.5735,26.3871,67.4351,26.6274Q67.43350000000001,26.6302,67.4319,26.6329Q67.2361,26.9742,67.0637,27.3007Q66.5715,28.2326,66.2693,29.0444Q65.8604,30.1431,65.8604,30.8267Q65.8604,31.4004,66.2449,31.7605Q66.6294,32.120599999999996,67.2397,32.120599999999996Q67.9722,32.120599999999996,68.7046,31.6018Q68.7133,31.5956,68.722,31.5894Q69.1774,31.2629,69.6091,30.7448Q69.636,30.7126,69.6625,30.6799Q69.8887,30.4014,70.1084,30.0698Q70.5245,29.4311,70.7834,28.7387Q70.851,28.5577,70.908,28.373Q70.9772,28.1483,71.029,27.9228Q71.0357,27.8939,71.0419,27.8657Q71.0986,27.6076,71.1325,27.3484Q71.1826,26.9647,71.1826,26.5786Q71.1826,26.3223,71.1643,26.0842Q71.146,25.8462,71.1094,25.6021Q70.6699,25.4312,70.2976,25.1626Q69.9253,24.894,69.6079,24.5278Q69.0342,24.6133,68.5581,25.0588Q68.2903,25.3094,67.9685,25.7744ZM79.0582,30.8385Q78.9473,30.8966,78.8364,30.9609Q77.7012,31.6201,76.8101,32.8042Q76.1143,33.7197,75.748,34.6841Q75.3818,35.648399999999995,75.3818,36.5273Q75.3818,36.8743,75.4283,37.1885Q75.5895,38.2784,76.3096,38.9749Q77.2373,39.8721,78.8364,39.8721Q79.874,39.8721,80.7407,39.4204Q81.6074,38.9688,82.3887,38.0288Q83.1943,37.0156,83.6521,35.7949Q84.1099,34.574200000000005,84.1099,33.4268Q84.1099,31.9741,83.3042,31.1379Q82.4985,30.3018,81.1069,30.3018Q80.0826,30.3018,79.0582,30.8385ZM59.6729,27.1109Q59.8594,25.7281,59.8594,24.2344Q59.8594,20.8359,58.957,17.8828Q58.0547,14.9297,56.3203,12.67969Q55.5288,11.64767,54.6558,10.82982Q53.4868,9.734580000000001,52.1719,9.02344Q49.875,7.78125,47.2266,7.78125Q44.5547,7.78125,42.2695,8.98828Q41.0408,9.63731,39.9306,10.628540000000001Q38.9762,11.48075,38.1094,12.58594Q36.4453,14.7422,35.5547,17.6836Q34.664100000000005,20.625,34.664100000000005,24.0469Q34.664100000000005,27.3516,35.6602,30.4219Q36.6562,33.4922,38.4609,35.7656Q39.141,36.6179,39.9017,37.3211Q41.1073,38.4357,42.5156,39.1758Q44.8125,40.3828,47.2266,40.3828Q49.7109,40.3828,51.9844,39.1289Q53.388,38.3547,54.6308,37.1651Q55.401,36.428,56.1094,35.5312Q58.0078,33.1172,58.9336,30.3398Q59.1723,29.6237,59.3494,28.8711Q59.551,28.0147,59.6729,27.1109ZM51.3428,12.93617Q50.9518,11.038879999999999,50.0742,10.17188Q49.1016,9.21094,47.2266,9.21094Q45.7266,9.21094,44.8125,9.808589999999999Q43.8984,10.40625,43.5469,11.625Q43.4026,12.09167,43.2891,12.74723Q43.089,13.9025,42.9844,15.6445Q42.8203,18.375,42.8203,25.5L42.8203,26.6484Q42.8203,32.5229,43.2659,35.2385Q43.4585,36.4125,43.7344,36.9961Q44.6484,38.9297,47.2266,38.9297Q49.8516,38.9297,50.7773,36.9375Q51.0527,36.345,51.2461,35.1388Q51.7031,32.289500000000004,51.7031,26.0156L51.7031,25.4062Q51.7031,20.3203,51.6328,17.3086Q51.5625,14.2969,51.4219,13.35938Q51.3852,13.14176,51.3428,12.93617ZM47.0696,12.96419Q47.1426,12.96094,47.2266,12.96094L47.4387,12.83955Q47.55,12.94956,47.7134,13.9157Q47.819,14.6201,47.8838,17.3961Q47.9531,20.3641,47.9531,25.4062L47.9531,26.0156Q47.9531,34.1165,47.3766,35.3572L47.2266,35.1797L47.1246,35.3934Q46.5703,34.2208,46.5703,26.6484L46.5703,25.5Q46.5703,18.4876,46.7276,15.8694Q46.8445,13.9234,47.0696,12.96419ZM78.5435,38.6636Q78.1895,38.2729,78.1895,37.5283Q78.1895,36.918,78.7144,35.6179Q79.1094,34.6395,79.6842,33.6507Q79.7247,33.581,79.7662,33.5111Q79.9179,33.255700000000004,80.0815,32.9995Q80.6553,32.1084,81.1313,31.7178Q81.6074,31.3271,82.1079,31.3271Q82.7427,31.3271,83.1028,31.8337Q83.4629,32.3403,83.4629,33.2559Q83.4629,34.0107,83.2851,34.7761Q83.2515,34.9207,83.2115,35.0657Q83.1859,35.1586,83.1577,35.2517Q82.8525,36.2588,82.3154,37.0767Q82.1643,37.3019,82.0106,37.5021Q81.9752,37.5482,81.9394,37.5934Q81.4684,38.1867,80.9727,38.5476Q80.2769,39.0542,79.5811,39.0542Q78.8975,39.0542,78.5435,38.6636Z" fill-rule="evenodd" fill="#FFFFFF" fill-opacity="1"/></g></svg>