<svg xmlns="http://www.w3.org/2000/svg" xmlns:xlink="http://www.w3.org/1999/xlink" fill="none" version="1.1" width="89.5" height="46.5" viewBox="0 0 89.5 46.5"><g><path d="M18.1875,24.2344Q15.6328,24.2344,14.5898,26.0977Q13.54688,27.9609,13.54688,33.023399999999995Q13.54688,36.5859,14.5312,37.7812Q15.5156,38.9766,18.351599999999998,38.9766Q21.0234,38.9766,21.9141,37.7109Q22.8047,36.4453,22.8047,31.0078Q22.8047,27.3047,21.7383,25.7695Q20.6719,24.2344,18.1875,24.2344ZM18.398400000000002,9.16406Q16.0078,9.16406,15.2344,10.28906Q14.4609,11.41406,14.4609,16.3828Q14.4609,19.7812,15.3047,21.1758Q16.148400000000002,22.5703,18.1406,22.5703Q20.3906,22.5703,21.2344,21.1055Q22.0781,19.6406,22.0781,14.1562Q22.0781,11.10938,21.3281,10.13672Q20.5781,9.16406,18.398400000000002,9.16406ZM15.0234,23.3906L15.0234,23.0391Q10.96875,22.1953,8.941410000000001,20.332Q6.91406,18.4688,6.91406,15.6094Q6.91406,12.14062,10.00781,9.96094Q13.10156,7.78125,18.0938,7.78125Q23.25,7.78125,26.4375,9.972660000000001Q29.625,12.16406,29.625,15.6094Q29.625,18.585900000000002,27.6094,20.4141Q25.5938,22.2422,21.3281,23.1328L21.3281,23.4375Q25.9453,24.2109,28.3828,26.2617Q30.8203,28.3125,30.8203,31.4062Q30.8203,35.601600000000005,27.4688,37.9922Q24.1172,40.3828,18.1875,40.3828Q12.25781,40.3828,8.89453,38.0977Q5.53125,35.8125,5.53125,31.8281Q5.53125,28.4062,8.027339999999999,26.1797Q10.52344,23.9531,15.0234,23.3906ZM43.2656,24.4219Q43.0781,25.5703,42.9961,27.0469Q42.9141,28.5234,42.9141,30.3984Q42.9141,35.5781,43.9102,37.2773Q44.9062,38.9766,47.5312,38.9766Q50.1328,38.9766,51.0352,37.2188Q51.9375,35.460899999999995,51.9375,29.3906Q51.9375,24.1406,51.1055,22.7344Q50.2734,21.3281,48,21.3281Q46.6406,21.3281,45.3984,22.1367Q44.1562,22.9453,43.2656,24.4219ZM43.4531,22.3359Q44.4609,20.9766,45.9609,20.3086Q47.4609,19.6406,49.4531,19.6406Q53.8594,19.6406,56.8125,22.4414Q59.7656,25.2422,59.7656,29.3906Q59.7656,31.5703,58.9219,33.4336Q58.0781,35.2969,56.3672,36.9141Q54.5625,38.6016,52.2656,39.4922Q49.9688,40.3828,47.3906,40.3828Q42,40.3828,38.4492,36.5508Q34.898399999999995,32.7188,34.898399999999995,26.8828Q34.898399999999995,23.3203,36.2344,20.1445Q37.5703,16.9688,40.125,14.4609Q43.2656,11.34375,47.2969,9.67969Q51.3281,8.01562,56.1094,7.82812L56.1094,9.16406Q50.4141,9.60938,47.1328,13.01953Q43.8516,16.4297,43.4531,22.3359ZM78.1895,37.5283Q78.1895,38.2729,78.5435,38.6636Q78.8975,39.0542,79.5811,39.0542Q80.2769,39.0542,80.9727,38.5476Q81.6685,38.041,82.3154,37.0767Q82.8525,36.2588,83.1577,35.2517Q83.4629,34.2446,83.4629,33.2559Q83.4629,32.3403,83.1028,31.8337Q82.7427,31.3271,82.1079,31.3271Q81.6074,31.3271,81.1313,31.7178Q80.6553,32.1084,80.0815,32.9995Q79.2393,34.3179,78.7144,35.6179Q78.1895,36.918,78.1895,37.5283ZM78.8364,39.8721Q77.2373,39.8721,76.3096,38.9749Q75.3818,38.0776,75.3818,36.5273Q75.3818,35.648399999999995,75.748,34.6841Q76.1143,33.7197,76.8101,32.8042Q77.7012,31.6201,78.8364,30.9609Q79.9717,30.3018,81.1069,30.3018Q82.4985,30.3018,83.3042,31.1379Q84.1099,31.9741,84.1099,33.4268Q84.1099,34.574200000000005,83.6521,35.7949Q83.1943,37.0156,82.3887,38.0288Q81.6074,38.9688,80.7407,39.4204Q79.874,39.8721,78.8364,39.8721ZM71.1094,25.6021Q70.6699,25.4312,70.2976,25.1626Q69.9253,24.894,69.6079,24.5278Q69.0342,24.6133,68.5581,25.0588Q68.082,25.5044,67.4351,26.6274Q66.6782,27.9458,66.2693,29.0444Q65.8604,30.1431,65.8604,30.8267Q65.8604,31.4004,66.2449,31.7605Q66.6294,32.120599999999996,67.2397,32.120599999999996Q67.9722,32.120599999999996,68.7046,31.6018Q69.437,31.083,70.1084,30.0698Q70.6333,29.2642,70.908,28.373Q71.1826,27.4819,71.1826,26.5786Q71.1826,26.3223,71.1643,26.0842Q71.146,25.8462,71.1094,25.6021ZM67.96,40.519L76.7368,25.0771Q76.0166,25.6143,75.1926,25.8706Q74.3687,26.127,73.3799,26.127Q73.0259,26.127,72.623,26.072Q72.2202,26.0171,71.7563,25.9072Q71.7686,26.0171,71.7747,26.1575Q71.7808,26.2979,71.7808,26.5786Q71.7808,27.6772,71.4634,28.6782Q71.146,29.6792,70.5112,30.5947Q69.7178,31.7422,68.7046,32.3464Q67.6914,32.9507,66.5806,32.9507Q65.0181,32.9507,64.0415,32.047399999999996Q63.0649,31.144,63.0649,29.6792Q63.0649,28.4951,63.5593,27.3599Q64.05369999999999,26.2246,65.0303,25.1748Q65.83590000000001,24.2959,66.8064,23.8381Q67.7769,23.3804,68.8145,23.3804Q69.8154,23.3804,70.4746,23.7771Q71.1338,24.1738,71.5122,25.0039Q72.0615,25.2358,72.5254,25.3457Q72.9893,25.4556,73.4287,25.4556Q74.9424,25.4556,76.0776,24.8086Q77.2129,24.1616,78.1284,22.7944L79.3369,22.7944L69.2051,40.519L67.96,40.519Z" fill="#111925" fill-opacity="0.8500000238418579"/><path d="M45.8076,14.6724Q45.1595,15.6484,44.6857,16.7753Q44.3265,17.6298,44.0675,18.5711Q43.5901,20.3061,43.4531,22.3359Q44.4609,20.9766,45.9609,20.3086Q46.7276,19.9672,47.6228,19.8003Q48.4792,19.6406,49.4531,19.6406Q52.104,19.6406,54.2289,20.6543Q55.636,21.3256,56.8125,22.4414Q59.04,24.554,59.5873,27.4332Q59.7656,28.3712,59.7656,29.3906Q59.7656,30.5182,59.5398,31.5611Q59.3292,32.5342,58.9219,33.4336Q58.0781,35.2969,56.3672,36.9141Q55.5656,37.6636,54.6669,38.2559Q53.5423,38.9972,52.2656,39.4922Q49.9688,40.3828,47.3906,40.3828Q43.2335,40.3828,40.1706,38.1039Q39.2617,37.4277,38.4492,36.5508Q34.898399999999995,32.7188,34.898399999999995,26.8828Q34.898399999999995,23.3203,36.2344,20.1445Q37.5703,16.9688,40.125,14.4609Q41.5417,13.05484,43.1396,11.94441Q45.084,10.59313,47.2969,9.67969Q49.6954,8.68961,52.3594,8.22223Q54.1241,7.91263,56.0053,7.83239Q56.0572,7.83017,56.1094,7.82812L56.1094,9.16406Q50.4141,9.60938,47.1328,13.01953Q46.3979,13.7833,45.8076,14.6724ZM43.3376,35.6734Q43.5636,36.6861,43.9102,37.2773Q44.9062,38.9766,47.5312,38.9766Q50.1328,38.9766,51.0352,37.2188Q51.3108,36.6817,51.5023,35.7421Q51.9375,33.606300000000005,51.9375,29.3906Q51.9375,25.4012,51.4571,23.6313Q51.3052,23.072,51.1055,22.7344Q50.2734,21.3281,48,21.3281Q47.6548,21.3281,47.3171,21.3803Q46.3251,21.5335,45.3984,22.1367Q45.182,22.2776,44.9763,22.4387Q44.354,22.9261,43.8293,23.599Q43.5318,23.9806,43.2656,24.4219Q43.0781,25.5703,42.9961,27.0469Q42.9141,28.5234,42.9141,30.3984Q42.9141,33.775800000000004,43.3376,35.6734ZM46.8586,25.8154Q46.7837,26.4743,46.7403,27.2549Q46.6641,28.6275,46.6641,30.3984Q46.6641,34.171800000000005,47.0597,35.1987Q47.2298,35.226600000000005,47.5312,35.226600000000005Q47.6962,35.226600000000005,47.8084,35.22Q48.1875,33.9399,48.1875,29.3906Q48.1875,26.1351,48.0037,25.0781L48,25.0781Q47.7536,25.0781,47.4442,25.2795Q47.1385,25.4785,46.8586,25.8154ZM62.1638,35.3498Q61.0254,37.6712,58.9431,39.6393Q56.5942,41.8358,53.6214,42.9885Q50.6703,44.1328,47.3906,44.1328Q40.3624,44.1328,35.698499999999996,39.0996Q34.4905,37.7958,33.6032,36.3232Q32.3881,39.0895,29.6464,41.0451Q25.3176,44.1328,18.1875,44.1328Q11.104379999999999,44.1328,6.78705,41.1994Q1.78125,37.7983,1.78125,31.8281Q1.78125,26.7262,5.53109,23.3813Q5.83442,23.1107,6.1563300000000005,22.8587Q3.164062,19.9399,3.164062,15.6094Q3.164062,10.19542,7.84799,6.895379999999999Q11.9132,4.03125,18.0938,4.03125Q24.4147,4.03125,28.562,6.8825Q33.375,10.19145,33.375,15.6094Q33.375,16.7576,33.176,17.802Q34.7652,14.4675,37.498,11.78485Q41.1498,8.16019,45.866,6.2134Q50.5142,4.29466,55.9624,4.081005L59.8594,3.928184L59.8594,12.6323L56.4017,12.90265Q52.1278,13.23683,49.835,15.6196Q49.7075,15.7522,49.586,15.8911Q55.4004,15.9338,59.393,19.7205Q60.9751,21.221,61.95,22.9939Q62.1124,22.8058,62.2846,22.6207Q63.5696,21.2187,65.20660000000001,20.4465Q66.9368,19.6304,68.8145,19.6304Q70.8569,19.6304,72.4083,20.5641Q73.1788,21.0278,73.7771,21.6847Q74.0487,21.6487,74.2209,21.5505Q74.5886,21.341,75.0125,20.7079L76.1264,19.0444L85.7999,19.0444L81.5034,26.5607Q84.2213,26.6851,86.0047,28.536Q87.8599,30.4615,87.8599,33.4268Q87.8599,35.2542,87.1633,37.1116Q86.4978,38.8864,85.3238,40.3628Q84.0092,41.9457,82.4737,42.7459Q80.7925,43.6221,78.8364,43.6221Q75.7206,43.6221,73.7026,41.6705Q73.4251,41.4021,73.1848,41.1133L71.3809,44.269L61.5151,44.269L64.69980000000001,38.666L65.8339,36.6706Q63.7476,36.4992,62.1638,35.3498ZM68.1253,32.6392Q68.4188,32.5169,68.7046,32.3464Q69.7178,31.7422,70.5112,30.5947Q70.8469,30.1106,71.0938,29.6026Q71.2564,29.268,71.3805,28.9232Q71.4243,28.8014,71.4634,28.6782Q71.7808,27.6772,71.7808,26.5786Q71.7808,26.3505,71.7767,26.2149Q71.7758,26.1835,71.7747,26.1575Q71.7686,26.0171,71.7563,25.9072Q71.8439,25.928,71.9292,25.9467Q72.2962,26.0275,72.623,26.072Q72.8798,26.107,73.1167,26.1197Q73.2515,26.127,73.3799,26.127Q74.2041,26.127,74.9138,25.9488Q75.0555,25.9133,75.1926,25.8706Q75.3521,25.821,75.5077,25.7608Q76.156,25.5103,76.7368,25.0771L75.5118,27.2324L74.711,28.6413L74.4165,29.1595L74.0191,29.8586L71.6451,34.0355L70.8552,35.425200000000004L69.2051,38.3284L68.2653,39.9818L67.96,40.519L69.2051,40.519L71.6361,36.2663L75.3995,29.6826L75.8394,28.913L76.2763,28.1487L77.47,26.0603L77.9874,25.1553L78.1284,24.9086L79.0024,23.3797L79.3369,22.7944L78.1284,22.7944Q77.5633,23.6383,76.9145,24.2078Q76.5549,24.5234,76.1696,24.7548Q76.1238,24.7823,76.0776,24.8086Q75.5118,25.131,74.852,25.2928Q74.2177,25.4483,73.4965,25.4552Q73.4627,25.4556,73.4287,25.4556Q72.9893,25.4556,72.5254,25.3457Q72.4169,25.32,72.3038,25.2876Q71.9331,25.1816,71.5122,25.0039Q71.1338,24.1738,70.4746,23.7771Q69.8154,23.3804,68.8145,23.3804Q68.2561,23.3804,67.71719999999999,23.5129Q67.2547,23.6267,66.8064,23.8381Q65.83590000000001,24.2959,65.0303,25.1748Q64.05369999999999,26.2246,63.5593,27.3599Q63.4854,27.5297,63.4225,27.7006Q63.0649,28.6723,63.0649,29.6792Q63.0649,30.5402,63.4024,31.2073Q63.639,31.675,64.0415,32.047399999999996Q65.0181,32.9507,66.5806,32.9507Q67.3781,32.9507,68.1253,32.6392ZM67.9685,25.7744Q67.8618,25.9285,67.7493,26.1061Q67.7269,26.1413,67.7042,26.1777Q67.5735,26.3871,67.4351,26.6274Q67.43350000000001,26.6302,67.4319,26.6329Q67.2361,26.9742,67.0637,27.3007Q66.5715,28.2326,66.2693,29.0444Q65.8604,30.1431,65.8604,30.8267Q65.8604,31.4004,66.2449,31.7605Q66.6294,32.120599999999996,67.2397,32.120599999999996Q67.9722,32.120599999999996,68.7046,31.6018Q68.7133,31.5956,68.722,31.5894Q69.1774,31.2629,69.6091,30.7448Q69.636,30.7126,69.6625,30.6799Q69.8887,30.4014,70.1084,30.0698Q70.5245,29.4311,70.7834,28.7387Q70.851,28.5577,70.908,28.373Q70.9772,28.1483,71.029,27.9228Q71.0357,27.8939,71.0419,27.8657Q71.0986,27.6076,71.1325,27.3484Q71.1826,26.9647,71.1826,26.5786Q71.1826,26.3223,71.1643,26.0842Q71.146,25.8462,71.1094,25.6021Q70.6699,25.4312,70.2976,25.1626Q69.9253,24.894,69.6079,24.5278Q69.0342,24.6133,68.5581,25.0588Q68.2903,25.3094,67.9685,25.7744ZM79.0582,30.8385Q78.9473,30.8966,78.8364,30.9609Q77.7012,31.6201,76.8101,32.8042Q76.1143,33.7197,75.748,34.6841Q75.3818,35.648399999999995,75.3818,36.5273Q75.3818,36.8743,75.4283,37.1885Q75.5895,38.2784,76.3096,38.9749Q77.2373,39.8721,78.8364,39.8721Q79.874,39.8721,80.7407,39.4204Q81.6074,38.9688,82.3887,38.0288Q83.1943,37.0156,83.6521,35.7949Q84.1099,34.574200000000005,84.1099,33.4268Q84.1099,31.9741,83.3042,31.1379Q82.4985,30.3018,81.1069,30.3018Q80.0826,30.3018,79.0582,30.8385ZM31.9671,20.9835Q31.3018,22.0799,30.322,23.0121Q30.5657,23.1976,30.797,23.3922Q31.0854,23.6348,31.3517,23.8872Q31.5564,22.4072,31.9671,20.9835ZM26.9318,25.2611Q26.1985,24.8452,25.3364,24.5048Q24.6072,24.2169,23.7859,23.983Q22.6744,23.6664,21.3941,23.4486Q21.3613,23.443,21.3281,23.4375L21.3281,23.1328Q21.3547,23.1273,21.381,23.1217Q22.7122,22.841,23.8228,22.4685Q24.3915,22.2777,24.9024,22.0628Q25.9776,21.6106,26.7966,21.0516Q27.2406,20.7485,27.6094,20.4141Q29.625,18.585900000000002,29.625,15.6094Q29.625,12.16406,26.4375,9.972660000000001Q25.7825,9.52232,25.0443,9.16452Q22.1904,7.78125,18.0938,7.78125Q14.365,7.78125,11.69539,8.997250000000001Q10.7908,9.40929,10.00781,9.96094Q6.91406,12.14062,6.91406,15.6094Q6.91406,18.4688,8.941410000000001,20.332Q9.25817,20.6232,9.62442,20.8894Q10.45479,21.493,11.53955,21.9687Q12.10032,22.2146,12.72911,22.4263Q13.762,22.7741,14.9783,23.0296Q15.0012,23.0344,15.0234,23.0391L15.0234,23.3906Q14.986,23.3953,14.9483,23.4002Q13.69703,23.561,12.60188,23.8515Q11.9341,24.0287,11.32434,24.254Q10.31162,24.6282,9.459,25.1354Q8.67559,25.6014,8.027339999999999,26.1797Q5.53125,28.4062,5.53125,31.8281Q5.53125,35.8125,8.89453,38.0977Q9.84309,38.7421,10.9958,39.2049Q13.9302,40.3828,18.1875,40.3828Q22.4634,40.3828,25.3988,39.1397Q26.534,38.6589,27.4688,37.9922Q30.8203,35.601600000000005,30.8203,31.4062Q30.8203,28.3125,28.3828,26.2617Q27.7344,25.7162,26.9318,25.2611ZM22.462,27.5059Q22.3656,27.1117,22.2422,26.7724Q22.1118,26.4141,21.9513,26.1173Q21.8507,25.9314,21.7383,25.7695Q21.6893,25.699,21.6373,25.6317Q20.696,24.4133,18.773400000000002,24.2573Q18.4911,24.2344,18.1875,24.2344Q17.8712,24.2344,17.5781,24.2629Q15.7963,24.4365,14.8708,25.6655Q14.7188,25.8674,14.5898,26.0977Q14.3066,26.6037,14.1003,27.3456Q13.54688,29.3358,13.54688,33.023399999999995Q13.54688,34.949799999999996,13.8347,36.184Q14.0792,37.2323,14.5312,37.7812Q15.5156,38.9766,18.351599999999998,38.9766Q21.0234,38.9766,21.9141,37.7109Q22.2476,37.237,22.4562,36.1781Q22.8047,34.4092,22.8047,31.0078Q22.8047,28.9085,22.462,27.5059ZM17.5781,22.54Q17.846899999999998,22.5703,18.1406,22.5703Q18.4723,22.5703,18.773400000000002,22.5385Q20.515,22.3544,21.2344,21.1055Q21.2731,21.0382,21.3101,20.9625Q21.6108,20.3463,21.7938,19.1692Q22.0781,17.34,22.0781,14.1562Q22.0781,12.89863,21.9503,11.9944Q21.7686,10.70791,21.3281,10.13672Q20.5781,9.16406,18.398400000000002,9.16406Q16.0078,9.16406,15.2344,10.28906Q14.911,10.75947,14.7228,11.90192Q14.4609,13.49169,14.4609,16.3828Q14.4609,17.9514,14.6407,19.093Q14.8204,20.2342,15.1796,20.9489Q15.2396,21.0683,15.3047,21.1758Q16.024,22.3647,17.5781,22.54ZM18.2621,12.91515Q18.210900000000002,13.8289,18.210900000000002,16.3828Q18.210900000000002,17.125999999999998,18.2411,17.6842Q18.3281,16.4128,18.3281,14.1562Q18.3281,13.44075,18.2823,12.91484Q18.272,12.91499,18.2621,12.91515ZM17.8226,28.0051Q17.9426,27.9844,18.1875,27.9844Q18.540399999999998,27.9844,18.7267,28.0278Q19.0547,28.7075,19.0547,31.0078Q19.0547,34.270399999999995,18.932499999999997,35.202200000000005Q18.6916,35.226600000000005,18.351599999999998,35.226600000000005Q17.7466,35.226600000000005,17.3655,35.161100000000005Q17.2969,34.6398,17.2969,33.023399999999995Q17.2969,29.0845,17.8226,28.0051ZM78.5435,38.6636Q78.1895,38.2729,78.1895,37.5283Q78.1895,36.918,78.7144,35.6179Q79.1094,34.6395,79.6842,33.6507Q79.7247,33.581,79.7662,33.5111Q79.9179,33.255700000000004,80.0815,32.9995Q80.6553,32.1084,81.1313,31.7178Q81.6074,31.3271,82.1079,31.3271Q82.7427,31.3271,83.1028,31.8337Q83.4629,32.3403,83.4629,33.2559Q83.4629,34.0107,83.2851,34.7761Q83.2515,34.9207,83.2115,35.0657Q83.1859,35.1586,83.1577,35.2517Q82.8525,36.2588,82.3154,37.0767Q82.1643,37.3019,82.0106,37.5021Q81.9752,37.5482,81.9394,37.5934Q81.4684,38.1867,80.9727,38.5476Q80.2769,39.0542,79.5811,39.0542Q78.8975,39.0542,78.5435,38.6636Z" fill-rule="evenodd" fill="#FFFFFF" fill-opacity="1"/></g></svg>