<svg xmlns="http://www.w3.org/2000/svg" xmlns:xlink="http://www.w3.org/1999/xlink" fill="none" version="1.1" width="204" height="44" viewBox="0 0 204 44"><g><path d="M4.556,37.468C6.97,35.632,8.738,34,10.2,32.232L13.464,35.598L16.456,32.368C15.13,31.178,13.804,29.988,12.444,28.764C14.042,25.67,14.858,21.828,15.334,16.422L15.334,12.342L9.112,12.342C9.418,10.608,9.69,8.874,9.962,6.97L5.678,6.596C5.474,8.534,5.27,10.472,5.032,12.342L1.904,12.342L1.904,16.286L4.42,16.286C3.876,19.482,3.264,22.508,2.618,25.092L7.242,29.376C5.95,30.974,4.114,32.572,1.666,34.374C2.55,35.326,3.74,36.55,4.556,37.468ZM15.402,24.378L21.998,24.378L21.998,31.042C21.998,32.606,21.488,33.048,19.992,33.048C18.836,33.048,17.714,33.048,16.66,32.946C16.932,34.34,17.272,36.414,17.374,37.23C18.734,37.23,20.162,37.23,21.862,37.162C25.126,37.026,26.316,35.598,26.316,32.47L26.316,24.378L32.198,24.378L32.198,20.23L26.316,20.23L26.316,18.224L31.552,12.24L31.552,8.126L16.558,8.126L16.558,12.172L26.384,12.172L21.998,17.102L21.998,20.23L15.402,20.23L15.402,24.378ZM6.868,24.072C7.412,21.794,7.922,19.176,8.432,16.286L11.254,16.286C10.88,20.57,10.336,23.596,9.248,26.078C8.432,25.398,7.65,24.718,6.868,24.072ZM63.988,37.468C64.668,36.04,65.348,34.51,66.13,33.184C62.39,32.538,59.466,31.722,56.984,30.464C59.466,28.152,61.37,25.466,63.002,22.168L63.002,18.156L47.09,18.156C47.396,17.034,47.668,15.878,47.94,14.654L65.756,14.654L65.756,10.574L48.722,10.574C48.892,9.35,49.096,8.024,49.266,6.664L44.846,6.596C44.642,7.99,44.472,9.35,44.234,10.574L36.414,10.574L36.414,14.654L43.486,14.654C41.888,21.828,39.474,27.064,35.598,31.62C36.21,32.98,36.89,34.85,37.468,36.278C41.378,31.688,43.996,27.132,45.866,22.032L48.008,22.032L45.254,23.834C46.75,26.452,48.246,28.594,49.946,30.362C47.464,31.688,44.506,32.776,40.766,33.796C41.48,34.918,42.466,36.754,42.942,37.808C47.09,36.584,50.524,35.122,53.346,33.286C56.134,35.122,59.5,36.448,63.988,37.468ZM58.31,22.032C57.018,24.344,55.522,26.35,53.414,28.05C51.646,26.52,50.15,24.548,48.756,22.032L58.31,22.032ZM71.638,36.346L99.994,36.346L99.994,32.232L75.922,32.232L75.922,12.444L80.614,12.444C80.614,14.45,80.614,16.864,80.512,18.326C80.342,22.236,79.628,23.63,76.33,26.282C77.18,27.37,78.234,28.56,79.084,29.75C83.198,26.18,84.32,23.902,84.558,19.142C84.66,17.442,84.694,14.79,84.694,12.444L88.128,12.444L88.128,24.208C88.128,27.404,89.59,28.458,92.072,28.458L94.282,28.458C97.206,28.458,98.396,27.472,98.77,25.126C98.974,23.902,99.246,22.066,99.484,20.026C98.362,19.72,97.002,19.312,95.744,18.802C95.676,20.23,95.54,21.896,95.404,23.018C95.2,24.31,94.792,24.718,93.84,24.718L93.33,24.718C92.446,24.718,92.174,24.446,92.174,23.29L92.174,12.444L99.484,12.444L99.484,8.262L71.638,8.262L71.638,36.346ZM104.006,11.39L108.12,11.39L108.12,14.62L104.72,14.62L104.72,37.502L108.018,37.502L108.018,35.802L116.178,35.802L116.178,37.468L119.476,37.468L119.476,14.62L116.144,14.62L116.144,11.39L119.884,11.39L119.884,8.126L104.006,8.126L104.006,11.39ZM124.984,22.406L132.736,22.406L132.736,8.194L120.972,8.194L120.972,12.002L128.962,12.002L128.962,18.598L121.21,18.598L121.21,32.198C121.21,35.394,122.502,36.652,125.494,36.652L129.098,36.652C132.158,36.652,133.314,35.632,133.756,32.776C133.96,31.416,134.164,29.886,134.368,27.37C133.28,27.03,132.022,26.656,130.73,26.248C130.628,28.118,130.492,29.852,130.356,30.94C130.186,32.368,129.54,32.81,128.18,32.81L126.922,32.81C125.494,32.81,124.984,32.334,124.984,30.94L124.984,22.406ZM115.362,24.99L116.178,24.99L116.178,27.132L108.018,27.132L108.018,24.786L109.616,26.044C111.044,23.324,111.384,21.76,111.418,17.748L112.88,17.748L112.88,22.27C112.88,24.14,113.696,24.99,115.362,24.99ZM108.018,30.124L116.178,30.124L116.178,32.64L108.018,32.64L108.018,30.124ZM107.542,17.748L109.276,17.748C109.208,20.944,108.868,22.304,107.542,24.208L107.542,17.748ZM116.688,17.748L116.688,22.44L116.246,22.44C115.294,22.44,114.92,22.1,114.92,21.08L114.92,17.748L116.688,17.748ZM111.418,11.39L112.88,11.39L112.88,14.62L111.418,14.62L111.418,11.39ZM158.542,37.604L162.452,37.604L162.452,30.872L168.164,30.872L168.164,27.098L162.452,27.098L162.452,23.12L167.042,23.12L167.042,19.414L162.452,19.414L162.452,15.504L167.654,15.504L167.654,11.764L162.452,11.764L162.452,6.698L158.542,6.698L158.542,37.604ZM147.73,15.504L152.048,15.504L152.048,19.414L148.036,19.414L148.036,23.12L152.048,23.12L152.048,27.098L146.812,27.098L146.812,30.872L152.048,30.872L152.048,37.604L155.924,37.604L155.924,6.698L152.048,6.698L152.048,11.764L147.73,11.764L147.73,15.504ZM138.346,16.388L140.964,16.388L140.964,21.522L137.734,22.304L138.074,26.724C138.958,26.452,139.876,26.146,140.964,25.874L140.964,31.79C140.964,32.776,140.522,33.184,139.672,33.184C139.026,33.184,138.584,33.184,137.904,33.116C138.21,34.476,138.482,36.142,138.618,37.23C139.604,37.196,140.59,37.196,141.542,37.094C143.786,36.89,144.738,35.666,144.738,33.048L144.738,24.752C145.52,24.548,146.268,24.31,147.05,24.106C146.982,22.916,146.982,21.556,146.982,19.992L144.738,20.57L144.738,16.388L146.778,16.388L146.778,12.444L144.738,12.444L144.738,6.698L140.964,6.698L140.964,12.444L138.346,12.444L138.346,16.388ZM183.702,22.168L193.12,22.168L193.12,30.702C193.12,32.368,192.508,32.98,190.842,32.98C189.278,32.98,187.408,32.912,186.116,32.844C186.456,34.272,186.728,35.768,186.966,37.06C188.36,37.06,190.4,37.06,192.61,36.958C196.18,36.788,197.472,35.258,197.472,31.654L197.472,22.168L202.062,22.168L202.062,18.054L183.702,18.054L183.702,22.168ZM173.06,28.798C174.046,27.948,175.066,27.03,176.052,26.112L176.052,37.604L180.132,37.604L180.132,21.76C181.152,20.536,182.172,19.244,183.192,17.816L179.894,15.368C177.174,19.21,174.76,21.964,171.734,24.616C172.176,25.908,172.652,27.404,173.06,28.798ZM184.96,12.648L200.838,12.648L200.838,8.534L184.96,8.534L184.96,12.648ZM173.842,18.088C177.48,15.13,179.996,12.614,182.954,9.18L179.554,6.528C177.412,9.248,175.1,11.56,172.142,13.906C172.618,14.926,173.366,16.796,173.842,18.088Z" fill="#343B45" fill-opacity="1"/></g></svg>