<svg xmlns="http://www.w3.org/2000/svg" xmlns:xlink="http://www.w3.org/1999/xlink" fill="none" version="1.1" width="428" height="49.112060546875" viewBox="0 0 428 49.112060546875"><defs><linearGradient x1="428" y1="24" x2="188" y2="24" gradientUnits="userSpaceOnUse" id="master_svg0_53_6554"><stop offset="2.857142873108387%" stop-color="#474747" stop-opacity="1"/><stop offset="100%" stop-color="#151515" stop-opacity="1"/></linearGradient></defs><g><g><path d="M2.24,35.7C2.968,34.748000000000005,3.64,33.768,4.34,32.704L4.34,44.94L7.728,44.94L7.728,26.375999999999998C8.596,24.416,9.38,22.4,10.052,20.328L6.496,19.432C5.292,23.996000000000002,3.528,27.916,1.344,31.192C1.596,32.732,1.904,34.104,2.24,35.7ZM24.64,30.380000000000003L26.096,25.872L26.096,22.876L15.456,22.876C15.82,22.008,16.128,21.084,16.464,20.132L12.936,19.628C11.872,23.128,10.5,26.04,8.484,28.84C9.464,29.567999999999998,10.22,30.268,11.144,31.136C12.264,29.512,13.216,27.887999999999998,14.028,26.18L22.596,26.18L21.308,29.596C22.316,29.82,23.604,30.072,24.64,30.380000000000003ZM12.656,44.66C13.832,44.66,15.232,44.632000000000005,16.128,44.548C18.564,44.379999999999995,19.488,43.147999999999996,19.488,40.656L19.488,27.72L16.016,27.72L16.016,39.872C16.016,40.936,15.652,41.328,14.616,41.328C13.636,41.328,12.908,41.3,12.04,41.216C12.236,42.168,12.516,43.708,12.656,44.66ZM23.268,40.964L26.6,39.9C25.732,37.464,24.556,34.16,23.352,30.912L20.216,31.808C21.28,34.86,22.316,38.052,23.268,40.964ZM11.676,40.936C12.824,38.108000000000004,14.196,34.495999999999995,15.148,31.752000000000002L12.012,30.716C11.116,33.292,9.772,36.932,8.512,39.620000000000005C9.772,40.04,10.64,40.46,11.676,40.936ZM43.96,30.464C44.548,29.344,45.08,28.168,45.612,26.908L50.26,26.908C50.232,30.380000000000003,50.12,35.952,50.008,38.556C49.952,40.376000000000005,49.364,41.019999999999996,47.544,41.019999999999996C46.284,41.019999999999996,44.94,40.992000000000004,43.708,40.936C43.932,41.972,44.184,43.147999999999996,44.408,44.519999999999996C46.06,44.519999999999996,47.656,44.492000000000004,48.972,44.408C52.276,44.239999999999995,53.368,42.728,53.452,39.284C53.564,35.504000000000005,53.704,29.82,53.844,23.548000000000002L46.928,23.548000000000002L48.048,20.244L44.604,19.432C43.652,22.82,42.364,26.012,40.992,28.756L40.992,23.548000000000002L36.904,23.548000000000002C37.212,22.456,37.52,21.336,37.884,20.048000000000002L34.132,19.516C33.908,20.748,33.628,22.12,33.264,23.548000000000002L30.408,23.548000000000002L30.408,44.632000000000005L33.74,44.632000000000005L33.74,42.756L37.66,42.756L37.66,44.464L40.992,44.464L40.992,28.868000000000002C42,29.344,43.036,29.932000000000002,43.96,30.464ZM46.172,37.519999999999996L49.14,35.56C47.824,33.712,46.536,32.004,45.192,30.212L42.504,32.004C43.848,33.852000000000004,45.08,35.784,46.172,37.519999999999996ZM33.74,34.832L37.66,34.832L37.66,39.424L33.74,39.424L33.74,34.832ZM33.74,26.880000000000003L37.66,26.880000000000003L37.66,31.5L33.74,31.5L33.74,26.880000000000003ZM62.916,33.628L63.784,33.628C64.708,33.628,65.296,34.412,65.296,36.036C65.296,36.848,65.212,37.632000000000005,65.044,38.556C64.876,39.424,64.764,40.263999999999996,64.764,41.076C64.764,44.1,66.108,45.472,68.964,45.472L69.888,45.472L69.888,43.372L68.964,43.372C67.564,43.372,66.976,42.7,66.976,41.076C66.976,40.348,67.088,39.367999999999995,67.256,38.611999999999995C67.424,37.8,67.536,36.932,67.536,36.036C67.536,34.44,66.696,33.32,65.436,32.564C66.668,31.948,67.536,30.856,67.536,29.092C67.536,28.224,67.424,27.356,67.256,26.544C67.088,25.759999999999998,66.976,24.724,66.976,24.024C66.976,22.512,67.508,21.756,68.964,21.756L69.888,21.756L69.888,19.656L68.964,19.656C66.08,19.656,64.708,21.252,64.764,24.024C64.792,24.892,64.932,25.788,65.072,26.6C65.24,27.496000000000002,65.296,28.28,65.296,29.092C65.296,30.716,64.736,31.528,63.784,31.528L62.916,31.528L62.916,33.628ZM80.22,31.584C80.416,30.52,80.668,29.372,80.836,28.224L82.432,28.224L82.432,33.376000000000005L78.176,34.188L78.456,37.884L82.432,36.903999999999996L82.432,44.995999999999995L85.624,44.995999999999995L85.624,36.092C86.24,35.980000000000004,86.884,35.84,87.528,35.672C87.472,34.748000000000005,87.444,33.544,87.444,32.256L85.624,32.704L85.624,28.224L87.472,28.224L87.472,25.060000000000002L85.624,25.060000000000002L85.624,19.544L82.432,19.544L82.432,25.060000000000002L81.088,25.060000000000002L81.396,21.951999999999998L79.24,21.756C78.988,25.732,78.624,28.42,78.036,30.8L80.22,31.584ZM88.144,36.092L90.804,36.092L88.62,37.912C89.768,39.172,90.692,40.348,91.7,41.635999999999996L94.192,39.592C93.1,38.388000000000005,92.008,37.212,90.916,36.092L96.936,36.092L96.936,39.956C96.936,41.076,96.544,41.495999999999995,95.396,41.495999999999995C94.528,41.495999999999995,93.436,41.468,92.484,41.44C92.764,42.672,92.96,43.68,93.1,44.744C94.304,44.744,95.704,44.744,97.02,44.688C99.456,44.548,100.296,43.484,100.296,40.824L100.296,36.092L102.872,36.092L102.872,33.068L100.296,33.068L100.296,31.444000000000003L96.936,31.444000000000003L96.936,33.068L88.144,33.068L88.144,36.092ZM88.844,25.451999999999998L93.66,25.451999999999998L93.66,27.804000000000002L87.864,27.804000000000002L87.864,30.828L103.068,30.828L103.068,27.804000000000002L97.02,27.804000000000002L97.02,25.451999999999998L101.976,25.451999999999998L101.976,22.428L97.02,22.428L97.02,19.488L93.66,19.488L93.66,22.428L88.844,22.428L88.844,25.451999999999998ZM108.64,45.108000000000004C111.076,41.244,111.72,38.275999999999996,111.72,31.668L111.72,24.052C114.38,24.024,117.012,23.912,119.56,23.8L119.56,25.816000000000003L112.42,25.816000000000003L112.42,28.728L119.56,28.728L119.56,30.576L113.4,30.576L113.4,39.088L116.676,39.088L116.676,33.488L126.224,33.488L126.224,39.088L129.5,39.088L129.5,30.576L123.004,30.576L123.004,28.728L130.76,28.728L130.76,25.816000000000003L123.004,25.816000000000003L123.004,23.604C125.72,23.464,128.24,23.268,130.48,23.044L129.248,19.908C122.864,20.58,116.564,20.887999999999998,108.304,21L108.304,31.584C108.304,37.1,107.8,39.367999999999995,106.008,42.532C106.904,43.344,107.828,44.268,108.64,45.108000000000004ZM112.7,45.108000000000004C117.292,44.044,119.952,42.644,121.464,40.768C124.012,42.028,126.7,43.456,129.444,45.052L131.152,42C128.1,40.6,125.328,39.396,122.668,38.388000000000005C122.864,37.828,122.976,37.296,123.088,36.708C123.2,35.980000000000004,123.256,35.168,123.284,34.384L119.812,34.384C119.812,35.224000000000004,119.728,36.036,119.588,36.708C119.028,39.312,117.236,40.712,110.992,42.056C111.636,43.092,112.252,44.184,112.7,45.108000000000004ZM146.412,33.628L146.412,31.528L145.516,31.528C144.564,31.528,144.004,30.716,144.004,29.092C144.004,28.308,144.088,27.468,144.228,26.6C144.368,25.788,144.508,24.892,144.536,24.024C144.592,21.252,143.248,19.656,140.336,19.656L139.44,19.656L139.44,21.756L140.336,21.756C141.792,21.756,142.324,22.512,142.324,24.024C142.324,24.724,142.212,25.759999999999998,142.044,26.544C141.876,27.356,141.764,28.224,141.764,29.092C141.764,30.856,142.66,31.948,143.864,32.564C142.632,33.32,141.764,34.44,141.764,36.036C141.764,36.932,141.876,37.8,142.044,38.611999999999995C142.212,39.367999999999995,142.324,40.348,142.324,41.076C142.324,42.7,141.736,43.372,140.336,43.372L139.44,43.372L139.44,45.472L140.336,45.472C143.22,45.472,144.536,44.1,144.536,41.076C144.536,40.263999999999996,144.424,39.424,144.256,38.556C144.088,37.632000000000005,144.004,36.848,144.004,36.036C144.004,34.412,144.592,33.628,145.516,33.628L146.412,33.628ZM155.036,35.14L165.928,35.14L165.928,41.076C163.94,40.739999999999995,162.708,39.928,161.756,38.36C161.924,37.66,162.092,36.876000000000005,162.26,36.007999999999996L159.04,35.56C158.62,39.256,157.668,40.712,154.728,42.784C155.54,43.652,156.24,44.519999999999996,156.884,45.248000000000005C158.676,43.988,159.824,42.812,160.636,41.356C162.288,43.54,164.472,44.128,168.672,44.184C172.116,44.268,175.924,44.296,179.088,44.296C179.312,43.428,179.564,42.391999999999996,179.872,41.328C176.484,41.384,172.256,41.384,169.288,41.356L169.288,39.452L177.716,39.452L177.716,36.82L169.288,36.82L169.288,35.14L179.648,35.14L179.648,32.284L155.036,32.284L155.036,35.14ZM157.836,30.884L176.764,30.884L176.764,20.468L157.836,20.468L157.836,30.884ZM161.28,26.796L173.32,26.796L173.32,28.364L161.28,28.364L161.28,26.796ZM161.28,23.212L173.32,23.212L173.32,24.695999999999998L161.28,24.695999999999998L161.28,23.212Z" fill="#343B45" fill-opacity="1"/></g><g><path d="M226.304,46.568Q225.728,46.808,225.07999999999998,46.16Q224.43200000000002,45.512,224.024,44.264Q223.61599999999999,43.016,223.61599999999999,41.624Q223.61599999999999,40.568,223.664,39.992L219.968,40.472L219.488,40.52Q219.056,40.52,218.38400000000001,40.184L218.38400000000001,40.424Q218.432,42.728,217.784,43.952Q217.136,45.176,216.07999999999998,45.176Q215.6,45.176,215.216,44.984Q214.016,44.36,213.224,43.016Q212.432,41.672,212.528,39.896Q212.96,34.472,212.96,24.488L212.96,21.944Q212,21.704,211.04,20.792Q210.07999999999998,19.88,209.552,18.776Q209.312,18.152,209.312,17.816Q209.312,17.048,210.416,17.048L212.912,16.904L212.768,12.488Q212.72,11.336,212.576,10.52Q212.432,9.704,212.048,8.744Q211.952,8.36,211.952,8.168Q211.952,7.016,213.776,7.16Q215.504,7.352,216.488,7.688Q217.472,8.024,218.336,8.552Q218.816,8.936,219.032,9.32Q219.248,9.704,219.248,10.28Q219.248,10.76,219.10399999999998,11.336Q218.864,12.488,218.72,16.232L223.712,15.512Q223.712,12.536,223.61599999999999,8.984Q223.56799999999998,7.736,223.424,6.896Q223.28,6.056,222.89600000000002,5.096Q222.752,4.712,222.752,4.424Q222.752,4.04,223.04,3.8Q223.328,3.56,223.856,3.56Q224.24,3.56,224.48,3.608Q226.16,3.848,227.096,4.304Q228.03199999999998,4.76,229.088,5.48Q229.56799999999998,5.864,229.784,6.248Q230,6.632,230,7.256Q230,7.88,229.904,8.264Q229.61599999999999,9.368,229.472,14.456L230.768,14.168Q231.344,14.072,231.536,14.072Q232.256,14.072,232.784,14.6Q233.264,14.984,233.72,15.8Q234.176,16.616,234.512,17.576Q234.608,17.96,234.608,18.104Q234.608,18.584,234.344,18.872Q234.07999999999998,19.16,233.744,19.16Q232.256,19.16,229.328,19.496Q229.232,25.64,229.232,28.952Q229.232,36.104,229.424,39.272Q229.56799999999998,42.104,228.704,44.048Q227.84,45.992,226.304,46.568ZM189.584,21.896Q193.568,21.656,199.424,19.976L199.328,16.136Q199.184,14.312,198.704,12.92Q195.44,13.544,192.848,13.544Q192.608,13.544,192.416,13.376Q192.224,13.208,192.224,13.016Q192.224,12.632,192.704,12.344Q196.496,10.616,200.072,8.384Q203.648,6.152,204.944,4.616Q205.61599999999999,3.896,206.096,3.896Q206.38400000000001,3.896,206.672,4.04Q208.208,4.76,209.216,5.84Q210.224,6.92,210.224,7.688Q210.224,8.6,209.216,9.272Q206.96,10.664,203.216,11.816Q203.984,12.008,204.608,12.488Q205.376,13.16,205.376,13.928Q205.376,14.456,205.184,15.08Q204.992,15.704,204.752,18.2L205.76,17.768Q206.24,17.672,206.576,17.672Q207.44,17.672,207.872,18.152Q208.544,18.776,208.88,19.328Q209.216,19.88,209.456,20.936Q209.6,21.752,209.12,22.16Q208.64,22.568,207.44,22.616Q206,22.712,204.368,23.096L204.224,27.128L204.704,26.984L205.52,26.648Q206.192,26.312,206.816,26.312Q207.152,26.312,207.344,26.36Q208.64,26.84,210.8,28.904Q211.28,29.336,211.28,29.72Q211.28,29.96,211.16,30.248Q211.04,30.536,210.992,30.728Q210.752,31.4,210.584,33.08Q210.416,34.76,210.272,36.392L210.032,38.84Q209.888,40.616,208.88,41.624Q207.872,42.632,206.816,42.632Q205.808,42.632,205.424,41.816Q204.944,40.52,204.89600000000002,40.328Q202.544,40.568,200.432,41.048L200.624,42.152Q200.72,42.632,200.72,42.776Q200.72,43.688,200.072,44.168Q199.424,44.648,198.464,44.648Q197.168,44.648,196.112,43.88Q195.056,43.112,195.056,41.864Q195.056,38.888,194.696,34.544Q194.336,30.2,193.61599999999999,28.808Q193.52,28.52,193.52,28.424Q193.52,28.136,193.76,27.896Q194,27.656,194.38400000000001,27.56Q194.624,27.512,195.296,27.512Q196.304,27.512,197.38400000000001,27.704Q198.464,27.896,199.136,28.184L199.52,28.136Q199.52,25.688,199.472,24.296Q197.456,24.872,196.592,25.16L194.672,25.736Q193.184,26.072,192.464,26.072Q191.312,26.072,190.64,25.16Q189.776,24.104,189.344,23.48Q188.912,22.856,188.912,22.424Q188.912,21.944,189.584,21.896ZM199.76,32.072Q199.76,33.992,200,37.016Q204.272,36.344,205.328,36.104Q205.52,33.032,205.52,31.784Q205.52,31.016,204.89600000000002,31.16L202.832,31.496Q200.096,31.976,199.808,32.072L199.76,32.072ZM218.336,36.584Q219.68,36.44,221.168,36.152Q221.648,36.056,223.712,35.72Q223.712,31.976,223.76,29.912L222.176,30.056L219.488,30.392Q218.672,30.488,218.38400000000001,30.44Q218.336,32.696,218.336,36.584ZM218.432,26.648Q219.008,26.552,220.64,26.264L223.232,25.88Q223.424,25.832,223.76,25.832L223.76,20.264L218.528,21.176Q218.432,24.728,218.432,26.648ZM264.896,33.08Q264.032,32.072,263.6,31.256L263.456,31.256Q262.256,31.352,259.664,31.616Q257.072,31.88,255.296,32.12Q255.2,33.224,254.72,33.824Q254.24,34.424,253.47199999999998,34.424Q253.328,34.424,252.848,34.328Q251.168,33.896,249.848,32.864Q248.528,31.832,248.48,29.768Q248.48,26.36,247.832,22.616Q247.184,18.872,246.32,17.24Q246.07999999999998,16.856,246.07999999999998,16.52Q246.07999999999998,15.848,247.424,15.8L248.528,15.752Q251.888,15.752,253.56799999999998,17.096L253.856,17.336L255.2,17.192Q255.392,13.688,255.392,11.72Q255.392,10.136,255.296,9.32Q255.152,7.688,254.912,6.656Q254.672,5.624,254.24,4.76Q254.048,4.376,254.048,3.848Q254.048,3.176,254.43200000000002,2.768Q254.816,2.36,255.536,2.504Q257.168,2.696,259.376,3.368Q261.584,4.04,262.11199999999997,4.568Q262.688,5.096,262.688,5.912Q262.688,6.248,262.496,7.112L262.352,8.456Q267.104,7.736,269.264,6.824Q269.79200000000003,6.632,270.56,6.632Q271.664,6.632,272.192,7.16Q272.624,7.544,273.104,8.264Q273.584,8.984,273.776,9.56Q274.06399999999996,10.424,274.06399999999996,11.096Q274.06399999999996,12.056,273.392,12.056Q270.464,12.056,264.464,12.968L261.824,13.304Q261.728,14.36,261.632,16.472Q264.656,15.896,265.328,15.224Q265.904,14.648,266.72,14.648Q267.008,14.648,267.152,14.696Q268.256,15.08,269.096,15.704Q269.93600000000004,16.328,271.28,17.576Q272.144,18.44,272.144,19.256Q272.144,19.64,271.904,20.024Q270.896,21.752,270.08,27.032Q269.648,29.432,269.36,30.536Q268.928,31.928,268.20799999999997,32.96Q267.488,33.992,266.576,33.992Q265.808,33.992,264.896,33.08ZM240.752,42.728Q240.752,41.672,241.76,40.856Q243.05599999999998,39.8,244.54399999999998,38.264Q246.03199999999998,36.728,247.184,35.288Q247.52,34.904,247.904,34.904Q248.38400000000001,34.904,248.624,35.672Q248.768,36.152,248.768,37.064Q248.768,38.792,248.192,41.168Q247.61599999999999,43.544,246.632,45.248Q245.648,46.952,244.59199999999998,46.952Q243.824,46.952,242.912,46.28Q242,45.608,241.376,44.6Q240.752,43.592,240.752,42.728ZM251.936,36.872Q251.888,36.776,251.84,36.632Q251.792,36.488,251.792,36.344Q251.792,35.864,252.512,35.864Q253.904,35.864,255.656,36.8Q257.408,37.736,258.224,38.984Q258.944,40.184,258.944,41.24Q258.944,42.536,258.032,43.64Q257.12,44.744,255.536,45.608Q255.44,45.704,255.2,45.704Q254.912,45.704,254.648,45.488Q254.38400000000001,45.272,254.288,44.936Q253.856,43.736,253.136,40.904Q252.32,37.784,251.936,36.872ZM254.192,21.608Q254.38400000000001,23.96,254.816,27.08Q256.448,26.888,261.008,26.12Q261.344,26.072,261.872,26.072Q262.832,26.072,263.456,26.504Q264.08,24.248,264.08,21.368Q264.08,20.984,264.008,20.84Q263.93600000000004,20.696,263.696,20.696Q262.4,20.696,257.552,21.272L254.192,21.608ZM260.48,36.728Q260.288,36.392,260.288,36.056Q260.288,35.384,261.344,35.384Q262.4,35.384,264.056,36.104Q265.712,36.824,266.528,37.64Q267.824,38.984,267.824,40.664Q267.824,41.912,267.032,43.04Q266.24,44.168,264.848,44.84Q264.656,44.984,264.416,44.984Q263.88800000000003,44.984,263.744,44.312Q262.496,40.904,260.48,36.728ZM268.688,35.048Q268.496,34.76,268.496,34.424Q268.496,33.944,269.168,33.944Q269.696,33.944,270.032,34.04Q271.76,34.328,273.896,35.336Q276.032,36.344,277.13599999999997,37.256Q278.48,38.312,278.48,40.232Q278.48,41.768,277.64,43.256Q276.8,44.744,275.456,45.512Q274.976,45.752,274.592,45.752Q273.632,45.752,272.91200000000003,44.168Q270.896,38.888,268.688,35.048ZM289.664,34.856Q288.8,34.04,287.81600000000003,32.696Q286.832,31.352,286.352,30.344Q286.15999999999997,30.008,286.15999999999997,29.672Q286.15999999999997,29.336,286.424,29.12Q286.688,28.904,287.12,28.904Q288.656,28.904,290.336,27.944Q294.896,25.256,298.352,22.808Q298.496,20.648,298.496,18.584Q298.496,17.144,298.448,16.424Q298.256,13.736,297.968,12.008Q297.776,11.144,297.776,10.856Q297.776,10.376,298.04,10.16Q298.304,9.944,298.928,9.944Q301.328,9.944,304.06399999999996,11.96Q304.256,12.152,304.256,12.152Q307.424,11.864,313.76,10.76Q320.096,9.656,322.256,9.032Q323.36,8.744,323.93600000000004,8.744Q324.656,8.744,325.08799999999997,9.08Q326.91200000000003,10.664,327.91999999999996,12.296Q328.20799999999997,12.776,328.20799999999997,13.208Q328.20799999999997,14.264,327.00800000000004,14.312Q321.872,14.504,315.536,15.176Q309.2,15.848,305.984,16.568Q305.84000000000003,16.616,305.6,16.616Q305.264,16.616,304.688,16.424L304.688,16.52L304.544,19.016Q304.448,21.128,304.256,23.432Q303.584,32.456,299.96,38.432Q296.336,44.408,290.576,46.424Q289.808,46.76,289.424,46.76Q288.992,46.76,288.992,46.472Q288.992,46.28,289.376,45.752Q292.88,41.672,294.968,36.656Q297.056,31.64,297.92,26.216Q294.992,31.784,291.536,34.808Q290.96,35.24,290.48,35.24Q290.048,35.24,289.664,34.856ZM288.992,15.608Q288.8,15.368,288.8,15.176Q288.8,14.696,289.616,14.648Q291.056,14.648,292.616,15.032Q294.176,15.416,295.328,16.136Q297.248,17.384,297.248,19.304Q297.248,20.36,296.552,21.272Q295.856,22.184,294.704,22.52Q294.32,22.664,293.79200000000003,22.376Q293.264,22.088,293.024,21.848Q292.15999999999997,20.744,290.432,17.912Q289.712,16.664,288.992,15.608ZM306.704,19.928Q306.56,19.688,306.56,19.4Q306.56,18.824,307.472,18.776Q310.88,18.44,314.408,17.696Q317.93600000000004,16.952,319.03999999999996,16.424Q320.096,15.896,320.624,15.896Q321.344,15.896,322.64,16.76Q323.84000000000003,17.672,325.52,19.304Q326.288,20.072,326.288,20.648Q326.288,21.464,325.08799999999997,21.944Q323.744,22.424,321.392,23.672Q319.03999999999996,24.92,316.784,26.216Q318.32,28.376,319.23199999999997,31.28Q320.144,34.184,320.144,37.304Q320.144,41.432,318.464,45.08Q317.264,47.768,314.336,48.92Q313.808,49.112,313.28,49.112Q311.984,49.112,311.6,47.72Q311.36,46.712,310.424,45.8Q309.488,44.888,308.096,43.88Q307.76,43.64,306.944,42.968Q306.752,42.776,306.752,42.536Q306.752,42.296,306.944,42.128Q307.13599999999997,41.96,307.52,42.008Q309.44,42.296,310.64,42.296Q311.168,42.296,311.744,42.2Q312.656,42.152,313.18399999999997,40.808Q314.144,38.312,314.144,33.8Q314.144,31.208,313.784,28.736Q313.424,26.264,312.704,24.488Q312.608,24.248,312.608,23.912Q312.608,23.192,313.328,23.192Q313.904,23.192,314.336,23.576Q315.2,24.2,316.256,25.496Q317.84000000000003,23.624,319.376,20.84Q319.03999999999996,20.984,316.64,21.464Q312.608,22.328,311.696,22.712Q311.072,22.904,310.448,22.904Q309.392,22.904,308.6,22.232Q307.808,21.56,306.704,19.928ZM306.848,2.408Q306.8,2.312,306.752,2.216Q306.704,2.12,306.704,1.976Q306.704,1.448,307.808,1.448Q311.072,1.448,313.712,3.32Q315.68,4.52,315.68,6.584Q315.68,8.168,314.576,9.392Q313.472,10.616,312.08,10.616Q310.928,10.616,310.11199999999997,9.32Q308.86400000000003,6.152,306.848,2.408ZM346.01599999999996,34.424Q345.152,34.424,343.736,33.728Q342.32,33.032,341.93600000000004,32.504Q341.79200000000003,32.36,341.79200000000003,31.976Q341.79200000000003,31.544,341.93600000000004,31.208Q342.704,27.752,342.704,24.104Q342.704,21.464,342.224,19.448Q337.76,21.608,334.496,21.608Q333.632,21.608,333.632,21.32Q333.632,21.128,334.06399999999996,20.936Q337.328,19.256,341.168,15.728Q345.00800000000004,12.2,347.72,8.384Q350.432,4.568,350.624,2.072Q350.672,1.112,351.152,1.112Q351.344,1.112,351.632,1.256Q352.976,1.736,354.44,2.48Q355.904,3.224,356.86400000000003,3.944Q357.344,4.28,357.344,4.904Q357.344,5.432,356.91200000000003,6.104L356.672,6.44Q359.264,8.12,363.08000000000004,10.088Q366.89599999999996,12.056,369.776,13.4Q374.288,15.32,377.648,16.136Q378.128,16.28,378.128,16.52Q378.128,16.712,377.648,17Q376.832,17.384,375.10400000000004,18.776Q373.616,19.88,372.824,20.384Q372.03200000000004,20.888,371.264,21.128Q370.304,21.368,369.776,21.368Q368.86400000000003,21.368,367.952,20.84Q367.904,20.888,367.904,20.792L367.856,20.792L367.808,25.448L367.856,28.616Q367.904,29.48,367.904,30.872Q367.904,32.456,366.89599999999996,33.704Q365.88800000000003,34.952,364.11199999999997,35.48Q363.344,35.672,362.96000000000004,35.672Q362.48,35.672,362.192,35.336Q362,34.952,361.544,34.04Q361.08799999999997,33.128,360.536,32.36Q359.98400000000004,31.592,359.216,31.064Q358.976,30.824,359.024,30.728Q358.496,30.728,357.632,30.488Q356.86400000000003,30.248,356.528,29.648Q356.192,29.048,356.288,28.232Q356.576,25.4,356.576,23.288Q356.576,21.08,356.192,19.736L356.096,19.352Q356.096,18.776,356.76800000000003,18.776Q358.20799999999997,18.92,359.144,19.256Q360.08000000000004,19.592,360.89599999999996,20.216Q361.28,20.6,361.28,21.128Q361.28,21.272,361.18399999999997,21.848L361.03999999999996,22.664Q360.94399999999996,23.336,360.94399999999996,25.4L360.94399999999996,28.088Q360.94399999999996,30.152,359.744,30.584Q360.03200000000004,30.632,360.248,30.656Q360.464,30.68,360.752,30.68Q361.76,30.68,362.096,30.584Q362.432,30.488,362.48,30.056Q362.672,27.896,362.672,25.64Q362.672,23.048,362.384,19.592Q362.288,18.776,361.952,18.44L361.952,18.296Q361.952,18.152,362.072,18.08Q362.192,18.008,362.576,18.008Q363.10400000000004,18.008,364.352,18.104Q362.24,16.472,359.36,14.072Q359.456,14.216,359.6,14.384Q359.744,14.552,359.79200000000003,14.696Q359.98400000000004,15.032,359.98400000000004,15.368Q359.98400000000004,15.704,359.79200000000003,15.92Q359.6,16.136,359.312,16.136Q355.23199999999997,16.184,352.304,16.904L352.20799999999997,16.952Q352.256,16.952,352.544,17.048Q353.168,17.24,353.93600000000004,17.696Q354.704,18.152,355.13599999999997,18.584Q355.568,18.92,355.568,19.352Q355.568,19.64,355.28,20.072Q354.99199999999996,20.696,354.99199999999996,21.608Q354.94399999999996,22.328,354.94399999999996,23.72L354.99199999999996,26.408Q355.08799999999997,28.904,355.08799999999997,30.92Q355.08799999999997,32.216,354.704,33.032Q354.32,33.848,353.36,34.376Q354.8,34.136,355.808,34.136Q359.84000000000003,34.136,359.84000000000003,37.352Q359.84000000000003,39.464,358.256,40.376Q357.91999999999996,40.52,357.536,40.52Q357.10400000000004,40.52,356.72,40.232Q354.704,38.504,352.688,35.096Q352.544,34.952,352.64,34.664L352.256,34.808Q351.872,34.904,351.632,34.904Q350.91200000000003,34.904,350.48,34.328Q348.99199999999996,32.216,347.456,30.728L347.312,30.584L347.36,31.592Q347.456,33.128,347.216,33.776Q346.976,34.424,346.01599999999996,34.424ZM336.89599999999996,40.472Q337.23199999999997,39.704,338.552,38Q339.872,36.296,340.928,35.144Q341.36,34.712,341.6,34.712Q341.84000000000003,34.712,341.98400000000004,35.192Q342.368,36.968,342.368,39.752Q342.368,42.152,342.03200000000004,44.168Q341.79200000000003,45.224,340.496,45.608Q340.352,45.656,340.06399999999996,45.656Q339.296,45.656,338.48,45.176Q337.664,44.696,337.11199999999997,43.856Q336.56,43.016,336.56,41.96Q336.56,41.192,336.89599999999996,40.472ZM344.24,36.488Q344.432,36.872,344.96000000000004,38.312Q345.776,40.52,346.688,42.056Q347.6,43.592,349.64,45.008Q351.68,46.424,355.23199999999997,47.144Q356.91200000000003,47.528,359.216,47.528Q361.76,47.528,364.08799999999997,46.952Q366.416,46.376,367.904,45.32Q368.86400000000003,44.6,368.86400000000003,43.64Q368.86400000000003,42.68,367.76,41.96Q365.264,40.328,362.144,36.728Q361.952,36.44,361.712,36.44Q361.568,36.44,361.496,36.584Q361.424,36.728,361.472,36.968Q361.952,40.136,361.808,41.48Q361.712,42.056,361.328,42.2Q360.464,42.488,358.4,42.488Q356.576,42.488,355.664,42.2Q353.264,41.48,352.18399999999997,40.256Q351.10400000000004,39.032,350.192,37.064Q349.76,36.296,349.13599999999997,36.008Q347.88800000000003,35.672,346.20799999999997,35.672Q345.296,35.672,344.48,35.816Q344.048,35.864,344.048,36.056Q344.048,36.248,344.24,36.488ZM345.2,17.864Q346.592,18.056,347.36,18.296Q348.56,18.248,349.352,18.008Q350.144,17.768,351.10400000000004,17.192L351.392,17.048Q350.86400000000003,17,350.096,16.712Q349.23199999999997,16.328,348.608,15.56Q347.12,16.712,345.2,17.864ZM347.312,30.2Q347.504,30.104,347.744,30.152Q348.848,30.296,349.76,30.296Q350.24,30.296,350.36,30.2Q350.48,30.104,350.48,29.816L350.576,28.568L347.312,28.808L347.312,30.2ZM347.36,26.312Q348.656,26.072,349.23199999999997,25.88Q349.424,25.832,349.712,25.832Q350.096,25.832,350.384,25.976Q350.576,26.072,350.672,26.168L350.672,25.016L350.432,25.064Q350,25.16,347.36,25.448L347.36,26.312ZM347.456,22.808Q348.608,22.472,348.704,22.424Q348.94399999999996,22.28,349.08799999999997,22.28Q349.424,22.28,349.856,22.616L350.672,23.288L350.576,21.128Q350.576,20.648,350.336,20.648Q349.13599999999997,20.792,347.552,21.224L347.456,22.808ZM350.96000000000004,13.64Q353.98400000000004,13.208,356,12.2Q356.576,11.96,357.00800000000004,12.056Q355.712,10.952,354.368,9.608Q354.128,9.896,353.744,10.472L352.832,11.624Q352.11199999999997,12.536,350.96000000000004,13.64ZM365.79200000000003,35.768Q365.504,35.624,365.504,35.432Q365.504,35.144,366.08000000000004,35.096Q366.464,35,367.424,35Q368.528,35,369.776,35.216Q371.024,35.432,371.93600000000004,35.768Q373.18399999999997,36.296,373.784,37.184Q374.384,38.072,374.384,39.08Q374.384,40.04,373.88,40.856Q373.376,41.672,372.512,42.152Q372.08000000000004,42.344,371.648,42.344Q370.736,42.344,370.20799999999997,41.24Q369.536,40.136,368.144,38.432Q366.752,36.728,365.79200000000003,35.768ZM388.88,31.976Q388.256,31.736,387.56,30.752Q386.86400000000003,29.768,386.432,28.592Q386,27.416,386.096,26.6Q386.576,23.144,386.76800000000003,21.152Q386.96000000000004,19.16,386.96000000000004,16.76Q386.96000000000004,15.368,386.91200000000003,14.6Q386.91200000000003,14.408,386.86400000000003,13.592Q386.81600000000003,12.776,386.432,12.152Q386.288,11.912,386.288,11.72Q386.288,11.432,386.48,11.24Q386.672,11.048,387.00800000000004,11Q388.448,10.952,389.696,11.312Q390.94399999999996,11.672,391.616,12.152Q392,12.44,392,13.064Q392,13.352,391.952,13.496Q391.904,13.736,391.904,14.792Q391.856,15.176,391.856,16.04Q391.808,17.528,391.808,20.984Q391.808,26.744,391.664,28.76Q391.376,32.12,389.648,32.12Q389.312,32.12,388.88,31.976ZM385.904,44.408Q390.608,39.704,392.312,31.592Q394.01599999999996,23.48,394.01599999999996,15.416Q394.01599999999996,12.104,393.872,10.52Q393.44,7.064,392.336,4.28Q392.24,3.896,392.24,3.656Q392.24,3.272,392.504,3.056Q392.76800000000003,2.84,393.488,2.84Q395.12,2.84,396.416,3.488Q397.712,4.136,398.91200000000003,5.192Q399.584,5.912,399.584,6.584Q399.584,6.824,399.392,7.688Q399.2,8.6,399.2,11.24L399.2,12.68Q399.2,20.264,398.528,26Q397.856,31.736,395.12,37.184Q392.384,42.632,386.76800000000003,45.704Q386.48,45.8,386.24,45.8Q385.904,45.8,385.664,45.68Q385.424,45.56,385.424,45.272Q385.424,44.888,385.904,44.408ZM399.68,10.568Q399.296,9.944,399.296,9.656Q399.296,9.368,399.56,9.272Q399.824,9.176,400.592,9.032Q405.296,8.504,409.952,7.664Q414.608,6.824,417.392,5.864Q417.536,5.816,418.28,5.552Q419.024,5.288,419.696,5.288Q420.08000000000004,5.288,420.416,5.432Q421.808,5.96,423.392,8.168Q423.91999999999996,9.08,423.91999999999996,9.464Q423.91999999999996,9.8,423.584,10.136Q423.44,10.28,422.88800000000003,10.328Q422.336,10.376,422.192,10.376Q421.23199999999997,10.376,420.704,10.472Q418.4,10.712,414.608,11.384Q414.56,11.672,414.464,11.936Q414.368,12.2,414.32,12.488Q413.93600000000004,14.072,413.88800000000003,15.176L413.84000000000003,16.424Q414.464,16.328,416.24,15.944Q416.86400000000003,15.8,418.11199999999997,15.272Q418.976,14.936,419.312,14.936Q419.79200000000003,14.936,420.128,15.224Q421.616,16.328,422.624,17.24Q423.632,18.152,423.872,18.92Q423.96799999999996,19.304,423.96799999999996,19.448Q423.96799999999996,19.784,423.536,20.936Q423.488,21.08,423.32,21.512Q423.152,21.944,423.05600000000004,22.664Q422.96000000000004,23.384,422.96000000000004,24.44L422.96000000000004,26.792Q422.96000000000004,29.72,422.91200000000003,30.8Q422.86400000000003,31.88,422.576,32.672Q422.288,33.464,421.52,34.472Q420.8,35.48,419.88800000000003,36.128Q418.976,36.776,418.20799999999997,36.776Q417.44,36.776,416.91200000000003,36.104Q416.096,34.952,415.4,34.16Q414.704,33.368,413.696,32.456Q413.696,39.992,413.648,42.344Q413.456,45.32,413.024,46.76Q412.592,48.2,411.68,48.2Q411.296,48.2,410.76800000000003,47.912Q409.424,47.24,408.344,45.752Q407.264,44.264,407.216,42.392Q407.216,41.624,407.552,40.088Q407.6,39.704,407.696,39.224Q407.79200000000003,38.744,407.84000000000003,38.216Q408.08000000000004,31.352,408.08000000000004,26.072Q408.08000000000004,23.144,408.03200000000004,21.704Q406.736,21.992,405.632,22.136L405.632,24.056L405.68,29.48Q405.68,32.408,405.488,33.992Q405.248,37.016,403.52,37.016Q403.18399999999997,37.016,402.752,36.872Q401.79200000000003,36.392,400.832,34.688Q399.872,32.984,400.06399999999996,31.784Q400.736,27.224,400.736,22.616Q400.736,20.648,400.688,19.592Q400.688,18.008,400.304,16.808L400.304,16.52Q400.304,15.752,400.784,15.752Q403.52,15.848,405.44,17.192Q405.728,17.336,405.872,17.624L407.88800000000003,17.384L407.744,14.264Q407.744,13.544,407.648,12.584Q405.872,12.92,403.904,13.16Q403.712,13.208,403.28,13.208Q402.08000000000004,13.208,401.36,12.584Q400.64,11.96,399.68,10.568ZM413.84000000000003,31.64Q414.128,31.64,414.94399999999996,31.664Q415.76,31.688,416.096,31.64Q416.91200000000003,31.544,417.2,31.016Q417.344,30.824,417.392,28.904Q417.44,26.984,417.44,24.632L417.44,21.32Q417.44,20.696,417.32,20.432Q417.2,20.168,416.76800000000003,20.168Q416.144,20.168,413.744,20.648Q413.696,23.96,413.696,31.64L413.84000000000003,31.64Z" fill="url(#master_svg0_53_6554)" fill-opacity="1"/><path d="M226.304,46.568Q225.728,46.808,225.07999999999998,46.16Q224.43200000000002,45.512,224.024,44.264Q223.61599999999999,43.016,223.61599999999999,41.624Q223.61599999999999,40.568,223.664,39.992L219.968,40.472L219.488,40.52Q219.056,40.52,218.38400000000001,40.184L218.38400000000001,40.424Q218.432,42.728,217.784,43.952Q217.136,45.176,216.07999999999998,45.176Q215.6,45.176,215.216,44.984Q214.016,44.36,213.224,43.016Q212.432,41.672,212.528,39.896Q212.96,34.472,212.96,24.488L212.96,21.944Q212,21.704,211.04,20.792Q210.07999999999998,19.88,209.552,18.776Q209.312,18.152,209.312,17.816Q209.312,17.048,210.416,17.048L212.912,16.904L212.768,12.488Q212.72,11.336,212.576,10.52Q212.432,9.704,212.048,8.744Q211.952,8.36,211.952,8.168Q211.952,7.016,213.776,7.16Q215.504,7.352,216.488,7.688Q217.472,8.024,218.336,8.552Q218.816,8.936,219.032,9.32Q219.248,9.704,219.248,10.28Q219.248,10.76,219.10399999999998,11.336Q218.864,12.488,218.72,16.232L223.712,15.512Q223.712,12.536,223.61599999999999,8.984Q223.56799999999998,7.736,223.424,6.896Q223.28,6.056,222.89600000000002,5.096Q222.752,4.712,222.752,4.424Q222.752,4.04,223.04,3.8Q223.328,3.56,223.856,3.56Q224.24,3.56,224.48,3.608Q226.16,3.848,227.096,4.304Q228.03199999999998,4.76,229.088,5.48Q229.56799999999998,5.864,229.784,6.248Q230,6.632,230,7.256Q230,7.88,229.904,8.264Q229.61599999999999,9.368,229.472,14.456L230.768,14.168Q231.344,14.072,231.536,14.072Q232.256,14.072,232.784,14.6Q233.264,14.984,233.72,15.8Q234.176,16.616,234.512,17.576Q234.608,17.96,234.608,18.104Q234.608,18.584,234.344,18.872Q234.07999999999998,19.16,233.744,19.16Q232.256,19.16,229.328,19.496Q229.232,25.64,229.232,28.952Q229.232,36.104,229.424,39.272Q229.56799999999998,42.104,228.704,44.048Q227.84,45.992,226.304,46.568ZM189.584,21.896Q193.568,21.656,199.424,19.976L199.328,16.136Q199.184,14.312,198.704,12.92Q195.44,13.544,192.848,13.544Q192.608,13.544,192.416,13.376Q192.224,13.208,192.224,13.016Q192.224,12.632,192.704,12.344Q196.496,10.616,200.072,8.384Q203.648,6.152,204.944,4.616Q205.61599999999999,3.896,206.096,3.896Q206.38400000000001,3.896,206.672,4.04Q208.208,4.76,209.216,5.84Q210.224,6.92,210.224,7.688Q210.224,8.6,209.216,9.272Q206.96,10.664,203.216,11.816Q203.984,12.008,204.608,12.488Q205.376,13.16,205.376,13.928Q205.376,14.456,205.184,15.08Q204.992,15.704,204.752,18.2L205.76,17.768Q206.24,17.672,206.576,17.672Q207.44,17.672,207.872,18.152Q208.544,18.776,208.88,19.328Q209.216,19.88,209.456,20.936Q209.6,21.752,209.12,22.16Q208.64,22.568,207.44,22.616Q206,22.712,204.368,23.096L204.224,27.128L204.704,26.984L205.52,26.648Q206.192,26.312,206.816,26.312Q207.152,26.312,207.344,26.36Q208.64,26.84,210.8,28.904Q211.28,29.336,211.28,29.72Q211.28,29.96,211.16,30.248Q211.04,30.536,210.992,30.728Q210.752,31.4,210.584,33.08Q210.416,34.76,210.272,36.392L210.032,38.84Q209.888,40.616,208.88,41.624Q207.872,42.632,206.816,42.632Q205.808,42.632,205.424,41.816Q204.944,40.52,204.89600000000002,40.328Q202.544,40.568,200.432,41.048L200.624,42.152Q200.72,42.632,200.72,42.776Q200.72,43.688,200.072,44.168Q199.424,44.648,198.464,44.648Q197.168,44.648,196.112,43.88Q195.056,43.112,195.056,41.864Q195.056,38.888,194.696,34.544Q194.336,30.2,193.61599999999999,28.808Q193.52,28.52,193.52,28.424Q193.52,28.136,193.76,27.896Q194,27.656,194.38400000000001,27.56Q194.624,27.512,195.296,27.512Q196.304,27.512,197.38400000000001,27.704Q198.464,27.896,199.136,28.184L199.52,28.136Q199.52,25.688,199.472,24.296Q197.456,24.872,196.592,25.16L194.672,25.736Q193.184,26.072,192.464,26.072Q191.312,26.072,190.64,25.16Q189.776,24.104,189.344,23.48Q188.912,22.856,188.912,22.424Q188.912,21.944,189.584,21.896ZM199.76,32.072Q199.76,33.992,200,37.016Q204.272,36.344,205.328,36.104Q205.52,33.032,205.52,31.784Q205.52,31.016,204.89600000000002,31.16L202.832,31.496Q200.096,31.976,199.808,32.072L199.76,32.072ZM218.336,36.584Q219.68,36.44,221.168,36.152Q221.648,36.056,223.712,35.72Q223.712,31.976,223.76,29.912L222.176,30.056L219.488,30.392Q218.672,30.488,218.38400000000001,30.44Q218.336,32.696,218.336,36.584ZM218.432,26.648Q219.008,26.552,220.64,26.264L223.232,25.88Q223.424,25.832,223.76,25.832L223.76,20.264L218.528,21.176Q218.432,24.728,218.432,26.648ZM264.896,33.08Q264.032,32.072,263.6,31.256L263.456,31.256Q262.256,31.352,259.664,31.616Q257.072,31.88,255.296,32.12Q255.2,33.224,254.72,33.824Q254.24,34.424,253.47199999999998,34.424Q253.328,34.424,252.848,34.328Q251.168,33.896,249.848,32.864Q248.528,31.832,248.48,29.768Q248.48,26.36,247.832,22.616Q247.184,18.872,246.32,17.24Q246.07999999999998,16.856,246.07999999999998,16.52Q246.07999999999998,15.848,247.424,15.8L248.528,15.752Q251.888,15.752,253.56799999999998,17.096L253.856,17.336L255.2,17.192Q255.392,13.688,255.392,11.72Q255.392,10.136,255.296,9.32Q255.152,7.688,254.912,6.656Q254.672,5.624,254.24,4.76Q254.048,4.376,254.048,3.848Q254.048,3.176,254.43200000000002,2.768Q254.816,2.36,255.536,2.504Q257.168,2.696,259.376,3.368Q261.584,4.04,262.11199999999997,4.568Q262.688,5.096,262.688,5.912Q262.688,6.248,262.496,7.112L262.352,8.456Q267.104,7.736,269.264,6.824Q269.79200000000003,6.632,270.56,6.632Q271.664,6.632,272.192,7.16Q272.624,7.544,273.104,8.264Q273.584,8.984,273.776,9.56Q274.06399999999996,10.424,274.06399999999996,11.096Q274.06399999999996,12.056,273.392,12.056Q270.464,12.056,264.464,12.968L261.824,13.304Q261.728,14.36,261.632,16.472Q264.656,15.896,265.328,15.224Q265.904,14.648,266.72,14.648Q267.008,14.648,267.152,14.696Q268.256,15.08,269.096,15.704Q269.93600000000004,16.328,271.28,17.576Q272.144,18.44,272.144,19.256Q272.144,19.64,271.904,20.024Q270.896,21.752,270.08,27.032Q269.648,29.432,269.36,30.536Q268.928,31.928,268.20799999999997,32.96Q267.488,33.992,266.576,33.992Q265.808,33.992,264.896,33.08ZM240.752,42.728Q240.752,41.672,241.76,40.856Q243.05599999999998,39.8,244.54399999999998,38.264Q246.03199999999998,36.728,247.184,35.288Q247.52,34.904,247.904,34.904Q248.38400000000001,34.904,248.624,35.672Q248.768,36.152,248.768,37.064Q248.768,38.792,248.192,41.168Q247.61599999999999,43.544,246.632,45.248Q245.648,46.952,244.59199999999998,46.952Q243.824,46.952,242.912,46.28Q242,45.608,241.376,44.6Q240.752,43.592,240.752,42.728ZM251.936,36.872Q251.888,36.776,251.84,36.632Q251.792,36.488,251.792,36.344Q251.792,35.864,252.512,35.864Q253.904,35.864,255.656,36.8Q257.408,37.736,258.224,38.984Q258.944,40.184,258.944,41.24Q258.944,42.536,258.032,43.64Q257.12,44.744,255.536,45.608Q255.44,45.704,255.2,45.704Q254.912,45.704,254.648,45.488Q254.38400000000001,45.272,254.288,44.936Q253.856,43.736,253.136,40.904Q252.32,37.784,251.936,36.872ZM254.192,21.608Q254.38400000000001,23.96,254.816,27.08Q256.448,26.888,261.008,26.12Q261.344,26.072,261.872,26.072Q262.832,26.072,263.456,26.504Q264.08,24.248,264.08,21.368Q264.08,20.984,264.008,20.84Q263.93600000000004,20.696,263.696,20.696Q262.4,20.696,257.552,21.272L254.192,21.608ZM260.48,36.728Q260.288,36.392,260.288,36.056Q260.288,35.384,261.344,35.384Q262.4,35.384,264.056,36.104Q265.712,36.824,266.528,37.64Q267.824,38.984,267.824,40.664Q267.824,41.912,267.032,43.04Q266.24,44.168,264.848,44.84Q264.656,44.984,264.416,44.984Q263.88800000000003,44.984,263.744,44.312Q262.496,40.904,260.48,36.728ZM268.688,35.048Q268.496,34.76,268.496,34.424Q268.496,33.944,269.168,33.944Q269.696,33.944,270.032,34.04Q271.76,34.328,273.896,35.336Q276.032,36.344,277.13599999999997,37.256Q278.48,38.312,278.48,40.232Q278.48,41.768,277.64,43.256Q276.8,44.744,275.456,45.512Q274.976,45.752,274.592,45.752Q273.632,45.752,272.91200000000003,44.168Q270.896,38.888,268.688,35.048ZM289.664,34.856Q288.8,34.04,287.81600000000003,32.696Q286.832,31.352,286.352,30.344Q286.15999999999997,30.008,286.15999999999997,29.672Q286.15999999999997,29.336,286.424,29.12Q286.688,28.904,287.12,28.904Q288.656,28.904,290.336,27.944Q294.896,25.256,298.352,22.808Q298.496,20.648,298.496,18.584Q298.496,17.144,298.448,16.424Q298.256,13.736,297.968,12.008Q297.776,11.144,297.776,10.856Q297.776,10.376,298.04,10.16Q298.304,9.944,298.928,9.944Q301.328,9.944,304.06399999999996,11.96Q304.256,12.152,304.256,12.152Q307.424,11.864,313.76,10.76Q320.096,9.656,322.256,9.032Q323.36,8.744,323.93600000000004,8.744Q324.656,8.744,325.08799999999997,9.08Q326.91200000000003,10.664,327.91999999999996,12.296Q328.20799999999997,12.776,328.20799999999997,13.208Q328.20799999999997,14.264,327.00800000000004,14.312Q321.872,14.504,315.536,15.176Q309.2,15.848,305.984,16.568Q305.84000000000003,16.616,305.6,16.616Q305.264,16.616,304.688,16.424L304.688,16.52L304.544,19.016Q304.448,21.128,304.256,23.432Q303.584,32.456,299.96,38.432Q296.336,44.408,290.576,46.424Q289.808,46.76,289.424,46.76Q288.992,46.76,288.992,46.472Q288.992,46.28,289.376,45.752Q292.88,41.672,294.968,36.656Q297.056,31.64,297.92,26.216Q294.992,31.784,291.536,34.808Q290.96,35.24,290.48,35.24Q290.048,35.24,289.664,34.856ZM288.992,15.608Q288.8,15.368,288.8,15.176Q288.8,14.696,289.616,14.648Q291.056,14.648,292.616,15.032Q294.176,15.416,295.328,16.136Q297.248,17.384,297.248,19.304Q297.248,20.36,296.552,21.272Q295.856,22.184,294.704,22.52Q294.32,22.664,293.79200000000003,22.376Q293.264,22.088,293.024,21.848Q292.15999999999997,20.744,290.432,17.912Q289.712,16.664,288.992,15.608ZM306.704,19.928Q306.56,19.688,306.56,19.4Q306.56,18.824,307.472,18.776Q310.88,18.44,314.408,17.696Q317.93600000000004,16.952,319.03999999999996,16.424Q320.096,15.896,320.624,15.896Q321.344,15.896,322.64,16.76Q323.84000000000003,17.672,325.52,19.304Q326.288,20.072,326.288,20.648Q326.288,21.464,325.08799999999997,21.944Q323.744,22.424,321.392,23.672Q319.03999999999996,24.92,316.784,26.216Q318.32,28.376,319.23199999999997,31.28Q320.144,34.184,320.144,37.304Q320.144,41.432,318.464,45.08Q317.264,47.768,314.336,48.92Q313.808,49.112,313.28,49.112Q311.984,49.112,311.6,47.72Q311.36,46.712,310.424,45.8Q309.488,44.888,308.096,43.88Q307.76,43.64,306.944,42.968Q306.752,42.776,306.752,42.536Q306.752,42.296,306.944,42.128Q307.13599999999997,41.96,307.52,42.008Q309.44,42.296,310.64,42.296Q311.168,42.296,311.744,42.2Q312.656,42.152,313.18399999999997,40.808Q314.144,38.312,314.144,33.8Q314.144,31.208,313.784,28.736Q313.424,26.264,312.704,24.488Q312.608,24.248,312.608,23.912Q312.608,23.192,313.328,23.192Q313.904,23.192,314.336,23.576Q315.2,24.2,316.256,25.496Q317.84000000000003,23.624,319.376,20.84Q319.03999999999996,20.984,316.64,21.464Q312.608,22.328,311.696,22.712Q311.072,22.904,310.448,22.904Q309.392,22.904,308.6,22.232Q307.808,21.56,306.704,19.928ZM306.848,2.408Q306.8,2.312,306.752,2.216Q306.704,2.12,306.704,1.976Q306.704,1.448,307.808,1.448Q311.072,1.448,313.712,3.32Q315.68,4.52,315.68,6.584Q315.68,8.168,314.576,9.392Q313.472,10.616,312.08,10.616Q310.928,10.616,310.11199999999997,9.32Q308.86400000000003,6.152,306.848,2.408ZM346.01599999999996,34.424Q345.152,34.424,343.736,33.728Q342.32,33.032,341.93600000000004,32.504Q341.79200000000003,32.36,341.79200000000003,31.976Q341.79200000000003,31.544,341.93600000000004,31.208Q342.704,27.752,342.704,24.104Q342.704,21.464,342.224,19.448Q337.76,21.608,334.496,21.608Q333.632,21.608,333.632,21.32Q333.632,21.128,334.06399999999996,20.936Q337.328,19.256,341.168,15.728Q345.00800000000004,12.2,347.72,8.384Q350.432,4.568,350.624,2.072Q350.672,1.112,351.152,1.112Q351.344,1.112,351.632,1.256Q352.976,1.736,354.44,2.48Q355.904,3.224,356.86400000000003,3.944Q357.344,4.28,357.344,4.904Q357.344,5.432,356.91200000000003,6.104L356.672,6.44Q359.264,8.12,363.08000000000004,10.088Q366.89599999999996,12.056,369.776,13.4Q374.288,15.32,377.648,16.136Q378.128,16.28,378.128,16.52Q378.128,16.712,377.648,17Q376.832,17.384,375.10400000000004,18.776Q373.616,19.88,372.824,20.384Q372.03200000000004,20.888,371.264,21.128Q370.304,21.368,369.776,21.368Q368.86400000000003,21.368,367.952,20.84Q367.904,20.888,367.904,20.792L367.856,20.792L367.808,25.448L367.856,28.616Q367.904,29.48,367.904,30.872Q367.904,32.456,366.89599999999996,33.704Q365.88800000000003,34.952,364.11199999999997,35.48Q363.344,35.672,362.96000000000004,35.672Q362.48,35.672,362.192,35.336Q362,34.952,361.544,34.04Q361.08799999999997,33.128,360.536,32.36Q359.98400000000004,31.592,359.216,31.064Q358.976,30.824,359.024,30.728Q358.496,30.728,357.632,30.488Q356.86400000000003,30.248,356.528,29.648Q356.192,29.048,356.288,28.232Q356.576,25.4,356.576,23.288Q356.576,21.08,356.192,19.736L356.096,19.352Q356.096,18.776,356.76800000000003,18.776Q358.20799999999997,18.92,359.144,19.256Q360.08000000000004,19.592,360.89599999999996,20.216Q361.28,20.6,361.28,21.128Q361.28,21.272,361.18399999999997,21.848L361.03999999999996,22.664Q360.94399999999996,23.336,360.94399999999996,25.4L360.94399999999996,28.088Q360.94399999999996,30.152,359.744,30.584Q360.03200000000004,30.632,360.248,30.656Q360.464,30.68,360.752,30.68Q361.76,30.68,362.096,30.584Q362.432,30.488,362.48,30.056Q362.672,27.896,362.672,25.64Q362.672,23.048,362.384,19.592Q362.288,18.776,361.952,18.44L361.952,18.296Q361.952,18.152,362.072,18.08Q362.192,18.008,362.576,18.008Q363.10400000000004,18.008,364.352,18.104Q362.24,16.472,359.36,14.072Q359.456,14.216,359.6,14.384Q359.744,14.552,359.79200000000003,14.696Q359.98400000000004,15.032,359.98400000000004,15.368Q359.98400000000004,15.704,359.79200000000003,15.92Q359.6,16.136,359.312,16.136Q355.23199999999997,16.184,352.304,16.904L352.20799999999997,16.952Q352.256,16.952,352.544,17.048Q353.168,17.24,353.93600000000004,17.696Q354.704,18.152,355.13599999999997,18.584Q355.568,18.92,355.568,19.352Q355.568,19.64,355.28,20.072Q354.99199999999996,20.696,354.99199999999996,21.608Q354.94399999999996,22.328,354.94399999999996,23.72L354.99199999999996,26.408Q355.08799999999997,28.904,355.08799999999997,30.92Q355.08799999999997,32.216,354.704,33.032Q354.32,33.848,353.36,34.376Q354.8,34.136,355.808,34.136Q359.84000000000003,34.136,359.84000000000003,37.352Q359.84000000000003,39.464,358.256,40.376Q357.91999999999996,40.52,357.536,40.52Q357.10400000000004,40.52,356.72,40.232Q354.704,38.504,352.688,35.096Q352.544,34.952,352.64,34.664L352.256,34.808Q351.872,34.904,351.632,34.904Q350.91200000000003,34.904,350.48,34.328Q348.99199999999996,32.216,347.456,30.728L347.312,30.584L347.36,31.592Q347.456,33.128,347.216,33.776Q346.976,34.424,346.01599999999996,34.424ZM336.89599999999996,40.472Q337.23199999999997,39.704,338.552,38Q339.872,36.296,340.928,35.144Q341.36,34.712,341.6,34.712Q341.84000000000003,34.712,341.98400000000004,35.192Q342.368,36.968,342.368,39.752Q342.368,42.152,342.03200000000004,44.168Q341.79200000000003,45.224,340.496,45.608Q340.352,45.656,340.06399999999996,45.656Q339.296,45.656,338.48,45.176Q337.664,44.696,337.11199999999997,43.856Q336.56,43.016,336.56,41.96Q336.56,41.192,336.89599999999996,40.472ZM344.24,36.488Q344.432,36.872,344.96000000000004,38.312Q345.776,40.52,346.688,42.056Q347.6,43.592,349.64,45.008Q351.68,46.424,355.23199999999997,47.144Q356.91200000000003,47.528,359.216,47.528Q361.76,47.528,364.08799999999997,46.952Q366.416,46.376,367.904,45.32Q368.86400000000003,44.6,368.86400000000003,43.64Q368.86400000000003,42.68,367.76,41.96Q365.264,40.328,362.144,36.728Q361.952,36.44,361.712,36.44Q361.568,36.44,361.496,36.584Q361.424,36.728,361.472,36.968Q361.952,40.136,361.808,41.48Q361.712,42.056,361.328,42.2Q360.464,42.488,358.4,42.488Q356.576,42.488,355.664,42.2Q353.264,41.48,352.18399999999997,40.256Q351.10400000000004,39.032,350.192,37.064Q349.76,36.296,349.13599999999997,36.008Q347.88800000000003,35.672,346.20799999999997,35.672Q345.296,35.672,344.48,35.816Q344.048,35.864,344.048,36.056Q344.048,36.248,344.24,36.488ZM345.2,17.864Q346.592,18.056,347.36,18.296Q348.56,18.248,349.352,18.008Q350.144,17.768,351.10400000000004,17.192L351.392,17.048Q350.86400000000003,17,350.096,16.712Q349.23199999999997,16.328,348.608,15.56Q347.12,16.712,345.2,17.864ZM347.312,30.2Q347.504,30.104,347.744,30.152Q348.848,30.296,349.76,30.296Q350.24,30.296,350.36,30.2Q350.48,30.104,350.48,29.816L350.576,28.568L347.312,28.808L347.312,30.2ZM347.36,26.312Q348.656,26.072,349.23199999999997,25.88Q349.424,25.832,349.712,25.832Q350.096,25.832,350.384,25.976Q350.576,26.072,350.672,26.168L350.672,25.016L350.432,25.064Q350,25.16,347.36,25.448L347.36,26.312ZM347.456,22.808Q348.608,22.472,348.704,22.424Q348.94399999999996,22.28,349.08799999999997,22.28Q349.424,22.28,349.856,22.616L350.672,23.288L350.576,21.128Q350.576,20.648,350.336,20.648Q349.13599999999997,20.792,347.552,21.224L347.456,22.808ZM350.96000000000004,13.64Q353.98400000000004,13.208,356,12.2Q356.576,11.96,357.00800000000004,12.056Q355.712,10.952,354.368,9.608Q354.128,9.896,353.744,10.472L352.832,11.624Q352.11199999999997,12.536,350.96000000000004,13.64ZM365.79200000000003,35.768Q365.504,35.624,365.504,35.432Q365.504,35.144,366.08000000000004,35.096Q366.464,35,367.424,35Q368.528,35,369.776,35.216Q371.024,35.432,371.93600000000004,35.768Q373.18399999999997,36.296,373.784,37.184Q374.384,38.072,374.384,39.08Q374.384,40.04,373.88,40.856Q373.376,41.672,372.512,42.152Q372.08000000000004,42.344,371.648,42.344Q370.736,42.344,370.20799999999997,41.24Q369.536,40.136,368.144,38.432Q366.752,36.728,365.79200000000003,35.768ZM388.88,31.976Q388.256,31.736,387.56,30.752Q386.86400000000003,29.768,386.432,28.592Q386,27.416,386.096,26.6Q386.576,23.144,386.76800000000003,21.152Q386.96000000000004,19.16,386.96000000000004,16.76Q386.96000000000004,15.368,386.91200000000003,14.6Q386.91200000000003,14.408,386.86400000000003,13.592Q386.81600000000003,12.776,386.432,12.152Q386.288,11.912,386.288,11.72Q386.288,11.432,386.48,11.24Q386.672,11.048,387.00800000000004,11Q388.448,10.952,389.696,11.312Q390.94399999999996,11.672,391.616,12.152Q392,12.44,392,13.064Q392,13.352,391.952,13.496Q391.904,13.736,391.904,14.792Q391.856,15.176,391.856,16.04Q391.808,17.528,391.808,20.984Q391.808,26.744,391.664,28.76Q391.376,32.12,389.648,32.12Q389.312,32.12,388.88,31.976ZM385.904,44.408Q390.608,39.704,392.312,31.592Q394.01599999999996,23.48,394.01599999999996,15.416Q394.01599999999996,12.104,393.872,10.52Q393.44,7.064,392.336,4.28Q392.24,3.896,392.24,3.656Q392.24,3.272,392.504,3.056Q392.76800000000003,2.84,393.488,2.84Q395.12,2.84,396.416,3.488Q397.712,4.136,398.91200000000003,5.192Q399.584,5.912,399.584,6.584Q399.584,6.824,399.392,7.688Q399.2,8.6,399.2,11.24L399.2,12.68Q399.2,20.264,398.528,26Q397.856,31.736,395.12,37.184Q392.384,42.632,386.76800000000003,45.704Q386.48,45.8,386.24,45.8Q385.904,45.8,385.664,45.68Q385.424,45.56,385.424,45.272Q385.424,44.888,385.904,44.408ZM399.68,10.568Q399.296,9.944,399.296,9.656Q399.296,9.368,399.56,9.272Q399.824,9.176,400.592,9.032Q405.296,8.504,409.952,7.664Q414.608,6.824,417.392,5.864Q417.536,5.816,418.28,5.552Q419.024,5.288,419.696,5.288Q420.08000000000004,5.288,420.416,5.432Q421.808,5.96,423.392,8.168Q423.91999999999996,9.08,423.91999999999996,9.464Q423.91999999999996,9.8,423.584,10.136Q423.44,10.28,422.88800000000003,10.328Q422.336,10.376,422.192,10.376Q421.23199999999997,10.376,420.704,10.472Q418.4,10.712,414.608,11.384Q414.56,11.672,414.464,11.936Q414.368,12.2,414.32,12.488Q413.93600000000004,14.072,413.88800000000003,15.176L413.84000000000003,16.424Q414.464,16.328,416.24,15.944Q416.86400000000003,15.8,418.11199999999997,15.272Q418.976,14.936,419.312,14.936Q419.79200000000003,14.936,420.128,15.224Q421.616,16.328,422.624,17.24Q423.632,18.152,423.872,18.92Q423.96799999999996,19.304,423.96799999999996,19.448Q423.96799999999996,19.784,423.536,20.936Q423.488,21.08,423.32,21.512Q423.152,21.944,423.05600000000004,22.664Q422.96000000000004,23.384,422.96000000000004,24.44L422.96000000000004,26.792Q422.96000000000004,29.72,422.91200000000003,30.8Q422.86400000000003,31.88,422.576,32.672Q422.288,33.464,421.52,34.472Q420.8,35.48,419.88800000000003,36.128Q418.976,36.776,418.20799999999997,36.776Q417.44,36.776,416.91200000000003,36.104Q416.096,34.952,415.4,34.16Q414.704,33.368,413.696,32.456Q413.696,39.992,413.648,42.344Q413.456,45.32,413.024,46.76Q412.592,48.2,411.68,48.2Q411.296,48.2,410.76800000000003,47.912Q409.424,47.24,408.344,45.752Q407.264,44.264,407.216,42.392Q407.216,41.624,407.552,40.088Q407.6,39.704,407.696,39.224Q407.79200000000003,38.744,407.84000000000003,38.216Q408.08000000000004,31.352,408.08000000000004,26.072Q408.08000000000004,23.144,408.03200000000004,21.704Q406.736,21.992,405.632,22.136L405.632,24.056L405.68,29.48Q405.68,32.408,405.488,33.992Q405.248,37.016,403.52,37.016Q403.18399999999997,37.016,402.752,36.872Q401.79200000000003,36.392,400.832,34.688Q399.872,32.984,400.06399999999996,31.784Q400.736,27.224,400.736,22.616Q400.736,20.648,400.688,19.592Q400.688,18.008,400.304,16.808L400.304,16.52Q400.304,15.752,400.784,15.752Q403.52,15.848,405.44,17.192Q405.728,17.336,405.872,17.624L407.88800000000003,17.384L407.744,14.264Q407.744,13.544,407.648,12.584Q405.872,12.92,403.904,13.16Q403.712,13.208,403.28,13.208Q402.08000000000004,13.208,401.36,12.584Q400.64,11.96,399.68,10.568ZM413.84000000000003,31.64Q414.128,31.64,414.94399999999996,31.664Q415.76,31.688,416.096,31.64Q416.91200000000003,31.544,417.2,31.016Q417.344,30.824,417.392,28.904Q417.44,26.984,417.44,24.632L417.44,21.32Q417.44,20.696,417.32,20.432Q417.2,20.168,416.76800000000003,20.168Q416.144,20.168,413.744,20.648Q413.696,23.96,413.696,31.64L413.84000000000003,31.64Z" fill="#F39C31" fill-opacity="1"/></g></g></svg>