<svg xmlns="http://www.w3.org/2000/svg" xmlns:xlink="http://www.w3.org/1999/xlink" fill="none" version="1.1" width="380" height="48.43994140625" viewBox="0 0 380 48.43994140625"><defs><linearGradient x1="380" y1="24" x2="188" y2="24" gradientUnits="userSpaceOnUse" id="master_svg0_53_6502"><stop offset="2.857142873108387%" stop-color="#474747" stop-opacity="1"/><stop offset="100%" stop-color="#151515" stop-opacity="1"/></linearGradient></defs><g><g><path d="M2.24,35.7C2.968,34.748000000000005,3.64,33.768,4.34,32.704L4.34,44.94L7.728,44.94L7.728,26.375999999999998C8.596,24.416,9.38,22.4,10.052,20.328L6.496,19.432C5.292,23.996000000000002,3.528,27.916,1.344,31.192C1.596,32.732,1.904,34.104,2.24,35.7ZM24.64,30.380000000000003L26.096,25.872L26.096,22.876L15.456,22.876C15.82,22.008,16.128,21.084,16.464,20.132L12.936,19.628C11.872,23.128,10.5,26.04,8.484,28.84C9.464,29.567999999999998,10.22,30.268,11.144,31.136C12.264,29.512,13.216,27.887999999999998,14.028,26.18L22.596,26.18L21.308,29.596C22.316,29.82,23.604,30.072,24.64,30.380000000000003ZM12.656,44.66C13.832,44.66,15.232,44.632000000000005,16.128,44.548C18.564,44.379999999999995,19.488,43.147999999999996,19.488,40.656L19.488,27.72L16.016,27.72L16.016,39.872C16.016,40.936,15.652,41.328,14.616,41.328C13.636,41.328,12.908,41.3,12.04,41.216C12.236,42.168,12.516,43.708,12.656,44.66ZM23.268,40.964L26.6,39.9C25.732,37.464,24.556,34.16,23.352,30.912L20.216,31.808C21.28,34.86,22.316,38.052,23.268,40.964ZM11.676,40.936C12.824,38.108000000000004,14.196,34.495999999999995,15.148,31.752000000000002L12.012,30.716C11.116,33.292,9.772,36.932,8.512,39.620000000000005C9.772,40.04,10.64,40.46,11.676,40.936ZM43.96,30.464C44.548,29.344,45.08,28.168,45.612,26.908L50.26,26.908C50.232,30.380000000000003,50.12,35.952,50.008,38.556C49.952,40.376000000000005,49.364,41.019999999999996,47.544,41.019999999999996C46.284,41.019999999999996,44.94,40.992000000000004,43.708,40.936C43.932,41.972,44.184,43.147999999999996,44.408,44.519999999999996C46.06,44.519999999999996,47.656,44.492000000000004,48.972,44.408C52.276,44.239999999999995,53.368,42.728,53.452,39.284C53.564,35.504000000000005,53.704,29.82,53.844,23.548000000000002L46.928,23.548000000000002L48.048,20.244L44.604,19.432C43.652,22.82,42.364,26.012,40.992,28.756L40.992,23.548000000000002L36.904,23.548000000000002C37.212,22.456,37.52,21.336,37.884,20.048000000000002L34.132,19.516C33.908,20.748,33.628,22.12,33.264,23.548000000000002L30.408,23.548000000000002L30.408,44.632000000000005L33.74,44.632000000000005L33.74,42.756L37.66,42.756L37.66,44.464L40.992,44.464L40.992,28.868000000000002C42,29.344,43.036,29.932000000000002,43.96,30.464ZM46.172,37.519999999999996L49.14,35.56C47.824,33.712,46.536,32.004,45.192,30.212L42.504,32.004C43.848,33.852000000000004,45.08,35.784,46.172,37.519999999999996ZM33.74,34.832L37.66,34.832L37.66,39.424L33.74,39.424L33.74,34.832ZM33.74,26.880000000000003L37.66,26.880000000000003L37.66,31.5L33.74,31.5L33.74,26.880000000000003ZM62.916,33.628L63.784,33.628C64.708,33.628,65.296,34.412,65.296,36.036C65.296,36.848,65.212,37.632000000000005,65.044,38.556C64.876,39.424,64.764,40.263999999999996,64.764,41.076C64.764,44.1,66.108,45.472,68.964,45.472L69.888,45.472L69.888,43.372L68.964,43.372C67.564,43.372,66.976,42.7,66.976,41.076C66.976,40.348,67.088,39.367999999999995,67.256,38.611999999999995C67.424,37.8,67.536,36.932,67.536,36.036C67.536,34.44,66.696,33.32,65.436,32.564C66.668,31.948,67.536,30.856,67.536,29.092C67.536,28.224,67.424,27.356,67.256,26.544C67.088,25.759999999999998,66.976,24.724,66.976,24.024C66.976,22.512,67.508,21.756,68.964,21.756L69.888,21.756L69.888,19.656L68.964,19.656C66.08,19.656,64.708,21.252,64.764,24.024C64.792,24.892,64.932,25.788,65.072,26.6C65.24,27.496000000000002,65.296,28.28,65.296,29.092C65.296,30.716,64.736,31.528,63.784,31.528L62.916,31.528L62.916,33.628ZM80.22,31.584C80.416,30.52,80.668,29.372,80.836,28.224L82.432,28.224L82.432,33.376000000000005L78.176,34.188L78.456,37.884L82.432,36.903999999999996L82.432,44.995999999999995L85.624,44.995999999999995L85.624,36.092C86.24,35.980000000000004,86.884,35.84,87.528,35.672C87.472,34.748000000000005,87.444,33.544,87.444,32.256L85.624,32.704L85.624,28.224L87.472,28.224L87.472,25.060000000000002L85.624,25.060000000000002L85.624,19.544L82.432,19.544L82.432,25.060000000000002L81.088,25.060000000000002L81.396,21.951999999999998L79.24,21.756C78.988,25.732,78.624,28.42,78.036,30.8L80.22,31.584ZM88.144,36.092L90.804,36.092L88.62,37.912C89.768,39.172,90.692,40.348,91.7,41.635999999999996L94.192,39.592C93.1,38.388000000000005,92.008,37.212,90.916,36.092L96.936,36.092L96.936,39.956C96.936,41.076,96.544,41.495999999999995,95.396,41.495999999999995C94.528,41.495999999999995,93.436,41.468,92.484,41.44C92.764,42.672,92.96,43.68,93.1,44.744C94.304,44.744,95.704,44.744,97.02,44.688C99.456,44.548,100.296,43.484,100.296,40.824L100.296,36.092L102.872,36.092L102.872,33.068L100.296,33.068L100.296,31.444000000000003L96.936,31.444000000000003L96.936,33.068L88.144,33.068L88.144,36.092ZM88.844,25.451999999999998L93.66,25.451999999999998L93.66,27.804000000000002L87.864,27.804000000000002L87.864,30.828L103.068,30.828L103.068,27.804000000000002L97.02,27.804000000000002L97.02,25.451999999999998L101.976,25.451999999999998L101.976,22.428L97.02,22.428L97.02,19.488L93.66,19.488L93.66,22.428L88.844,22.428L88.844,25.451999999999998ZM108.64,45.108000000000004C111.076,41.244,111.72,38.275999999999996,111.72,31.668L111.72,24.052C114.38,24.024,117.012,23.912,119.56,23.8L119.56,25.816000000000003L112.42,25.816000000000003L112.42,28.728L119.56,28.728L119.56,30.576L113.4,30.576L113.4,39.088L116.676,39.088L116.676,33.488L126.224,33.488L126.224,39.088L129.5,39.088L129.5,30.576L123.004,30.576L123.004,28.728L130.76,28.728L130.76,25.816000000000003L123.004,25.816000000000003L123.004,23.604C125.72,23.464,128.24,23.268,130.48,23.044L129.248,19.908C122.864,20.58,116.564,20.887999999999998,108.304,21L108.304,31.584C108.304,37.1,107.8,39.367999999999995,106.008,42.532C106.904,43.344,107.828,44.268,108.64,45.108000000000004ZM112.7,45.108000000000004C117.292,44.044,119.952,42.644,121.464,40.768C124.012,42.028,126.7,43.456,129.444,45.052L131.152,42C128.1,40.6,125.328,39.396,122.668,38.388000000000005C122.864,37.828,122.976,37.296,123.088,36.708C123.2,35.980000000000004,123.256,35.168,123.284,34.384L119.812,34.384C119.812,35.224000000000004,119.728,36.036,119.588,36.708C119.028,39.312,117.236,40.712,110.992,42.056C111.636,43.092,112.252,44.184,112.7,45.108000000000004ZM146.412,33.628L146.412,31.528L145.516,31.528C144.564,31.528,144.004,30.716,144.004,29.092C144.004,28.308,144.088,27.468,144.228,26.6C144.368,25.788,144.508,24.892,144.536,24.024C144.592,21.252,143.248,19.656,140.336,19.656L139.44,19.656L139.44,21.756L140.336,21.756C141.792,21.756,142.324,22.512,142.324,24.024C142.324,24.724,142.212,25.759999999999998,142.044,26.544C141.876,27.356,141.764,28.224,141.764,29.092C141.764,30.856,142.66,31.948,143.864,32.564C142.632,33.32,141.764,34.44,141.764,36.036C141.764,36.932,141.876,37.8,142.044,38.611999999999995C142.212,39.367999999999995,142.324,40.348,142.324,41.076C142.324,42.7,141.736,43.372,140.336,43.372L139.44,43.372L139.44,45.472L140.336,45.472C143.22,45.472,144.536,44.1,144.536,41.076C144.536,40.263999999999996,144.424,39.424,144.256,38.556C144.088,37.632000000000005,144.004,36.848,144.004,36.036C144.004,34.412,144.592,33.628,145.516,33.628L146.412,33.628ZM155.036,35.14L165.928,35.14L165.928,41.076C163.94,40.739999999999995,162.708,39.928,161.756,38.36C161.924,37.66,162.092,36.876000000000005,162.26,36.007999999999996L159.04,35.56C158.62,39.256,157.668,40.712,154.728,42.784C155.54,43.652,156.24,44.519999999999996,156.884,45.248000000000005C158.676,43.988,159.824,42.812,160.636,41.356C162.288,43.54,164.472,44.128,168.672,44.184C172.116,44.268,175.924,44.296,179.088,44.296C179.312,43.428,179.564,42.391999999999996,179.872,41.328C176.484,41.384,172.256,41.384,169.288,41.356L169.288,39.452L177.716,39.452L177.716,36.82L169.288,36.82L169.288,35.14L179.648,35.14L179.648,32.284L155.036,32.284L155.036,35.14ZM157.836,30.884L176.764,30.884L176.764,20.468L157.836,20.468L157.836,30.884ZM161.28,26.796L173.32,26.796L173.32,28.364L161.28,28.364L161.28,26.796ZM161.28,23.212L173.32,23.212L173.32,24.695999999999998L161.28,24.695999999999998L161.28,23.212Z" fill="#343B45" fill-opacity="1"/></g><g><path d="M190.976,32.936Q190.784,32.984,190.448,32.984Q189.824,32.984,189.824,32.552Q189.824,32.024,190.592,31.496Q193.808,29.672,197.768,26.624Q201.728,23.576,203.408,21.32L204.07999999999998,20.312Q198.368,20.888,196.448,21.416Q195.44,21.656,194.12,20.552Q192.8,19.448,192.032,17.624Q191.936,17.336,191.936,17.192Q191.936,16.424,194.096,16.424Q195.728,16.424,203.312,15.8Q202.832,15.272,201.968,14.12Q200.912,12.68,200.24,12.008Q200.096,11.864,200.096,11.672Q200.096,11.48,200.288,11.432Q201.872,11,203.312,11Q206.624,11,206.816,13.784L206.816,14.216Q206.816,14.936,206.624,15.464L207.776,15.368Q207.632,11.816,207.008,10.28Q206.864,9.896,207.008,9.656Q201.584,10.52,199.232,10.568Q198.56,10.568,198.56,10.232Q198.56,9.896,199.328,9.608Q202.16,8.648,206.816,6.488Q211.472,4.328,212.864,3.128Q213.68,2.36,214.04,1.904Q214.4,1.448,214.736,0.776001Q215.216,0.104,215.888,0.104Q216.272,0.104,216.656,0.343998Q217.952,1.16,219.07999999999998,2.264Q220.208,3.368,220.496,4.472Q220.59199999999998,4.856,220.448,5.408Q220.304,5.96,219.536,6.248Q217.61599999999999,7.112,216.944,7.304Q214.448,8.264,208.4,9.368Q209.40800000000002,9.464,210.296,9.824Q211.184,10.184,212.48,10.904Q213.008,11.192,213.152,11.576Q213.296,11.96,213.296,12.824L213.296,14.744L213.488,14.744Q214.448,13.496,215.024,12.152Q215.6,10.808,216.224,8.888Q216.272,8.552,216.512,8.36Q216.752,8.168,217.088,8.168Q217.424,8.168,217.568,8.264Q218.864,9.272,219.392,9.8Q219.92000000000002,10.328,220.448,11.24Q220.64,11.528,220.64,11.864Q220.64,12.392,220.112,13.064Q219.728,13.544,218.912,14.072L219.92000000000002,13.928Q222.704,13.4,222.56,13.448Q224.096,13.016,224.912,13.016Q225.632,13.016,226.112,13.304Q227.12,14.12,227.912,15.2Q228.704,16.28,228.89600000000002,17.192Q228.992,17.816,228.632,18.296Q228.272,18.776,227.40800000000002,18.776Q222.128,18.776,215.456,19.304Q219.056,21.56,224.24,23.936Q229.424,26.312,232.976,27.272Q234.07999999999998,27.608,234.07999999999998,28.04Q234.07999999999998,28.424,233.36,28.808Q229.808,30.872,227.40800000000002,31.256Q226.4,31.448,225.392,31.448Q224.144,31.448,223.328,31.064L223.424,31.208Q223.52,31.496,223.52,31.592Q223.52,31.88,223.28,32.408Q223.04,32.936,222.89600000000002,33.368Q222.704,33.848,222.632,35.072Q222.56,36.296,222.512,37.64Q222.464,39.32,222.32,41.096Q222.176,42.872,221.888,43.976Q221.40800000000002,46.088,220.424,47.072Q219.44,48.056,217.712,48.296Q216.272,48.44,216.032,46.376Q215.984,45.752,215.696,44.888L215.648,44.888Q214.736,44.888,210.92000000000002,45.272Q207.10399999999998,45.656,206.096,45.8L205.856,45.8Q205.424,45.8,204.944,45.56Q204.656,46.664,203.984,47.36Q203.312,48.056,202.688,48.056Q201.584,48.056,200.048,45.224Q199.76,44.648,199.76,43.928L199.808,38.504Q199.808,34.136,199.568,32.696Q199.376,31.16,198.89600000000002,30.2Q194.72,32.168,190.976,32.936ZM202.448,28.28Q204.128,28.76,204.8,29.576Q207.776,29.336,208.688,29.24L208.016,28.616Q207.10399999999998,27.8,207.10399999999998,26.888Q207.10399999999998,26.504,207.2,26.312Q207.344,25.976,207.488,24.008L206.144,25.304Q204.848,26.648,202.448,28.28ZM204.848,33.464Q204.944,35,204.944,35.48L208.016,35.192L207.824,33.128Q207.10399999999998,33.224,204.848,33.464ZM208.208,41.672Q208.016,40.952,208.064,40.232Q208.112,39.896,208.112,39.176L206.24,39.416Q206,39.416,205.688,39.44Q205.376,39.464,204.992,39.416L204.992,41.96L208.208,41.672ZM212.72,32.552Q213.10399999999998,32.84,213.248,33.08Q213.296,33.176,213.296,33.464Q213.296,33.8,213.248,34.088Q213.2,34.376,213.152,34.568Q214.016,34.472,214.4,34.472Q215.504,34.472,216.07999999999998,35.048Q216.992,36.056,217.328,36.968Q217.328,34.712,217.28,33.272Q217.28,32.744,217.04,32.432Q216.8,32.12,216.368,32.168L212.72,32.552ZM212.912,41.144Q214.544,40.952,214.928,40.952Q215.744,40.952,216.224,41.192Q216.464,41.336,216.8,41.672Q217.184,40.28,217.28,37.976Q216.944,38.216,215.888,38.312Q214.736,38.408,213.008,38.648Q213.008,40.328,212.912,41.144ZM213.392,28.808Q216.07999999999998,28.472,216.512,28.376Q216.8,28.328,217.856,27.992Q218.48,27.656,218.96,27.608Q215.6,24.632,213.44,22.424Q213.44,23.864,213.536,24.92Q213.632,25.592,213.632,26.744Q213.632,28.088,213.392,28.808ZM257.984,18.92Q257.504,18.92,257.048,18.728Q256.592,18.536,256.15999999999997,18.296Q255.728,18.056,255.44,17.912Q254.864,17.528,254.50400000000002,16.616Q254.144,15.704,254.144,14.936L254.048,14.36Q248.864,15.272,246.848,16.04Q246.704,16.088,246.416,16.088Q245.36,16.088,244.064,15.032Q242.768,13.976,242.048,12.488L241.952,12.104Q241.952,11.72,242.192,11.552Q242.43200000000002,11.384,242.72,11.384Q245.36,11.24,253.184,10.136Q251.936,5.672,250.736,4.28Q250.4,3.848,250.4,3.608Q250.4,2.984,251.84,3.032Q254.288,3.224,255.848,3.656Q257.408,4.088,258.032,4.952Q258.368,5.288,258.416,5.912Q258.464,6.536,258.464,7.88L258.512,9.368Q260.624,9.08,264.032,8.552L264.08,7.304Q264.08,4.472,263.504,3.032Q263.216,2.168,263.216,1.928Q263.216,1.352,264.224,1.4Q266.384,1.592,268.376,2.36Q270.368,3.128,271.18399999999997,4.28Q271.376,4.472,271.376,4.808Q271.376,5.24,270.944,6.008Q270.656,6.632,270.512,7.064L270.368,7.544Q271.76,7.304,275.264,6.632Q275.984,6.44,276.56,6.44Q277.28,6.44,277.952,6.824Q278.91200000000003,7.448,279.56,8.576Q280.20799999999997,9.704,280.496,10.76Q280.592,11.144,280.592,11.288Q280.592,12.008,279.104,11.96L277.472,11.912Q273.776,11.912,268.352,12.392Q266.192,16.712,263.312,19.016Q262.928,19.352,262.544,19.352Q262.15999999999997,19.352,261.992,18.992Q261.824,18.632,261.92,18.296Q263.024,15.368,263.504,12.92Q261.44,13.16,258.56,13.592L258.656,18.44Q258.656,18.92,257.984,18.92ZM238.112,46.904Q244.4,40.232,246.848,30.488Q245.84,30.824,245.168,30.824Q244.256,30.824,243.728,30.344Q243.392,30.104,242.6,29.504Q241.808,28.904,241.424,28.376Q241.088,27.896,241.088,27.512Q241.088,26.792,242.38400000000001,26.696Q244.832,26.504,247.76,25.64Q247.856,25.064,247.856,24.92Q247.904,24.248,247.904,22.904Q247.904,20.408,247.56799999999998,18.92Q247.52,18.68,247.424,18.296Q247.328,17.912,247.328,17.72Q247.328,16.904,248.288,17.048Q251.552,17.432,253.51999999999998,19.544Q254.144,20.12,254.144,20.792Q254.144,21.176,253.976,21.728Q253.808,22.28,253.56799999999998,22.904Q253.47199999999998,23.144,253.376,23.816L254.24,23.528Q254.336,23.48,255.03199999999998,23.192Q255.728,22.904,256.448,22.904Q256.88,22.904,257.072,23Q260.192,24.536,261.392,25.976Q261.92,26.648,261.92,27.176Q261.92,27.608,261.584,28.28Q261.248,29,261.104,29.72Q260.86400000000003,32.552,260.12,36.704Q259.376,40.856,258.608,43.112Q257.88800000000003,45.224,256.688,46.424Q255.488,47.624,253.712,48.296Q253.424,48.392,253.184,48.392Q252.272,48.392,251.552,47Q251.024,45.944,250.304,45.176Q249.584,44.408,247.904,42.872Q247.52,42.536,247.52,42.296Q247.52,42.152,247.736,42.032Q247.952,41.912,248.192,41.912Q248.576,41.912,249.392,41.912Q250.208,41.912,251.552,41.816Q252.272,41.768,252.68,41.576Q253.088,41.384,253.184,40.904Q254.144,37.736,254.576,35.264Q255.00799999999998,32.792,255.296,29Q255.344,28.52,255.224,28.304Q255.10399999999998,28.088,254.768,28.088Q254.624,28.088,253.856,28.28L252.368,28.808Q250.784,36.008,247.76,40.688Q244.736,45.368,238.832,48.008Q238.736,48.056,238.54399999999998,48.056Q238.256,48.056,238.112,47.864Q237.96800000000002,47.672,237.96800000000002,47.384Q237.96800000000002,47.144,238.112,46.904ZM262.352,22.664Q262.304,22.52,262.304,22.28Q262.304,21.896,262.568,21.656Q262.832,21.416,263.216,21.464Q264.8,21.56,266.264,22.208Q267.728,22.856,268.496,23.72L268.736,24.008L268.784,24.008Q270.08,23.768,271.424,23.192Q272.76800000000003,22.616,273.44,22.184Q274.016,21.8,274.448,21.8Q274.784,21.8,275.072,21.944Q276.224,22.28,276.992,22.736Q277.76,23.192,278.86400000000003,24.056Q279.68,24.68,279.68,25.448Q279.68,25.832,279.392,26.36Q279.056,26.84,278.984,27.296Q278.91200000000003,27.752,278.81600000000003,29.096Q278.72,31.4,278.72,32.408Q278.72,33.656,278.76800000000003,34.328L278.81600000000003,37.064Q278.81600000000003,38.6,278.216,39.488Q277.616,40.376,276.272,41.432Q274.88,42.488,274.016,42.488Q273.248,42.488,272.72,41.672L271.28,39.56Q270.368,39.656,268.352,40.04Q268.4,42.104,267.68,43.304Q266.96,44.504,265.856,44.6Q265.23199999999997,44.6,264.368,43.712Q263.504,42.824,262.952,41.552Q262.4,40.28,262.592,39.176Q262.736,37.88,262.856,35.312Q262.976,32.744,262.976,30.152Q262.976,24.392,262.352,22.664ZM268.20799999999997,35.912Q270.8,35.48,272.96,35.288Q273.2,33.56,273.2,28.472Q273.2,28.088,272.93600000000004,27.944Q272.672,27.8,272.24,27.944Q271.328,28.136,268.688,28.424L268.592,29.576Q268.352,32.6,268.20799999999997,35.912ZM287.024,30.824Q286.928,30.872,286.784,30.872Q286.544,30.872,286.544,30.68Q286.544,30.488,286.88,30.152Q291.296,26.696,296.192,20.84Q293.6,21.416,291.056,22.376Q290.672,22.568,290.144,22.568Q289.52,22.568,288.656,22.088Q287.648,21.656,286.448,20.024Q286.256,19.784,286.256,19.448Q286.256,19.064,286.88,19.016Q290,18.872,295.28,17.96L295.424,14.456L294.272,14.744Q293.696,14.84,293.408,14.84Q292.64,14.84,291.92,14.6Q290.72,14.072,289.76,12.344Q289.52,12.008,289.52,11.816Q289.52,11.432,290.144,11.432Q292.88,11.24,295.52,10.616Q295.52,3.848,294.848,2.648Q294.8,2.504,294.8,2.312Q294.8,1.976,295.18399999999997,1.976Q296.672,1.928,298.04,2.216Q299.408,2.504,300.368,3.032Q301.04,3.32,301.04,4.136Q301.04,4.28,300.944,4.568L300.704,6.008L300.56,7.976L300.464,9.032L300.896,8.888Q301.424,8.744,301.664,8.744Q301.952,8.744,302.288,8.888Q302.96,9.224,303.536,9.896Q304.496,7.928,305.024,6.008Q305.168,5.288,305.696,5.288Q305.984,5.288,306.128,5.336Q307.664,5.816,308.81600000000003,6.704Q309.968,7.592,310.4,8.552Q310.544,8.744,310.544,8.984Q310.544,9.608,309.776,10.376Q309.536,10.664,308.79200000000003,11.48Q308.048,12.296,307.616,12.968Q306.992,13.88,305.88800000000003,15.272L306.032,15.224Q306.416,15.08,306.656,15.08Q306.992,15.08,307.616,15.32Q308.288,15.656,309.032,16.496Q309.776,17.336,310.11199999999997,17.912Q310.352,18.392,310.352,18.728Q310.352,19.064,310.13599999999997,19.28Q309.92,19.496,309.632,19.496Q305.696,19.496,302,19.88Q300.56,21.512,298.64,23.288Q300.512,22.952,302.096,22.376Q302.672,22.184,302.86400000000003,22.184Q303.344,22.184,304.448,22.76Q305.79200000000003,23.768,306.704,24.824Q307.13599999999997,25.4,307.13599999999997,25.784Q307.13599999999997,26.36,305.984,26.744Q304.976,27.032,301.568,28.568L299.504,29.48Q300.512,30.248,301.424,31.352L308.096,29.624Q308.86400000000003,29.432,309.344,29.432Q309.776,29.432,309.776,29.624Q309.776,29.816,309.104,30.248Q307.08799999999997,31.448,302.624,33.416Q303.296,35.144,303.296,37.304Q303.296,39.512,302.528,42.248Q302.096,43.688,300.848,45.152Q299.6,46.616,298.256,47.048Q297.536,47.288,297.152,47.288Q296.528,47.288,295.856,46.616Q294.416,44.648,293.6,43.664Q292.784,42.68,291.92,42.104Q291.488,41.768,291.488,41.48Q291.488,41,292.4,41.096Q294.224,41.336,296.048,41.336Q296.528,41.336,296.696,41.192Q296.86400000000003,41.048,297.056,40.52Q297.776,38.648,297.68,35.576Q294.848,36.872,292.448,38.168Q292.15999999999997,38.312,291.368,38.696Q290.576,39.08,290.048,39.08Q289.424,39.08,288.752,38.552Q287.408,37.256,286.856,36.632Q286.304,36.008,286.016,35.24Q285.92,34.856,285.92,34.712Q285.92,34.424,286.20799999999997,34.28Q286.496,34.136,287.312,34.136Q290.24,34.136,297.248,32.408Q296.86400000000003,30.488,296,29.192Q295.76,28.808,295.76,28.472Q295.76,28.088,296.192,28.088Q296.432,28.088,297.152,28.328Q297.968,28.616,298.736,29.048Q299.216,28.472,299.648,27.656Q300.08,26.84,300.272,26.216Q300.368,25.928,300.128,26.024Q298.352,26.552,297.632,26.888Q296.76800000000003,27.128,296.336,27.128Q295.808,27.128,295.52,26.888Q295.328,26.696,294.944,26.408Q290.86400000000003,29.48,287.024,30.824ZM300.08,15.752Q300.944,14.504,301.904,12.92L300.224,13.304L300.08,15.752ZM304.06399999999996,43.832Q306.704,42.488,309.536,39.584Q312.368,36.68,314.384,33.176Q311.84000000000003,28.664,310.832,26.744Q310.64,26.36,310.20799999999997,25.928Q308.72,27.416,306.848,28.52Q306.752,28.568,306.608,28.568Q306.512,28.568,306.416,28.472Q306.32,28.376,306.32,28.184Q306.32,28.04,306.464,27.752Q309.008,23.576,310.4,19.328Q311.79200000000003,15.08,312.272,12.032Q312.752,8.984,312.992,5.816Q313.08799999999997,3.656,312.704,2.408Q312.512,1.496,313.23199999999997,1.496Q313.424,1.496,314.192,1.688Q317.216,2.744,318.608,4.136Q319.568,4.952,319.568,6.104Q319.568,7.304,318.512,9.848Q318.03200000000004,11,317.456,12.872L316.496,15.704Q320.24,14.84,323.456,13.688Q324.32,13.448,324.94399999999996,13.448Q326.24,13.448,327.00800000000004,14.216Q328.448,15.752,328.88,16.376Q329.072,16.76,329.072,17.096Q329.072,18.248,326.81600000000003,18.536Q326.048,18.632,325.568,18.632Q322.784,18.824,320.384,19.256Q321.392,19.688,322.15999999999997,20.288Q322.928,20.888,323.216,21.464Q323.456,21.8,323.456,22.472Q323.456,23.096,323.192,23.96Q322.928,24.824,322.832,25.256Q321.824,29.72,320.192,33.032Q323.504,36.68,325.568,38.36Q328.832,40.76,331.376,42.008Q332.528,42.68,332.528,43.112Q332.528,43.64,330.99199999999996,43.928Q329.93600000000004,44.264,328.496,44.456Q327.05600000000004,44.648,326.72,44.696L325.568,44.84Q325.28,44.888,324.704,44.888Q323.456,44.888,322.376,44.408Q321.296,43.928,320.672,43.112Q319.03999999999996,40.856,317.168,37.832Q314.624,41,311.312,42.752Q308,44.504,304.15999999999997,44.792L303.776,44.792Q303.152,44.792,303.152,44.552Q303.152,44.312,304.06399999999996,43.832ZM311.744,24.344Q312.56,24.584,313.304,25.088Q314.048,25.592,314.48,26.12L316.4,28.568Q316.976,26.888,317.12,25.256Q317.216,24.008,317.216,23.528Q317.216,22.184,317.024,21.152Q316.832,20.12,316.784,19.976Q316.544,20.024,316.11199999999997,20.024Q315.44,20.024,314.76800000000003,19.736Q313.328,22.472,311.744,24.344ZM351.2,26.12Q350.91200000000003,26.312,350.336,26.624Q349.76,26.936,348.89599999999996,27.464Q341.93600000000004,31.496,341.312,32.024Q340.15999999999997,32.984,339.488,32.984Q338.86400000000003,32.984,338.24,32.36Q337.904,32.024,337.592,31.376Q337.28,30.728,337.08799999999997,30.224Q336.89599999999996,29.72,336.752,29.432Q336.656,29.24,336.656,29Q336.656,28.328,337.664,27.656Q339.824,26.12,342.272,22.952Q341.216,23.192,339.728,23.672Q338.96000000000004,23.96,338.76800000000003,23.96Q338.336,23.96,337.952,23.624Q336.752,22.808,335.79200000000003,20.792Q335.648,20.36,335.648,20.216Q335.648,19.88,335.88800000000003,19.64Q338.288,16.712,339.656,14.192Q341.024,11.672,341.88800000000003,9.032Q342.848,6.344,342.848,3.992Q342.848,3.512,343.424,3.512Q343.76,3.512,344.624,3.896Q345.632,4.376,346.856,5.264Q348.08000000000004,6.152,348.416,6.68Q348.8,7.208,348.8,7.64Q348.8,8.264,347.744,9.704Q346.20799999999997,11.864,342.272,18.632Q344.192,18.44,345.44,18.296L346.20799999999997,17Q347.072,15.56,347.576,14.456Q348.08000000000004,13.352,348.512,11.912Q348.704,11.576,348.99199999999996,11.576Q349.424,11.576,350.288,12.152Q351.152,12.728,351.94399999999996,13.52Q352.736,14.312,353.12,14.984Q353.312,15.32,353.312,15.704Q353.312,16.76,352.15999999999997,17.912Q347.408,22.376,342.224,27.032L343.328,26.84Q347.312,26.12,350.24,25.448Q351.05600000000004,25.256,351.536,25.256Q351.91999999999996,25.256,351.91999999999996,25.4Q351.91999999999996,25.592,351.2,26.12ZM335.84000000000003,37.736Q335.696,37.352,335.696,36.968Q335.696,36.44,335.93600000000004,36.104Q336.176,35.768,336.656,35.768Q337.568,35.768,338.24,35.648Q338.91200000000003,35.528,339.776,35.24L340.88,34.856Q344.528,33.608,347.216,32.624Q349.904,31.64,352.20799999999997,30.488Q352.352,30.392,352.64,30.392Q351.536,28.664,351.536,27.704Q351.536,27.128,351.824,26.72Q352.11199999999997,26.312,352.736,25.688L353.504,24.872Q353.79200000000003,24.488,354.272,23.576Q353.6,23.528,352.88,22.712Q351.632,21.368,351.296,19.736Q351.2,19.4,351.248,19.304Q351.248,18.968,351.512,18.896Q351.776,18.824,352.28,18.824Q352.784,18.824,353.024,18.824Q354.368,18.824,356.144,18.536L356.86400000000003,16.232Q356.384,16.328,356.192,16.328Q355.13599999999997,16.328,354.08000000000004,15.512Q353.504,15.08,352.952,14.432Q352.4,13.784,352.11199999999997,13.208Q351.872,12.728,351.872,12.296Q351.872,11.912,352.20799999999997,11.744Q352.544,11.576,353.216,11.528Q355.28,11.384,358.4,11Q358.976,8.888,359.264,8.072Q359.744,6.536,359.84000000000003,5.48Q359.93600000000004,4.424,359.93600000000004,3.272Q359.93600000000004,2.36,360.08000000000004,2.024Q360.224,1.688,360.752,1.736Q361.904,1.832,362.96000000000004,2.48Q364.01599999999996,3.128,364.736,3.92Q365.456,4.712,365.696,5.144Q365.84000000000003,5.48,365.84000000000003,5.864Q365.84000000000003,6.536,365.12,7.784Q364.784,8.36,364.20799999999997,10.04Q365.696,9.752,367.904,9.272Q368.96000000000004,9.032,369.488,9.032Q370.20799999999997,9.032,370.616,9.224Q371.024,9.416,371.408,9.8Q371.79200000000003,10.184,372.512,11.096Q373.23199999999997,12.008,373.472,12.584Q373.664,12.968,373.664,13.304Q373.664,13.784,373.328,14Q372.99199999999996,14.216,372.56,14.216Q368.48,14.264,362.288,15.224Q362.144,15.608,361.952,16.184Q361.76,16.76,361.424,17.528Q362.288,17.336,363.152,16.664Q363.584,16.376,363.96799999999996,16.376Q364.352,16.376,364.832,16.664Q365.648,17.096,366.89599999999996,17.912Q368.144,18.728,368.528,19.256Q368.81600000000003,19.688,368.81600000000003,20.024Q368.81600000000003,20.408,368.528,20.816Q368.24,21.224,368.144,21.368Q367.712,21.896,367.376,24.152L370.256,23.672Q371.12,23.576,371.408,23.576Q372.512,23.576,373.28,24.008Q374,24.44,374.696,25.424Q375.392,26.408,375.584,27.224Q375.68,27.704,375.68,27.896Q375.68,28.52,375.2,28.808Q374.72,29.096,373.664,29Q372.224,28.856,366.94399999999996,29.384Q366.704,33.704,366.704,39.08Q366.656,40.088,366.656,41.24Q366.608,43.592,365.528,45.248Q364.448,46.904,363.152,47.528Q362.86400000000003,47.672,362.48,47.672Q361.712,47.672,361.13599999999997,46.856L360.56,46.04Q359.6,44.552,358.88,43.64Q358.15999999999997,42.728,357.248,42.104Q356.528,41.576,356.528,41.336Q356.528,41.144,356.86400000000003,41.144Q357.248,41.144,357.584,41.288Q359.024,41.528,359.36,41.528Q359.98400000000004,41.528,360.2,41.096Q360.416,40.664,360.464,40.136Q360.512,39.608,360.56,39.416Q360.752,37.784,361.03999999999996,30.104Q356.048,30.872,355.23199999999997,31.304Q354.89599999999996,31.544,354.272,31.544Q353.552,31.544,353.312,31.256L352.784,30.632Q352.784,30.68,352.688,30.776Q349.664,34.184,346.832,36.728Q344,39.272,339.824,42.584Q339.344,42.92,338.91200000000003,42.92Q338.288,42.92,337.808,42.344Q337.28,41.816,336.608,39.92Q335.93600000000004,38.024,335.84000000000003,37.736ZM346.976,41.624Q348.99199999999996,39.752,350.576,37.712Q352.15999999999997,35.672,352.64,34.04Q352.832,33.56,352.928,32.792Q353.024,32.264,353.144,32.048Q353.264,31.832,353.6,31.736Q353.98400000000004,31.64,354.272,31.64Q355.664,31.64,357.152,32.576Q358.64,33.512,358.832,34.472Q359.024,35.048,359.024,35.384Q359.024,36.248,358.20799999999997,37.112Q356.576,38.984,353.624,40.64Q350.672,42.296,347.98400000000004,42.968Q347.84000000000003,43.016,347.552,43.016Q347.168,43.016,346.904,42.824Q346.64,42.632,346.64,42.344Q346.64,41.96,346.976,41.624ZM361.23199999999997,25.112Q361.23199999999997,23.96,361.328,22.136L359.552,22.424Q358.688,24.44,358.01599999999996,25.64L361.23199999999997,25.112ZM367.952,32.456Q367.712,32.216,367.712,31.976Q367.712,31.736,367.952,31.616Q368.192,31.496,368.576,31.592Q371.456,32.264,373.904,33.392Q376.352,34.52,377.312,35.864Q377.98400000000004,36.872,377.98400000000004,38.072Q377.98400000000004,39.608,377.024,41Q376.06399999999996,42.392,374.91200000000003,42.92Q374.432,43.16,374.096,43.16Q373.328,43.16,372.8,41.576Q372.224,39.368,370.688,36.488Q369.152,33.608,367.952,32.456Z" fill="url(#master_svg0_53_6502)" fill-opacity="1"/><path d="M190.976,32.936Q190.784,32.984,190.448,32.984Q189.824,32.984,189.824,32.552Q189.824,32.024,190.592,31.496Q193.808,29.672,197.768,26.624Q201.728,23.576,203.408,21.32L204.07999999999998,20.312Q198.368,20.888,196.448,21.416Q195.44,21.656,194.12,20.552Q192.8,19.448,192.032,17.624Q191.936,17.336,191.936,17.192Q191.936,16.424,194.096,16.424Q195.728,16.424,203.312,15.8Q202.832,15.272,201.968,14.12Q200.912,12.68,200.24,12.008Q200.096,11.864,200.096,11.672Q200.096,11.48,200.288,11.432Q201.872,11,203.312,11Q206.624,11,206.816,13.784L206.816,14.216Q206.816,14.936,206.624,15.464L207.776,15.368Q207.632,11.816,207.008,10.28Q206.864,9.896,207.008,9.656Q201.584,10.52,199.232,10.568Q198.56,10.568,198.56,10.232Q198.56,9.896,199.328,9.608Q202.16,8.648,206.816,6.488Q211.472,4.328,212.864,3.128Q213.68,2.36,214.04,1.904Q214.4,1.448,214.736,0.776001Q215.216,0.104,215.888,0.104Q216.272,0.104,216.656,0.343998Q217.952,1.16,219.07999999999998,2.264Q220.208,3.368,220.496,4.472Q220.59199999999998,4.856,220.448,5.408Q220.304,5.96,219.536,6.248Q217.61599999999999,7.112,216.944,7.304Q214.448,8.264,208.4,9.368Q209.40800000000002,9.464,210.296,9.824Q211.184,10.184,212.48,10.904Q213.008,11.192,213.152,11.576Q213.296,11.96,213.296,12.824L213.296,14.744L213.488,14.744Q214.448,13.496,215.024,12.152Q215.6,10.808,216.224,8.888Q216.272,8.552,216.512,8.36Q216.752,8.168,217.088,8.168Q217.424,8.168,217.568,8.264Q218.864,9.272,219.392,9.8Q219.92000000000002,10.328,220.448,11.24Q220.64,11.528,220.64,11.864Q220.64,12.392,220.112,13.064Q219.728,13.544,218.912,14.072L219.92000000000002,13.928Q222.704,13.4,222.56,13.448Q224.096,13.016,224.912,13.016Q225.632,13.016,226.112,13.304Q227.12,14.12,227.912,15.2Q228.704,16.28,228.89600000000002,17.192Q228.992,17.816,228.632,18.296Q228.272,18.776,227.40800000000002,18.776Q222.128,18.776,215.456,19.304Q219.056,21.56,224.24,23.936Q229.424,26.312,232.976,27.272Q234.07999999999998,27.608,234.07999999999998,28.04Q234.07999999999998,28.424,233.36,28.808Q229.808,30.872,227.40800000000002,31.256Q226.4,31.448,225.392,31.448Q224.144,31.448,223.328,31.064L223.424,31.208Q223.52,31.496,223.52,31.592Q223.52,31.88,223.28,32.408Q223.04,32.936,222.89600000000002,33.368Q222.704,33.848,222.632,35.072Q222.56,36.296,222.512,37.64Q222.464,39.32,222.32,41.096Q222.176,42.872,221.888,43.976Q221.40800000000002,46.088,220.424,47.072Q219.44,48.056,217.712,48.296Q216.272,48.44,216.032,46.376Q215.984,45.752,215.696,44.888L215.648,44.888Q214.736,44.888,210.92000000000002,45.272Q207.10399999999998,45.656,206.096,45.8L205.856,45.8Q205.424,45.8,204.944,45.56Q204.656,46.664,203.984,47.36Q203.312,48.056,202.688,48.056Q201.584,48.056,200.048,45.224Q199.76,44.648,199.76,43.928L199.808,38.504Q199.808,34.136,199.568,32.696Q199.376,31.16,198.89600000000002,30.2Q194.72,32.168,190.976,32.936ZM202.448,28.28Q204.128,28.76,204.8,29.576Q207.776,29.336,208.688,29.24L208.016,28.616Q207.10399999999998,27.8,207.10399999999998,26.888Q207.10399999999998,26.504,207.2,26.312Q207.344,25.976,207.488,24.008L206.144,25.304Q204.848,26.648,202.448,28.28ZM204.848,33.464Q204.944,35,204.944,35.48L208.016,35.192L207.824,33.128Q207.10399999999998,33.224,204.848,33.464ZM208.208,41.672Q208.016,40.952,208.064,40.232Q208.112,39.896,208.112,39.176L206.24,39.416Q206,39.416,205.688,39.44Q205.376,39.464,204.992,39.416L204.992,41.96L208.208,41.672ZM212.72,32.552Q213.10399999999998,32.84,213.248,33.08Q213.296,33.176,213.296,33.464Q213.296,33.8,213.248,34.088Q213.2,34.376,213.152,34.568Q214.016,34.472,214.4,34.472Q215.504,34.472,216.07999999999998,35.048Q216.992,36.056,217.328,36.968Q217.328,34.712,217.28,33.272Q217.28,32.744,217.04,32.432Q216.8,32.12,216.368,32.168L212.72,32.552ZM212.912,41.144Q214.544,40.952,214.928,40.952Q215.744,40.952,216.224,41.192Q216.464,41.336,216.8,41.672Q217.184,40.28,217.28,37.976Q216.944,38.216,215.888,38.312Q214.736,38.408,213.008,38.648Q213.008,40.328,212.912,41.144ZM213.392,28.808Q216.07999999999998,28.472,216.512,28.376Q216.8,28.328,217.856,27.992Q218.48,27.656,218.96,27.608Q215.6,24.632,213.44,22.424Q213.44,23.864,213.536,24.92Q213.632,25.592,213.632,26.744Q213.632,28.088,213.392,28.808ZM257.984,18.92Q257.504,18.92,257.048,18.728Q256.592,18.536,256.15999999999997,18.296Q255.728,18.056,255.44,17.912Q254.864,17.528,254.50400000000002,16.616Q254.144,15.704,254.144,14.936L254.048,14.36Q248.864,15.272,246.848,16.04Q246.704,16.088,246.416,16.088Q245.36,16.088,244.064,15.032Q242.768,13.976,242.048,12.488L241.952,12.104Q241.952,11.72,242.192,11.552Q242.43200000000002,11.384,242.72,11.384Q245.36,11.24,253.184,10.136Q251.936,5.672,250.736,4.28Q250.4,3.848,250.4,3.608Q250.4,2.984,251.84,3.032Q254.288,3.224,255.848,3.656Q257.408,4.088,258.032,4.952Q258.368,5.288,258.416,5.912Q258.464,6.536,258.464,7.88L258.512,9.368Q260.624,9.08,264.032,8.552L264.08,7.304Q264.08,4.472,263.504,3.032Q263.216,2.168,263.216,1.928Q263.216,1.352,264.224,1.4Q266.384,1.592,268.376,2.36Q270.368,3.128,271.18399999999997,4.28Q271.376,4.472,271.376,4.808Q271.376,5.24,270.944,6.008Q270.656,6.632,270.512,7.064L270.368,7.544Q271.76,7.304,275.264,6.632Q275.984,6.44,276.56,6.44Q277.28,6.44,277.952,6.824Q278.91200000000003,7.448,279.56,8.576Q280.20799999999997,9.704,280.496,10.76Q280.592,11.144,280.592,11.288Q280.592,12.008,279.104,11.96L277.472,11.912Q273.776,11.912,268.352,12.392Q266.192,16.712,263.312,19.016Q262.928,19.352,262.544,19.352Q262.15999999999997,19.352,261.992,18.992Q261.824,18.632,261.92,18.296Q263.024,15.368,263.504,12.92Q261.44,13.16,258.56,13.592L258.656,18.44Q258.656,18.92,257.984,18.92ZM238.112,46.904Q244.4,40.232,246.848,30.488Q245.84,30.824,245.168,30.824Q244.256,30.824,243.728,30.344Q243.392,30.104,242.6,29.504Q241.808,28.904,241.424,28.376Q241.088,27.896,241.088,27.512Q241.088,26.792,242.38400000000001,26.696Q244.832,26.504,247.76,25.64Q247.856,25.064,247.856,24.92Q247.904,24.248,247.904,22.904Q247.904,20.408,247.56799999999998,18.92Q247.52,18.68,247.424,18.296Q247.328,17.912,247.328,17.72Q247.328,16.904,248.288,17.048Q251.552,17.432,253.51999999999998,19.544Q254.144,20.12,254.144,20.792Q254.144,21.176,253.976,21.728Q253.808,22.28,253.56799999999998,22.904Q253.47199999999998,23.144,253.376,23.816L254.24,23.528Q254.336,23.48,255.03199999999998,23.192Q255.728,22.904,256.448,22.904Q256.88,22.904,257.072,23Q260.192,24.536,261.392,25.976Q261.92,26.648,261.92,27.176Q261.92,27.608,261.584,28.28Q261.248,29,261.104,29.72Q260.86400000000003,32.552,260.12,36.704Q259.376,40.856,258.608,43.112Q257.88800000000003,45.224,256.688,46.424Q255.488,47.624,253.712,48.296Q253.424,48.392,253.184,48.392Q252.272,48.392,251.552,47Q251.024,45.944,250.304,45.176Q249.584,44.408,247.904,42.872Q247.52,42.536,247.52,42.296Q247.52,42.152,247.736,42.032Q247.952,41.912,248.192,41.912Q248.576,41.912,249.392,41.912Q250.208,41.912,251.552,41.816Q252.272,41.768,252.68,41.576Q253.088,41.384,253.184,40.904Q254.144,37.736,254.576,35.264Q255.00799999999998,32.792,255.296,29Q255.344,28.52,255.224,28.304Q255.10399999999998,28.088,254.768,28.088Q254.624,28.088,253.856,28.28L252.368,28.808Q250.784,36.008,247.76,40.688Q244.736,45.368,238.832,48.008Q238.736,48.056,238.54399999999998,48.056Q238.256,48.056,238.112,47.864Q237.96800000000002,47.672,237.96800000000002,47.384Q237.96800000000002,47.144,238.112,46.904ZM262.352,22.664Q262.304,22.52,262.304,22.28Q262.304,21.896,262.568,21.656Q262.832,21.416,263.216,21.464Q264.8,21.56,266.264,22.208Q267.728,22.856,268.496,23.72L268.736,24.008L268.784,24.008Q270.08,23.768,271.424,23.192Q272.76800000000003,22.616,273.44,22.184Q274.016,21.8,274.448,21.8Q274.784,21.8,275.072,21.944Q276.224,22.28,276.992,22.736Q277.76,23.192,278.86400000000003,24.056Q279.68,24.68,279.68,25.448Q279.68,25.832,279.392,26.36Q279.056,26.84,278.984,27.296Q278.91200000000003,27.752,278.81600000000003,29.096Q278.72,31.4,278.72,32.408Q278.72,33.656,278.76800000000003,34.328L278.81600000000003,37.064Q278.81600000000003,38.6,278.216,39.488Q277.616,40.376,276.272,41.432Q274.88,42.488,274.016,42.488Q273.248,42.488,272.72,41.672L271.28,39.56Q270.368,39.656,268.352,40.04Q268.4,42.104,267.68,43.304Q266.96,44.504,265.856,44.6Q265.23199999999997,44.6,264.368,43.712Q263.504,42.824,262.952,41.552Q262.4,40.28,262.592,39.176Q262.736,37.88,262.856,35.312Q262.976,32.744,262.976,30.152Q262.976,24.392,262.352,22.664ZM268.20799999999997,35.912Q270.8,35.48,272.96,35.288Q273.2,33.56,273.2,28.472Q273.2,28.088,272.93600000000004,27.944Q272.672,27.8,272.24,27.944Q271.328,28.136,268.688,28.424L268.592,29.576Q268.352,32.6,268.20799999999997,35.912ZM287.024,30.824Q286.928,30.872,286.784,30.872Q286.544,30.872,286.544,30.68Q286.544,30.488,286.88,30.152Q291.296,26.696,296.192,20.84Q293.6,21.416,291.056,22.376Q290.672,22.568,290.144,22.568Q289.52,22.568,288.656,22.088Q287.648,21.656,286.448,20.024Q286.256,19.784,286.256,19.448Q286.256,19.064,286.88,19.016Q290,18.872,295.28,17.96L295.424,14.456L294.272,14.744Q293.696,14.84,293.408,14.84Q292.64,14.84,291.92,14.6Q290.72,14.072,289.76,12.344Q289.52,12.008,289.52,11.816Q289.52,11.432,290.144,11.432Q292.88,11.24,295.52,10.616Q295.52,3.848,294.848,2.648Q294.8,2.504,294.8,2.312Q294.8,1.976,295.18399999999997,1.976Q296.672,1.928,298.04,2.216Q299.408,2.504,300.368,3.032Q301.04,3.32,301.04,4.136Q301.04,4.28,300.944,4.568L300.704,6.008L300.56,7.976L300.464,9.032L300.896,8.888Q301.424,8.744,301.664,8.744Q301.952,8.744,302.288,8.888Q302.96,9.224,303.536,9.896Q304.496,7.928,305.024,6.008Q305.168,5.288,305.696,5.288Q305.984,5.288,306.128,5.336Q307.664,5.816,308.81600000000003,6.704Q309.968,7.592,310.4,8.552Q310.544,8.744,310.544,8.984Q310.544,9.608,309.776,10.376Q309.536,10.664,308.79200000000003,11.48Q308.048,12.296,307.616,12.968Q306.992,13.88,305.88800000000003,15.272L306.032,15.224Q306.416,15.08,306.656,15.08Q306.992,15.08,307.616,15.32Q308.288,15.656,309.032,16.496Q309.776,17.336,310.11199999999997,17.912Q310.352,18.392,310.352,18.728Q310.352,19.064,310.13599999999997,19.28Q309.92,19.496,309.632,19.496Q305.696,19.496,302,19.88Q300.56,21.512,298.64,23.288Q300.512,22.952,302.096,22.376Q302.672,22.184,302.86400000000003,22.184Q303.344,22.184,304.448,22.76Q305.79200000000003,23.768,306.704,24.824Q307.13599999999997,25.4,307.13599999999997,25.784Q307.13599999999997,26.36,305.984,26.744Q304.976,27.032,301.568,28.568L299.504,29.48Q300.512,30.248,301.424,31.352L308.096,29.624Q308.86400000000003,29.432,309.344,29.432Q309.776,29.432,309.776,29.624Q309.776,29.816,309.104,30.248Q307.08799999999997,31.448,302.624,33.416Q303.296,35.144,303.296,37.304Q303.296,39.512,302.528,42.248Q302.096,43.688,300.848,45.152Q299.6,46.616,298.256,47.048Q297.536,47.288,297.152,47.288Q296.528,47.288,295.856,46.616Q294.416,44.648,293.6,43.664Q292.784,42.68,291.92,42.104Q291.488,41.768,291.488,41.48Q291.488,41,292.4,41.096Q294.224,41.336,296.048,41.336Q296.528,41.336,296.696,41.192Q296.86400000000003,41.048,297.056,40.52Q297.776,38.648,297.68,35.576Q294.848,36.872,292.448,38.168Q292.15999999999997,38.312,291.368,38.696Q290.576,39.08,290.048,39.08Q289.424,39.08,288.752,38.552Q287.408,37.256,286.856,36.632Q286.304,36.008,286.016,35.24Q285.92,34.856,285.92,34.712Q285.92,34.424,286.20799999999997,34.28Q286.496,34.136,287.312,34.136Q290.24,34.136,297.248,32.408Q296.86400000000003,30.488,296,29.192Q295.76,28.808,295.76,28.472Q295.76,28.088,296.192,28.088Q296.432,28.088,297.152,28.328Q297.968,28.616,298.736,29.048Q299.216,28.472,299.648,27.656Q300.08,26.84,300.272,26.216Q300.368,25.928,300.128,26.024Q298.352,26.552,297.632,26.888Q296.76800000000003,27.128,296.336,27.128Q295.808,27.128,295.52,26.888Q295.328,26.696,294.944,26.408Q290.86400000000003,29.48,287.024,30.824ZM300.08,15.752Q300.944,14.504,301.904,12.92L300.224,13.304L300.08,15.752ZM304.06399999999996,43.832Q306.704,42.488,309.536,39.584Q312.368,36.68,314.384,33.176Q311.84000000000003,28.664,310.832,26.744Q310.64,26.36,310.20799999999997,25.928Q308.72,27.416,306.848,28.52Q306.752,28.568,306.608,28.568Q306.512,28.568,306.416,28.472Q306.32,28.376,306.32,28.184Q306.32,28.04,306.464,27.752Q309.008,23.576,310.4,19.328Q311.79200000000003,15.08,312.272,12.032Q312.752,8.984,312.992,5.816Q313.08799999999997,3.656,312.704,2.408Q312.512,1.496,313.23199999999997,1.496Q313.424,1.496,314.192,1.688Q317.216,2.744,318.608,4.136Q319.568,4.952,319.568,6.104Q319.568,7.304,318.512,9.848Q318.03200000000004,11,317.456,12.872L316.496,15.704Q320.24,14.84,323.456,13.688Q324.32,13.448,324.94399999999996,13.448Q326.24,13.448,327.00800000000004,14.216Q328.448,15.752,328.88,16.376Q329.072,16.76,329.072,17.096Q329.072,18.248,326.81600000000003,18.536Q326.048,18.632,325.568,18.632Q322.784,18.824,320.384,19.256Q321.392,19.688,322.15999999999997,20.288Q322.928,20.888,323.216,21.464Q323.456,21.8,323.456,22.472Q323.456,23.096,323.192,23.96Q322.928,24.824,322.832,25.256Q321.824,29.72,320.192,33.032Q323.504,36.68,325.568,38.36Q328.832,40.76,331.376,42.008Q332.528,42.68,332.528,43.112Q332.528,43.64,330.99199999999996,43.928Q329.93600000000004,44.264,328.496,44.456Q327.05600000000004,44.648,326.72,44.696L325.568,44.84Q325.28,44.888,324.704,44.888Q323.456,44.888,322.376,44.408Q321.296,43.928,320.672,43.112Q319.03999999999996,40.856,317.168,37.832Q314.624,41,311.312,42.752Q308,44.504,304.15999999999997,44.792L303.776,44.792Q303.152,44.792,303.152,44.552Q303.152,44.312,304.06399999999996,43.832ZM311.744,24.344Q312.56,24.584,313.304,25.088Q314.048,25.592,314.48,26.12L316.4,28.568Q316.976,26.888,317.12,25.256Q317.216,24.008,317.216,23.528Q317.216,22.184,317.024,21.152Q316.832,20.12,316.784,19.976Q316.544,20.024,316.11199999999997,20.024Q315.44,20.024,314.76800000000003,19.736Q313.328,22.472,311.744,24.344ZM351.2,26.12Q350.91200000000003,26.312,350.336,26.624Q349.76,26.936,348.89599999999996,27.464Q341.93600000000004,31.496,341.312,32.024Q340.15999999999997,32.984,339.488,32.984Q338.86400000000003,32.984,338.24,32.36Q337.904,32.024,337.592,31.376Q337.28,30.728,337.08799999999997,30.224Q336.89599999999996,29.72,336.752,29.432Q336.656,29.24,336.656,29Q336.656,28.328,337.664,27.656Q339.824,26.12,342.272,22.952Q341.216,23.192,339.728,23.672Q338.96000000000004,23.96,338.76800000000003,23.96Q338.336,23.96,337.952,23.624Q336.752,22.808,335.79200000000003,20.792Q335.648,20.36,335.648,20.216Q335.648,19.88,335.88800000000003,19.64Q338.288,16.712,339.656,14.192Q341.024,11.672,341.88800000000003,9.032Q342.848,6.344,342.848,3.992Q342.848,3.512,343.424,3.512Q343.76,3.512,344.624,3.896Q345.632,4.376,346.856,5.264Q348.08000000000004,6.152,348.416,6.68Q348.8,7.208,348.8,7.64Q348.8,8.264,347.744,9.704Q346.20799999999997,11.864,342.272,18.632Q344.192,18.44,345.44,18.296L346.20799999999997,17Q347.072,15.56,347.576,14.456Q348.08000000000004,13.352,348.512,11.912Q348.704,11.576,348.99199999999996,11.576Q349.424,11.576,350.288,12.152Q351.152,12.728,351.94399999999996,13.52Q352.736,14.312,353.12,14.984Q353.312,15.32,353.312,15.704Q353.312,16.76,352.15999999999997,17.912Q347.408,22.376,342.224,27.032L343.328,26.84Q347.312,26.12,350.24,25.448Q351.05600000000004,25.256,351.536,25.256Q351.91999999999996,25.256,351.91999999999996,25.4Q351.91999999999996,25.592,351.2,26.12ZM335.84000000000003,37.736Q335.696,37.352,335.696,36.968Q335.696,36.44,335.93600000000004,36.104Q336.176,35.768,336.656,35.768Q337.568,35.768,338.24,35.648Q338.91200000000003,35.528,339.776,35.24L340.88,34.856Q344.528,33.608,347.216,32.624Q349.904,31.64,352.20799999999997,30.488Q352.352,30.392,352.64,30.392Q351.536,28.664,351.536,27.704Q351.536,27.128,351.824,26.72Q352.11199999999997,26.312,352.736,25.688L353.504,24.872Q353.79200000000003,24.488,354.272,23.576Q353.6,23.528,352.88,22.712Q351.632,21.368,351.296,19.736Q351.2,19.4,351.248,19.304Q351.248,18.968,351.512,18.896Q351.776,18.824,352.28,18.824Q352.784,18.824,353.024,18.824Q354.368,18.824,356.144,18.536L356.86400000000003,16.232Q356.384,16.328,356.192,16.328Q355.13599999999997,16.328,354.08000000000004,15.512Q353.504,15.08,352.952,14.432Q352.4,13.784,352.11199999999997,13.208Q351.872,12.728,351.872,12.296Q351.872,11.912,352.20799999999997,11.744Q352.544,11.576,353.216,11.528Q355.28,11.384,358.4,11Q358.976,8.888,359.264,8.072Q359.744,6.536,359.84000000000003,5.48Q359.93600000000004,4.424,359.93600000000004,3.272Q359.93600000000004,2.36,360.08000000000004,2.024Q360.224,1.688,360.752,1.736Q361.904,1.832,362.96000000000004,2.48Q364.01599999999996,3.128,364.736,3.92Q365.456,4.712,365.696,5.144Q365.84000000000003,5.48,365.84000000000003,5.864Q365.84000000000003,6.536,365.12,7.784Q364.784,8.36,364.20799999999997,10.04Q365.696,9.752,367.904,9.272Q368.96000000000004,9.032,369.488,9.032Q370.20799999999997,9.032,370.616,9.224Q371.024,9.416,371.408,9.8Q371.79200000000003,10.184,372.512,11.096Q373.23199999999997,12.008,373.472,12.584Q373.664,12.968,373.664,13.304Q373.664,13.784,373.328,14Q372.99199999999996,14.216,372.56,14.216Q368.48,14.264,362.288,15.224Q362.144,15.608,361.952,16.184Q361.76,16.76,361.424,17.528Q362.288,17.336,363.152,16.664Q363.584,16.376,363.96799999999996,16.376Q364.352,16.376,364.832,16.664Q365.648,17.096,366.89599999999996,17.912Q368.144,18.728,368.528,19.256Q368.81600000000003,19.688,368.81600000000003,20.024Q368.81600000000003,20.408,368.528,20.816Q368.24,21.224,368.144,21.368Q367.712,21.896,367.376,24.152L370.256,23.672Q371.12,23.576,371.408,23.576Q372.512,23.576,373.28,24.008Q374,24.44,374.696,25.424Q375.392,26.408,375.584,27.224Q375.68,27.704,375.68,27.896Q375.68,28.52,375.2,28.808Q374.72,29.096,373.664,29Q372.224,28.856,366.94399999999996,29.384Q366.704,33.704,366.704,39.08Q366.656,40.088,366.656,41.24Q366.608,43.592,365.528,45.248Q364.448,46.904,363.152,47.528Q362.86400000000003,47.672,362.48,47.672Q361.712,47.672,361.13599999999997,46.856L360.56,46.04Q359.6,44.552,358.88,43.64Q358.15999999999997,42.728,357.248,42.104Q356.528,41.576,356.528,41.336Q356.528,41.144,356.86400000000003,41.144Q357.248,41.144,357.584,41.288Q359.024,41.528,359.36,41.528Q359.98400000000004,41.528,360.2,41.096Q360.416,40.664,360.464,40.136Q360.512,39.608,360.56,39.416Q360.752,37.784,361.03999999999996,30.104Q356.048,30.872,355.23199999999997,31.304Q354.89599999999996,31.544,354.272,31.544Q353.552,31.544,353.312,31.256L352.784,30.632Q352.784,30.68,352.688,30.776Q349.664,34.184,346.832,36.728Q344,39.272,339.824,42.584Q339.344,42.92,338.91200000000003,42.92Q338.288,42.92,337.808,42.344Q337.28,41.816,336.608,39.92Q335.93600000000004,38.024,335.84000000000003,37.736ZM346.976,41.624Q348.99199999999996,39.752,350.576,37.712Q352.15999999999997,35.672,352.64,34.04Q352.832,33.56,352.928,32.792Q353.024,32.264,353.144,32.048Q353.264,31.832,353.6,31.736Q353.98400000000004,31.64,354.272,31.64Q355.664,31.64,357.152,32.576Q358.64,33.512,358.832,34.472Q359.024,35.048,359.024,35.384Q359.024,36.248,358.20799999999997,37.112Q356.576,38.984,353.624,40.64Q350.672,42.296,347.98400000000004,42.968Q347.84000000000003,43.016,347.552,43.016Q347.168,43.016,346.904,42.824Q346.64,42.632,346.64,42.344Q346.64,41.96,346.976,41.624ZM361.23199999999997,25.112Q361.23199999999997,23.96,361.328,22.136L359.552,22.424Q358.688,24.44,358.01599999999996,25.64L361.23199999999997,25.112ZM367.952,32.456Q367.712,32.216,367.712,31.976Q367.712,31.736,367.952,31.616Q368.192,31.496,368.576,31.592Q371.456,32.264,373.904,33.392Q376.352,34.52,377.312,35.864Q377.98400000000004,36.872,377.98400000000004,38.072Q377.98400000000004,39.608,377.024,41Q376.06399999999996,42.392,374.91200000000003,42.92Q374.432,43.16,374.096,43.16Q373.328,43.16,372.8,41.576Q372.224,39.368,370.688,36.488Q369.152,33.608,367.952,32.456Z" fill="#6BC563" fill-opacity="1"/></g></g></svg>