<svg xmlns="http://www.w3.org/2000/svg" xmlns:xlink="http://www.w3.org/1999/xlink" fill="none" version="1.1" width="428" height="48.43994140625" viewBox="0 0 428 48.43994140625"><defs><linearGradient x1="428" y1="24" x2="188" y2="24" gradientUnits="userSpaceOnUse" id="master_svg0_53_5978"><stop offset="2.857142873108387%" stop-color="#474747" stop-opacity="1"/><stop offset="100%" stop-color="#151515" stop-opacity="1"/></linearGradient></defs><g><g><path d="M2.24,35.7C2.968,34.748000000000005,3.64,33.768,4.34,32.704L4.34,44.94L7.728,44.94L7.728,26.375999999999998C8.596,24.416,9.38,22.4,10.052,20.328L6.496,19.432C5.292,23.996000000000002,3.528,27.916,1.344,31.192C1.596,32.732,1.904,34.104,2.24,35.7ZM24.64,30.380000000000003L26.096,25.872L26.096,22.876L15.456,22.876C15.82,22.008,16.128,21.084,16.464,20.132L12.936,19.628C11.872,23.128,10.5,26.04,8.484,28.84C9.464,29.567999999999998,10.22,30.268,11.144,31.136C12.264,29.512,13.216,27.887999999999998,14.028,26.18L22.596,26.18L21.308,29.596C22.316,29.82,23.604,30.072,24.64,30.380000000000003ZM12.656,44.66C13.832,44.66,15.232,44.632000000000005,16.128,44.548C18.564,44.379999999999995,19.488,43.147999999999996,19.488,40.656L19.488,27.72L16.016,27.72L16.016,39.872C16.016,40.936,15.652,41.328,14.616,41.328C13.636,41.328,12.908,41.3,12.04,41.216C12.236,42.168,12.516,43.708,12.656,44.66ZM23.268,40.964L26.6,39.9C25.732,37.464,24.556,34.16,23.352,30.912L20.216,31.808C21.28,34.86,22.316,38.052,23.268,40.964ZM11.676,40.936C12.824,38.108000000000004,14.196,34.495999999999995,15.148,31.752000000000002L12.012,30.716C11.116,33.292,9.772,36.932,8.512,39.620000000000005C9.772,40.04,10.64,40.46,11.676,40.936ZM43.96,30.464C44.548,29.344,45.08,28.168,45.612,26.908L50.26,26.908C50.232,30.380000000000003,50.12,35.952,50.008,38.556C49.952,40.376000000000005,49.364,41.019999999999996,47.544,41.019999999999996C46.284,41.019999999999996,44.94,40.992000000000004,43.708,40.936C43.932,41.972,44.184,43.147999999999996,44.408,44.519999999999996C46.06,44.519999999999996,47.656,44.492000000000004,48.972,44.408C52.276,44.239999999999995,53.368,42.728,53.452,39.284C53.564,35.504000000000005,53.704,29.82,53.844,23.548000000000002L46.928,23.548000000000002L48.048,20.244L44.604,19.432C43.652,22.82,42.364,26.012,40.992,28.756L40.992,23.548000000000002L36.904,23.548000000000002C37.212,22.456,37.52,21.336,37.884,20.048000000000002L34.132,19.516C33.908,20.748,33.628,22.12,33.264,23.548000000000002L30.408,23.548000000000002L30.408,44.632000000000005L33.74,44.632000000000005L33.74,42.756L37.66,42.756L37.66,44.464L40.992,44.464L40.992,28.868000000000002C42,29.344,43.036,29.932000000000002,43.96,30.464ZM46.172,37.519999999999996L49.14,35.56C47.824,33.712,46.536,32.004,45.192,30.212L42.504,32.004C43.848,33.852000000000004,45.08,35.784,46.172,37.519999999999996ZM33.74,34.832L37.66,34.832L37.66,39.424L33.74,39.424L33.74,34.832ZM33.74,26.880000000000003L37.66,26.880000000000003L37.66,31.5L33.74,31.5L33.74,26.880000000000003ZM62.916,33.628L63.784,33.628C64.708,33.628,65.296,34.412,65.296,36.036C65.296,36.848,65.212,37.632000000000005,65.044,38.556C64.876,39.424,64.764,40.263999999999996,64.764,41.076C64.764,44.1,66.108,45.472,68.964,45.472L69.888,45.472L69.888,43.372L68.964,43.372C67.564,43.372,66.976,42.7,66.976,41.076C66.976,40.348,67.088,39.367999999999995,67.256,38.611999999999995C67.424,37.8,67.536,36.932,67.536,36.036C67.536,34.44,66.696,33.32,65.436,32.564C66.668,31.948,67.536,30.856,67.536,29.092C67.536,28.224,67.424,27.356,67.256,26.544C67.088,25.759999999999998,66.976,24.724,66.976,24.024C66.976,22.512,67.508,21.756,68.964,21.756L69.888,21.756L69.888,19.656L68.964,19.656C66.08,19.656,64.708,21.252,64.764,24.024C64.792,24.892,64.932,25.788,65.072,26.6C65.24,27.496000000000002,65.296,28.28,65.296,29.092C65.296,30.716,64.736,31.528,63.784,31.528L62.916,31.528L62.916,33.628ZM80.22,31.584C80.416,30.52,80.668,29.372,80.836,28.224L82.432,28.224L82.432,33.376000000000005L78.176,34.188L78.456,37.884L82.432,36.903999999999996L82.432,44.995999999999995L85.624,44.995999999999995L85.624,36.092C86.24,35.980000000000004,86.884,35.84,87.528,35.672C87.472,34.748000000000005,87.444,33.544,87.444,32.256L85.624,32.704L85.624,28.224L87.472,28.224L87.472,25.060000000000002L85.624,25.060000000000002L85.624,19.544L82.432,19.544L82.432,25.060000000000002L81.088,25.060000000000002L81.396,21.951999999999998L79.24,21.756C78.988,25.732,78.624,28.42,78.036,30.8L80.22,31.584ZM88.144,36.092L90.804,36.092L88.62,37.912C89.768,39.172,90.692,40.348,91.7,41.635999999999996L94.192,39.592C93.1,38.388000000000005,92.008,37.212,90.916,36.092L96.936,36.092L96.936,39.956C96.936,41.076,96.544,41.495999999999995,95.396,41.495999999999995C94.528,41.495999999999995,93.436,41.468,92.484,41.44C92.764,42.672,92.96,43.68,93.1,44.744C94.304,44.744,95.704,44.744,97.02,44.688C99.456,44.548,100.296,43.484,100.296,40.824L100.296,36.092L102.872,36.092L102.872,33.068L100.296,33.068L100.296,31.444000000000003L96.936,31.444000000000003L96.936,33.068L88.144,33.068L88.144,36.092ZM88.844,25.451999999999998L93.66,25.451999999999998L93.66,27.804000000000002L87.864,27.804000000000002L87.864,30.828L103.068,30.828L103.068,27.804000000000002L97.02,27.804000000000002L97.02,25.451999999999998L101.976,25.451999999999998L101.976,22.428L97.02,22.428L97.02,19.488L93.66,19.488L93.66,22.428L88.844,22.428L88.844,25.451999999999998ZM108.64,45.108000000000004C111.076,41.244,111.72,38.275999999999996,111.72,31.668L111.72,24.052C114.38,24.024,117.012,23.912,119.56,23.8L119.56,25.816000000000003L112.42,25.816000000000003L112.42,28.728L119.56,28.728L119.56,30.576L113.4,30.576L113.4,39.088L116.676,39.088L116.676,33.488L126.224,33.488L126.224,39.088L129.5,39.088L129.5,30.576L123.004,30.576L123.004,28.728L130.76,28.728L130.76,25.816000000000003L123.004,25.816000000000003L123.004,23.604C125.72,23.464,128.24,23.268,130.48,23.044L129.248,19.908C122.864,20.58,116.564,20.887999999999998,108.304,21L108.304,31.584C108.304,37.1,107.8,39.367999999999995,106.008,42.532C106.904,43.344,107.828,44.268,108.64,45.108000000000004ZM112.7,45.108000000000004C117.292,44.044,119.952,42.644,121.464,40.768C124.012,42.028,126.7,43.456,129.444,45.052L131.152,42C128.1,40.6,125.328,39.396,122.668,38.388000000000005C122.864,37.828,122.976,37.296,123.088,36.708C123.2,35.980000000000004,123.256,35.168,123.284,34.384L119.812,34.384C119.812,35.224000000000004,119.728,36.036,119.588,36.708C119.028,39.312,117.236,40.712,110.992,42.056C111.636,43.092,112.252,44.184,112.7,45.108000000000004ZM146.412,33.628L146.412,31.528L145.516,31.528C144.564,31.528,144.004,30.716,144.004,29.092C144.004,28.308,144.088,27.468,144.228,26.6C144.368,25.788,144.508,24.892,144.536,24.024C144.592,21.252,143.248,19.656,140.336,19.656L139.44,19.656L139.44,21.756L140.336,21.756C141.792,21.756,142.324,22.512,142.324,24.024C142.324,24.724,142.212,25.759999999999998,142.044,26.544C141.876,27.356,141.764,28.224,141.764,29.092C141.764,30.856,142.66,31.948,143.864,32.564C142.632,33.32,141.764,34.44,141.764,36.036C141.764,36.932,141.876,37.8,142.044,38.611999999999995C142.212,39.367999999999995,142.324,40.348,142.324,41.076C142.324,42.7,141.736,43.372,140.336,43.372L139.44,43.372L139.44,45.472L140.336,45.472C143.22,45.472,144.536,44.1,144.536,41.076C144.536,40.263999999999996,144.424,39.424,144.256,38.556C144.088,37.632000000000005,144.004,36.848,144.004,36.036C144.004,34.412,144.592,33.628,145.516,33.628L146.412,33.628ZM155.036,35.14L165.928,35.14L165.928,41.076C163.94,40.739999999999995,162.708,39.928,161.756,38.36C161.924,37.66,162.092,36.876000000000005,162.26,36.007999999999996L159.04,35.56C158.62,39.256,157.668,40.712,154.728,42.784C155.54,43.652,156.24,44.519999999999996,156.884,45.248000000000005C158.676,43.988,159.824,42.812,160.636,41.356C162.288,43.54,164.472,44.128,168.672,44.184C172.116,44.268,175.924,44.296,179.088,44.296C179.312,43.428,179.564,42.391999999999996,179.872,41.328C176.484,41.384,172.256,41.384,169.288,41.356L169.288,39.452L177.716,39.452L177.716,36.82L169.288,36.82L169.288,35.14L179.648,35.14L179.648,32.284L155.036,32.284L155.036,35.14ZM157.836,30.884L176.764,30.884L176.764,20.468L157.836,20.468L157.836,30.884ZM161.28,26.796L173.32,26.796L173.32,28.364L161.28,28.364L161.28,26.796ZM161.28,23.212L173.32,23.212L173.32,24.695999999999998L161.28,24.695999999999998L161.28,23.212Z" fill="#343B45" fill-opacity="1"/></g><g><path d="M201.44,43.4Q199.856,44.168,199.04,44.168Q198.56,44.168,198.56,43.88Q198.56,43.496,199.232,42.872Q202.256,39.992,206,35.096Q209.744,30.2,211.76,26.792L209.264,27.368Q208.784,27.464,208.544,27.464Q206.624,27.464,205.424,24.44Q205.232,23.912,205.232,23.48Q205.232,22.76,206.144,22.712Q208.544,22.568,214.304,21.56L214.304,18.056Q213.92000000000002,18.104,213.152,18.296L211.712,18.584Q211.424,18.68,210.944,18.68Q208.976,18.68,207.632,15.848Q207.392,15.272,207.392,15.032Q207.392,14.168,208.832,14.168Q211.088,14.168,214.256,13.496Q214.256,11.912,214.16,9.32L214.112,7.928Q214.064,6.248,213.89600000000002,5.48Q213.728,4.712,213.464,4.064Q213.2,3.416,213.10399999999998,3.128Q212.912,2.456,213.296,2.024Q213.68,1.592,214.304,1.592Q216.32,1.688,217.664,2.096Q219.008,2.504,219.968,3.464Q220.688,4.04,220.688,4.808Q220.688,5.24,220.352,6.44Q220.304,6.632,220.064,7.64Q219.824,8.648,219.776,9.512L219.68,12.152Q221.888,11.528,221.936,11.528Q222.512,11.384,222.992,11.384Q224.096,11.384,224.816,11.912Q225.44,12.488,225.89600000000002,13.256Q226.352,14.024,226.64,15.272Q226.736,15.8,226.352,16.112Q225.96800000000002,16.424,225.44,16.424Q223.088,16.424,219.632,17.048L219.632,20.6Q224,19.736,225.536,19.352Q226.112,19.256,226.352,19.256Q227.36,19.256,227.84,19.88Q228.656,20.648,229.256,21.752Q229.856,22.856,229.856,23.672Q229.856,24.2,229.54399999999998,24.44Q229.232,24.68,228.752,24.68Q226.59199999999998,24.632,220.496,25.352Q222.224,28.28,224.12,30.272Q226.016,32.264,228.8,34.616Q230.144,35.816,231.824,36.8Q233.504,37.784,235.56799999999998,38.84Q236.192,39.176,236.192,39.56Q236.192,40.04,235.472,40.28Q233.696,40.904,231.824,41.48Q229.952,42.056,229.184,42.2Q228.94400000000002,42.248,228.464,42.248Q227.40800000000002,42.248,226.472,41.744Q225.536,41.24,224.864,40.328Q221.888,36.488,219.68,31.112Q219.68,39.512,219.584,41.768Q219.44,44.84,219.07999999999998,46.304Q218.72,47.768,217.76,47.768Q217.376,47.768,216.8,47.48Q215.40800000000002,46.712,214.4,45.32Q213.392,43.928,213.392,42.056Q213.392,41.336,213.632,40.28Q213.68,39.944,213.8,39.416Q213.92000000000002,38.888,213.92000000000002,38.504Q214.112,34.52,214.16,31.16Q211.952,35.048,208.448,38.336Q204.944,41.624,201.44,43.4ZM188.576,11.432Q188.48,11.24,188.48,10.808Q188.48,9.992,189.248,10.04Q190.496,10.28,191.816,10.832Q193.136,11.384,193.904,11.96Q194.336,12.344,194.576,12.872Q198.32,11.768,199.424,10.904Q200.048,10.28,200.624,10.28Q200.768,10.28,201.056,10.376Q202.256,10.808,203.36,11.504Q204.464,12.2,205.04,12.872Q205.568,13.4,205.568,13.976Q205.568,14.312,205.328,14.792Q204.89600000000002,15.56,204.56,19.808Q204.224,24.056,204.224,27.368Q204.224,30.536,202.208,31.88Q201.536,32.36,200.768,32.36Q199.664,32.36,199.088,31.256Q198.656,30.152,198.656,29.576Q197.12,29.672,195.248,30.104Q195.104,33.56,193.376,33.848Q192.704,33.896,191.936,33.392Q191.168,32.888,190.64,31.928Q190.112,30.968,190.16,29.768Q190.256,26.504,189.8,19.976Q189.344,13.448,188.576,11.432ZM194.864,17.384Q194.864,20.84,195.056,25.928Q196.448,25.832,198.89600000000002,25.352Q199.184,21.944,199.184,16.952Q199.184,16.616,199.112,16.52Q199.04,16.424,198.848,16.424Q198.224,16.424,196.976,16.856Q196.16,17.192,195.2,17.384L194.864,17.384ZM242.912,47.672Q242.38400000000001,47.672,242.024,47.552Q241.664,47.432,241.664,47.192Q241.664,46.808,242.528,46.328Q248.864,43.16,252.00799999999998,39.776Q255.152,36.392,256.06399999999996,32.072Q256.544,29.48,256.544,27.464Q256.544,26.216,256.4,25.64Q256.304,25.352,256.304,25.064Q256.304,24.2,257.072,24.2Q258.512,24.2,259.976,24.8Q261.44,25.4,262.11199999999997,26.36Q262.592,27.128,262.592,27.704Q262.592,28.136,262.376,28.76Q262.15999999999997,29.384,262.06399999999996,29.816Q261.68,31.544,261.44,32.36Q263.168,32.744,263.648,33.08L263.93600000000004,33.32L263.984,30.392Q264.08,27.8,264.08,26.312Q264.08,25.112,263.984,23.384Q263.93600000000004,22.664,263.072,22.856Q260.76800000000003,23.24,256.592,23.72Q256.448,23.768,256.20799999999997,23.768Q255.92000000000002,23.768,255.44,23.576Q255.344,24.824,255.224,27.176Q255.10399999999998,29.528,255.10399999999998,31.256Q255.10399999999998,32.456,255.152,32.84Q255.2,33.128,255.2,33.704Q255.2,35.24,254.48000000000002,36.104Q253.76,36.968,252.752,36.92Q252.128,36.92,251.38400000000001,36.272Q250.64,35.624,250.112,34.736Q249.584,33.848,249.584,33.176Q249.584,32.888,249.632,32.792Q250.064,31.352,250.064,28.136Q250.064,25.976,249.848,23.936Q249.632,21.896,249.296,20.888Q249.10399999999998,20.552,249.44,20.144Q249.776,19.736,250.448,19.736Q252.128,19.736,253.712,20.36Q256.304,20.168,261.296,19.352L262.928,19.064Q263.264,18.968,264.896,18.44Q265.28,18.248,265.52,18.248Q265.76,18.248,266.096,18.44Q266.86400000000003,18.68,267.896,19.28Q268.928,19.88,269.504,20.552Q270.128,21.32,270.128,21.8Q270.128,22.232,269.79200000000003,22.712Q269.024,23.912,269.024,28.424L269.072,31.64Q269.072,32.936,268.664,33.656Q268.256,34.376,267.344,35Q266,35.864,265.13599999999997,35.864Q264.848,35.864,264.464,35.672Q264.224,38.408,264.224,39.08Q264.224,39.8,264.272,40.136Q264.416,40.904,265.06399999999996,41.264Q265.712,41.624,267.056,41.624Q267.872,41.624,269.024,41.48Q271.376,41.288,272.504,40.592Q273.632,39.896,274.04,38.84Q274.448,37.784,274.88,35.528Q274.928,35.288,275.096,35.144Q275.264,35,275.504,35Q275.984,35,276.032,35.432Q276.368,36.68,276.824,37.64Q277.28,38.6,277.784,39.44Q278.288,40.28,278.528,40.664Q279.248,41.864,279.248,43.064Q279.248,44.168,278.552,45.008Q277.856,45.848,276.608,46.328Q274.15999999999997,47.48,269.024,47.48Q266.432,47.48,264.464,47.192Q261.824,46.76,260.504,45.296Q259.18399999999997,43.832,259.18399999999997,41.768L259.18399999999997,38.36Q256.88,42.632,253.064,44.792Q249.248,46.952,243.2,47.672L242.912,47.672ZM240.03199999999998,23Q239.888,22.568,239.888,22.232Q239.888,21.752,240.10399999999998,21.392Q240.32,21.032,240.848,20.648Q242,19.64,242.912,18.08Q243.824,16.52,244.016,14.84Q244.256,13.784,244.928,13.784Q245.36,13.784,245.888,14.168Q246.464,14.504,247.28,15.32Q251.744,14.696,260.24,13.256L261.44,13.064Q263.12,10.232,264.368,7.16Q265.616,4.088,265.616,2.6L265.616,1.928Q265.616,1.4,265.784,1.136Q265.952,0.871998,266.528,0.967999Q268.15999999999997,1.16,269.72,2.36Q271.28,3.56,271.568,4.808Q271.712,5.24,271.712,5.528Q271.712,5.96,271.448,6.344Q271.18399999999997,6.728,270.656,7.208Q269.88800000000003,7.976,269.88800000000003,7.976Q269.648,8.216,268.15999999999997,9.752Q266.672,11.288,265.18399999999997,12.44L271.568,11.384Q271.664,11.384,272.76800000000003,11.096Q272.91200000000003,11.048,273.68,10.856Q274.448,10.664,275.072,10.664Q276.272,10.664,277.928,12.2Q279.584,13.736,280.256,15.176Q280.496,15.8,280.496,16.136Q280.496,16.568,280.15999999999997,16.832Q279.824,17.096,279.056,17.432Q278.192,17.672,275.168,18.92L271.76,20.264Q271.568,20.36,271.328,20.36Q271.08799999999997,20.36,270.92,20.168Q270.752,19.976,270.752,19.736Q270.752,19.592,270.848,19.304Q270.896,19.112,271.52,17.768Q272.144,16.232,272.192,16.136L272.24,15.848Q272.24,15.608,271.904,15.608L270.944,15.704Q267.488,16.232,260.88800000000003,17.216Q254.288,18.2,249.344,18.824Q248.816,18.968,248.24,18.872L248.144,19.112Q247.472,21.128,246.992,22.328Q246.512,23.528,245.888,24.536Q245.168,25.544,244.712,26.024Q244.256,26.504,243.68,26.504Q243.44,26.504,243.05599999999998,26.312Q242,25.88,241.184,24.944Q240.368,24.008,240.03199999999998,23ZM247.328,6.248Q246.992,5.864,246.992,5.528Q246.992,5.192,247.424,5.096Q247.856,5,248.672,5Q250.784,5,252.464,5.672Q254.144,6.344,255.07999999999998,7.448Q256.016,8.552,256.016,9.8Q256.016,11.864,253.76,13.352Q253.184,13.736,252.704,13.736Q251.888,13.736,251.45600000000002,12.92Q250.448,11.096,249.464,9.44Q248.48,7.784,247.328,6.248ZM254.624,4.184Q254.43200000000002,3.752,254.43200000000002,3.416Q254.43200000000002,2.696,255.584,2.84Q258.608,3.368,260.6,4.688Q262.592,6.008,262.592,7.64Q262.592,9.56,259.856,11.192Q259.52,11.432,259.08799999999997,11.432Q258.224,11.432,257.84000000000003,10.568Q257.408,9.752,255.488,5.912L254.624,4.184ZM285.776,36.872Q285.632,36.92,285.44,36.92Q284.96,36.92,284.96,36.536Q284.96,36.2,285.392,35.768Q287.984,33.512,290.576,29.792Q293.168,26.072,295.08799999999997,21.608Q293.744,22.04,292.688,22.52Q292.11199999999997,22.808,291.296,22.808Q290.72,22.808,289.712,21.8Q288.704,20.792,288.032,19.448Q287.93600000000004,19.256,287.93600000000004,19.016Q287.93600000000004,18.44,288.752,18.44Q290.384,18.44,292.976,18.056Q294.032,17.912,295.18399999999997,17.624L295.08799999999997,10.28Q295.08799999999997,7.592,294.416,5.528Q294.32,5.048,294.32,4.76Q294.32,4.184,294.656,3.824Q294.992,3.464,295.664,3.464Q297.104,3.464,298.544,4.16Q299.984,4.856,300.608,5.528Q301.08799999999997,6.104,301.08799999999997,7.16Q301.08799999999997,7.928,300.848,8.792Q300.8,8.984,300.752,9.224Q300.704,9.464,300.704,9.752Q300.512,11.24,300.416,16.52L302.144,16.088Q303.152,15.704,303.968,15.704Q304.4,15.704,304.688,15.848Q305.504,16.328,306.128,17.096Q307.18399999999997,14.792,307.952,12.608Q308.72,10.424,309.776,7.208Q310.256,5.624,310.448,3.272Q310.496,2.552,311.216,2.552Q311.696,2.552,312.176,2.696Q313.23199999999997,3.032,314.432,4.28Q315.632,5.528,315.92,6.488Q316.15999999999997,7.112,316.15999999999997,7.496Q316.15999999999997,7.976,315.968,8.384Q315.776,8.792,315.248,9.656L314.72,10.52L314.144,11.528Q317.88800000000003,11.144,318.608,10.808Q319.03999999999996,10.616,319.76,10.136Q320.24,9.752,320.672,9.752Q321.152,9.752,321.824,10.208Q322.496,10.664,322.784,10.856Q323.79200000000003,11.528,324.656,12.536Q325.52,13.544,325.52,14.12Q325.52,14.6,325.15999999999997,15.032Q324.8,15.464,324.128,15.992Q323.216,16.712,322.928,17.144Q321.344,19.592,318.8,22.184Q325.472,26.504,330.94399999999996,27.944Q331.424,28.04,331.712,28.232Q332,28.424,332,28.664Q332,28.904,331.664,29.192Q331.664,29.192,330.368,30.2Q329.36,31.064,328.664,31.52Q327.96799999999996,31.976,327.2,32.216Q326.72,32.36,326.24,32.36Q325.13599999999997,32.36,323.744,31.544L324.224,32.072Q324.656,32.504,324.656,33.08Q324.656,33.464,324.32,34.376Q323.36,36.92,323.072,40.904Q322.976,42.488,322.64,43.16Q322.304,43.832,321.152,44.648Q319.664,45.704,318.94399999999996,45.704Q318.416,45.704,318.128,44.984Q317.93600000000004,44.552,317.88800000000003,43.904Q317.84000000000003,43.256,317.84000000000003,43.064Q316.4,43.16,315.776,43.16Q313.424,43.256,312.176,43.448Q312.128,44.504,311.72,45.176Q311.312,45.848,310.544,45.848Q309.92,45.848,309.152,45.368Q308.144,44.792,307.544,44.048Q306.944,43.304,306.944,42.008Q306.944,39.272,306.704,36.296Q306.464,33.32,305.84000000000003,31.592Q304.256,32.264,302.432,32.888Q301.664,33.08,301.424,33.08Q300.704,33.08,300.704,32.696Q300.704,32.36,301.616,31.736Q304.256,30.008,307.20799999999997,27.32Q310.15999999999997,24.632,312.656,21.848Q312.608,21.8,309.872,18.92L309.152,18.104Q305.93600000000004,21.608,303.344,22.712Q303.296,22.76,303.152,22.76Q303.008,22.76,303.008,22.568Q303.008,22.28,303.248,21.992Q304.20799999999997,20.648,304.64,19.928Q302.672,20.024,301.472,20.264L300.32,20.456L300.32,22.136Q302.528,22.472,304.11199999999997,23.336Q304.976,23.768,305.624,24.512Q306.272,25.256,306.272,25.976Q306.272,26.936,305.624,27.704Q304.976,28.472,304.15999999999997,28.472Q303.776,28.472,303.344,28.184Q302.72,27.752,302.024,26.984Q301.328,26.216,300.32,24.92Q300.32,39.56,300.608,42.872Q300.704,44.312,300.2,45.296Q299.696,46.28,298.736,46.28Q297.632,46.28,296.79200000000003,45.44Q295.952,44.6,295.544,43.928Q295.13599999999997,43.256,295.04,43.112Q294.752,42.536,294.752,41.96Q294.752,41.672,294.896,41.144Q294.992,40.76,295.20799999999997,40.016Q295.424,39.272,295.424,38.696L295.328,29.72Q293.312,32.264,290.96,33.92Q288.608,35.576,285.776,36.872ZM309.296,29.768Q310.448,30.056,310.928,30.296Q315.296,29.864,317.552,29.48Q318.08000000000004,29.384,318.512,29.192Q318.608,29.144,318.94399999999996,29.048Q319.28,28.952,319.568,28.952Q319.904,28.952,320.336,29.096L320.48,29.144Q318.464,27.56,315.872,25.016Q312.8,27.704,309.296,29.768ZM310.592,16.472Q311.12,16.616,311.744,17.048L314.76800000000003,19.352Q316.06399999999996,17.816,316.928,16.232Q317.024,16.088,317.024,15.848Q317.024,15.608,316.592,15.656Q314.672,15.896,313.472,15.896Q312.896,15.896,312.704,15.848Q312.032,15.8,311.6,15.176L310.592,16.472ZM311.648,34.232Q311.552,36.584,311.79200000000003,39.224Q314.24,39.128,318.32,38.648Q318.416,36.632,318.416,35.912L318.464,34.616Q318.464,34.136,318.32,33.944Q318.176,33.752,317.648,33.8Q313.08799999999997,34.088,311.88800000000003,34.232L311.648,34.232ZM349.52,26.36Q349.328,26.552,348.94399999999996,26.552Q348.56,26.552,348.152,26.384Q347.744,26.216,347.552,26.024Q346.928,25.4,344.48,22.616Q342.08000000000004,19.832,340.928,18.728Q340.64,18.344,340.64,18.104Q340.64,17.624,341.744,17.432Q342.848,17.192,344.192,17.192Q347.024,17.192,348.656,17.912Q350.24,18.584,351.00800000000004,19.688Q351.776,20.792,351.776,22.088Q351.776,23.288,351.176,24.416Q350.576,25.544,349.52,26.36ZM336.512,31.112Q336.176,30.584,336.176,30.152Q336.176,29.384,337.424,29.288Q341.264,28.952,355.856,26.648Q355.856,17.768,355.568,8.744Q355.52,7.208,355.23199999999997,6.008Q354.94399999999996,4.808,354.368,3.416Q354.272,3.272,354.272,2.936Q354.272,2.552,354.608,2.312Q354.94399999999996,2.072,355.616,2.072Q357.872,2.072,359.744,2.768Q361.616,3.464,362.86400000000003,4.568Q363.44,5,363.44,5.624Q363.44,6.056,363.224,6.68Q363.00800000000004,7.304,362.91200000000003,7.64Q362.576,8.504,362.528,9.464Q362.48,10.424,362.48,10.568Q362.336,13.448,362.336,18.056L362.384,25.592Q368.72,24.584,370.304,24.248Q370.544,24.2,370.928,24.2Q371.93600000000004,24.2,372.704,24.872Q373.472,25.592,373.928,26.24Q374.384,26.888,375.152,28.328Q375.392,28.904,375.392,29.336Q375.392,29.96,375.05600000000004,30.416Q374.72,30.872,374.144,30.872Q373.568,30.872,372.224,30.776Q371.024,30.632,369.392,30.632Q367.328,30.632,362.432,31.112Q362.48,33.416,362.48,37.496Q362.48,40.952,362.384,42.152Q362.192,44.888,361.4,46.496Q360.608,48.104,359.36,48.104Q358.88,48.104,358.304,47.816Q356.86400000000003,47.096,355.904,45.728Q354.94399999999996,44.36,354.94399999999996,42.44Q354.94399999999996,42.008,355.23199999999997,40.568Q355.28,40.28,355.376,39.848Q355.472,39.416,355.52,38.888Q355.712,35.912,355.808,31.928Q346.15999999999997,33.176,341.504,34.52Q340.88,34.664,340.448,34.664Q340.06399999999996,34.664,339.824,34.52Q338.672,33.704,337.904,33.032Q337.13599999999997,32.36,336.512,31.112ZM344.288,8.744Q343.952,8.408,343.952,8.072Q343.952,7.592,344.672,7.448Q345.872,7.208,346.928,7.208Q349.23199999999997,7.208,350.81600000000003,7.928Q352.352,8.6,353.096,9.608Q353.84000000000003,10.616,353.84000000000003,11.816Q353.84000000000003,12.872,353.288,13.928Q352.736,14.984,351.824,15.848Q351.584,16.088,351.248,16.088Q350.96000000000004,16.088,350.648,15.944Q350.336,15.8,350.192,15.656Q348.94399999999996,14.456,346.448,11.384Q344.624,9.08,344.288,8.744ZM382.688,37.352Q382.496,37.352,382.496,37.208Q382.496,37.064,382.664,36.872Q382.832,36.68,383.024,36.584Q386.384,34.952,391.304,31.208Q396.224,27.464,401.168,22.904Q397.18399999999997,23.48,393.96799999999996,24.08Q390.752,24.68,389.408,25.064Q389.216,25.112,388.832,25.112Q387.536,25.112,386.36,24.152Q385.18399999999997,23.192,384.416,21.8Q384.272,21.512,384.272,21.272Q384.272,20.84,384.656,20.624Q385.03999999999996,20.408,385.664,20.408Q388.736,20.264,399.632,18.824L399.632,14.36Q396.99199999999996,14.744,396.03200000000004,15.032Q395.36,15.176,394.688,14.36Q394.01599999999996,13.544,393.488,12.656Q392.96000000000004,11.768,392.76800000000003,11.48L392.672,11.096Q392.672,10.76,392.91200000000003,10.496Q393.152,10.232,393.584,10.184Q395.744,9.992,399.44,9.32Q399.05600000000004,4.28,398.624,3.032Q398.576,2.936,398.576,2.744Q398.576,2.264,399.296,2.216Q401.072,2.12,403.4,2.6Q405.728,3.08,406.352,3.608Q406.64,3.896,406.64,4.472Q406.64,5,406.4,6.44Q406.304,6.824,406.256,7.184Q406.20799999999997,7.544,406.15999999999997,7.832L406.928,7.688Q407.12,7.64,407.408,7.64Q407.93600000000004,7.64,408.272,7.856Q408.608,8.072,408.89599999999996,8.36Q409.18399999999997,8.648,409.328,8.792Q409.76,9.224,410.216,10.184Q410.672,11.144,410.81600000000003,11.672Q410.96000000000004,12.152,410.696,12.68Q410.432,13.208,409.856,13.208Q407.696,13.304,405.824,13.544L405.68,18.008Q406.15999999999997,17.912,406.352,17.912Q409.808,14.36,411.99199999999996,11.504Q414.176,8.648,414.56,7.016Q414.704,6.008,415.52,6.008Q415.76,6.008,415.904,6.056Q416.86400000000003,6.536,418.376,7.832Q419.88800000000003,9.128,420.368,9.992Q420.656,10.472,420.656,10.856Q420.656,11.336,420.176,11.912Q419.696,12.536,418.03999999999996,13.952Q416.384,15.368,415.952,15.752L415.03999999999996,16.52Q416.81600000000003,16.232,417.632,15.992Q418.88,15.656,419.312,15.656Q420.272,15.656,421.18399999999997,16.568Q421.952,17.192,422.528,18.104Q423.10400000000004,19.016,423.296,19.784Q423.392,20.168,423.392,20.264Q423.392,20.936,422.576,20.936Q417.872,20.936,409.424,21.848Q407.36,23.912,404.91200000000003,26.072Q406.448,25.832,408.368,25.448Q408.94399999999996,25.352,409.328,25.016Q409.376,24.968,409.664,24.824Q409.952,24.68,410.336,24.776Q411.68,25.064,413.648,26.048Q415.616,27.032,416.192,27.944Q416.336,28.232,416.336,28.568Q416.336,28.904,416.192,29.528Q416.048,30.152,416,30.536Q415.856,33.128,415.856,37.544Q415.856,40.376,415.76,43.352Q415.712,45.08,414.248,46.496Q412.784,47.912,410.86400000000003,48.344Q409.952,48.44,409.568,48.008Q409.18399999999997,47.576,408.89599999999996,46.664L408.56,45.32Q408.32,45.416,408.03200000000004,45.32Q407.216,45.224,402.56,45.656L401.216,45.8Q400.688,47.24,399.248,48.056Q398.432,48.344,397.496,47.432Q396.56,46.52,395.93600000000004,45.416Q395.504,44.696,395.312,43.856Q395.12,43.016,395.216,42.344Q395.84000000000003,38.744,395.744,32.888Q388.832,36.968,382.736,37.352L382.688,37.352ZM401.408,40.904Q406.352,40.424,407.264,40.28Q407.408,40.232,407.696,40.232Q408.08000000000004,40.232,408.56,40.664L408.94399999999996,41.048Q409.08799999999997,37.496,409.08799999999997,35.144Q409.08799999999997,32.408,409.03999999999996,30.632Q409.03999999999996,30.296,408.824,30.2Q408.608,30.104,408.224,30.104Q406.304,30.104,401.456,30.824L401.456,33.704L404.624,33.128Q405.05600000000004,33.08,405.464,33.008Q405.872,32.936,406.304,32.936Q406.784,32.936,407.12,33.128Q408.368,33.8,408.752,35Q408.848,35.288,408.848,35.528Q408.848,36.2,408.368,36.752Q407.88800000000003,37.304,407.12,37.304Q405.536,37.304,401.93600000000004,37.784Q401.6,37.784,401.408,37.688L401.408,40.904Z" fill="url(#master_svg0_53_5978)" fill-opacity="1"/><path d="M201.44,43.4Q199.856,44.168,199.04,44.168Q198.56,44.168,198.56,43.88Q198.56,43.496,199.232,42.872Q202.256,39.992,206,35.096Q209.744,30.2,211.76,26.792L209.264,27.368Q208.784,27.464,208.544,27.464Q206.624,27.464,205.424,24.44Q205.232,23.912,205.232,23.48Q205.232,22.76,206.144,22.712Q208.544,22.568,214.304,21.56L214.304,18.056Q213.92000000000002,18.104,213.152,18.296L211.712,18.584Q211.424,18.68,210.944,18.68Q208.976,18.68,207.632,15.848Q207.392,15.272,207.392,15.032Q207.392,14.168,208.832,14.168Q211.088,14.168,214.256,13.496Q214.256,11.912,214.16,9.32L214.112,7.928Q214.064,6.248,213.89600000000002,5.48Q213.728,4.712,213.464,4.064Q213.2,3.416,213.10399999999998,3.128Q212.912,2.456,213.296,2.024Q213.68,1.592,214.304,1.592Q216.32,1.688,217.664,2.096Q219.008,2.504,219.968,3.464Q220.688,4.04,220.688,4.808Q220.688,5.24,220.352,6.44Q220.304,6.632,220.064,7.64Q219.824,8.648,219.776,9.512L219.68,12.152Q221.888,11.528,221.936,11.528Q222.512,11.384,222.992,11.384Q224.096,11.384,224.816,11.912Q225.44,12.488,225.89600000000002,13.256Q226.352,14.024,226.64,15.272Q226.736,15.8,226.352,16.112Q225.96800000000002,16.424,225.44,16.424Q223.088,16.424,219.632,17.048L219.632,20.6Q224,19.736,225.536,19.352Q226.112,19.256,226.352,19.256Q227.36,19.256,227.84,19.88Q228.656,20.648,229.256,21.752Q229.856,22.856,229.856,23.672Q229.856,24.2,229.54399999999998,24.44Q229.232,24.68,228.752,24.68Q226.59199999999998,24.632,220.496,25.352Q222.224,28.28,224.12,30.272Q226.016,32.264,228.8,34.616Q230.144,35.816,231.824,36.8Q233.504,37.784,235.56799999999998,38.84Q236.192,39.176,236.192,39.56Q236.192,40.04,235.472,40.28Q233.696,40.904,231.824,41.48Q229.952,42.056,229.184,42.2Q228.94400000000002,42.248,228.464,42.248Q227.40800000000002,42.248,226.472,41.744Q225.536,41.24,224.864,40.328Q221.888,36.488,219.68,31.112Q219.68,39.512,219.584,41.768Q219.44,44.84,219.07999999999998,46.304Q218.72,47.768,217.76,47.768Q217.376,47.768,216.8,47.48Q215.40800000000002,46.712,214.4,45.32Q213.392,43.928,213.392,42.056Q213.392,41.336,213.632,40.28Q213.68,39.944,213.8,39.416Q213.92000000000002,38.888,213.92000000000002,38.504Q214.112,34.52,214.16,31.16Q211.952,35.048,208.448,38.336Q204.944,41.624,201.44,43.4ZM188.576,11.432Q188.48,11.24,188.48,10.808Q188.48,9.992,189.248,10.04Q190.496,10.28,191.816,10.832Q193.136,11.384,193.904,11.96Q194.336,12.344,194.576,12.872Q198.32,11.768,199.424,10.904Q200.048,10.28,200.624,10.28Q200.768,10.28,201.056,10.376Q202.256,10.808,203.36,11.504Q204.464,12.2,205.04,12.872Q205.568,13.4,205.568,13.976Q205.568,14.312,205.328,14.792Q204.89600000000002,15.56,204.56,19.808Q204.224,24.056,204.224,27.368Q204.224,30.536,202.208,31.88Q201.536,32.36,200.768,32.36Q199.664,32.36,199.088,31.256Q198.656,30.152,198.656,29.576Q197.12,29.672,195.248,30.104Q195.104,33.56,193.376,33.848Q192.704,33.896,191.936,33.392Q191.168,32.888,190.64,31.928Q190.112,30.968,190.16,29.768Q190.256,26.504,189.8,19.976Q189.344,13.448,188.576,11.432ZM194.864,17.384Q194.864,20.84,195.056,25.928Q196.448,25.832,198.89600000000002,25.352Q199.184,21.944,199.184,16.952Q199.184,16.616,199.112,16.52Q199.04,16.424,198.848,16.424Q198.224,16.424,196.976,16.856Q196.16,17.192,195.2,17.384L194.864,17.384ZM242.912,47.672Q242.38400000000001,47.672,242.024,47.552Q241.664,47.432,241.664,47.192Q241.664,46.808,242.528,46.328Q248.864,43.16,252.00799999999998,39.776Q255.152,36.392,256.06399999999996,32.072Q256.544,29.48,256.544,27.464Q256.544,26.216,256.4,25.64Q256.304,25.352,256.304,25.064Q256.304,24.2,257.072,24.2Q258.512,24.2,259.976,24.8Q261.44,25.4,262.11199999999997,26.36Q262.592,27.128,262.592,27.704Q262.592,28.136,262.376,28.76Q262.15999999999997,29.384,262.06399999999996,29.816Q261.68,31.544,261.44,32.36Q263.168,32.744,263.648,33.08L263.93600000000004,33.32L263.984,30.392Q264.08,27.8,264.08,26.312Q264.08,25.112,263.984,23.384Q263.93600000000004,22.664,263.072,22.856Q260.76800000000003,23.24,256.592,23.72Q256.448,23.768,256.20799999999997,23.768Q255.92000000000002,23.768,255.44,23.576Q255.344,24.824,255.224,27.176Q255.10399999999998,29.528,255.10399999999998,31.256Q255.10399999999998,32.456,255.152,32.84Q255.2,33.128,255.2,33.704Q255.2,35.24,254.48000000000002,36.104Q253.76,36.968,252.752,36.92Q252.128,36.92,251.38400000000001,36.272Q250.64,35.624,250.112,34.736Q249.584,33.848,249.584,33.176Q249.584,32.888,249.632,32.792Q250.064,31.352,250.064,28.136Q250.064,25.976,249.848,23.936Q249.632,21.896,249.296,20.888Q249.10399999999998,20.552,249.44,20.144Q249.776,19.736,250.448,19.736Q252.128,19.736,253.712,20.36Q256.304,20.168,261.296,19.352L262.928,19.064Q263.264,18.968,264.896,18.44Q265.28,18.248,265.52,18.248Q265.76,18.248,266.096,18.44Q266.86400000000003,18.68,267.896,19.28Q268.928,19.88,269.504,20.552Q270.128,21.32,270.128,21.8Q270.128,22.232,269.79200000000003,22.712Q269.024,23.912,269.024,28.424L269.072,31.64Q269.072,32.936,268.664,33.656Q268.256,34.376,267.344,35Q266,35.864,265.13599999999997,35.864Q264.848,35.864,264.464,35.672Q264.224,38.408,264.224,39.08Q264.224,39.8,264.272,40.136Q264.416,40.904,265.06399999999996,41.264Q265.712,41.624,267.056,41.624Q267.872,41.624,269.024,41.48Q271.376,41.288,272.504,40.592Q273.632,39.896,274.04,38.84Q274.448,37.784,274.88,35.528Q274.928,35.288,275.096,35.144Q275.264,35,275.504,35Q275.984,35,276.032,35.432Q276.368,36.68,276.824,37.64Q277.28,38.6,277.784,39.44Q278.288,40.28,278.528,40.664Q279.248,41.864,279.248,43.064Q279.248,44.168,278.552,45.008Q277.856,45.848,276.608,46.328Q274.15999999999997,47.48,269.024,47.48Q266.432,47.48,264.464,47.192Q261.824,46.76,260.504,45.296Q259.18399999999997,43.832,259.18399999999997,41.768L259.18399999999997,38.36Q256.88,42.632,253.064,44.792Q249.248,46.952,243.2,47.672L242.912,47.672ZM240.03199999999998,23Q239.888,22.568,239.888,22.232Q239.888,21.752,240.10399999999998,21.392Q240.32,21.032,240.848,20.648Q242,19.64,242.912,18.08Q243.824,16.52,244.016,14.84Q244.256,13.784,244.928,13.784Q245.36,13.784,245.888,14.168Q246.464,14.504,247.28,15.32Q251.744,14.696,260.24,13.256L261.44,13.064Q263.12,10.232,264.368,7.16Q265.616,4.088,265.616,2.6L265.616,1.928Q265.616,1.4,265.784,1.136Q265.952,0.871998,266.528,0.967999Q268.15999999999997,1.16,269.72,2.36Q271.28,3.56,271.568,4.808Q271.712,5.24,271.712,5.528Q271.712,5.96,271.448,6.344Q271.18399999999997,6.728,270.656,7.208Q269.88800000000003,7.976,269.88800000000003,7.976Q269.648,8.216,268.15999999999997,9.752Q266.672,11.288,265.18399999999997,12.44L271.568,11.384Q271.664,11.384,272.76800000000003,11.096Q272.91200000000003,11.048,273.68,10.856Q274.448,10.664,275.072,10.664Q276.272,10.664,277.928,12.2Q279.584,13.736,280.256,15.176Q280.496,15.8,280.496,16.136Q280.496,16.568,280.15999999999997,16.832Q279.824,17.096,279.056,17.432Q278.192,17.672,275.168,18.92L271.76,20.264Q271.568,20.36,271.328,20.36Q271.08799999999997,20.36,270.92,20.168Q270.752,19.976,270.752,19.736Q270.752,19.592,270.848,19.304Q270.896,19.112,271.52,17.768Q272.144,16.232,272.192,16.136L272.24,15.848Q272.24,15.608,271.904,15.608L270.944,15.704Q267.488,16.232,260.88800000000003,17.216Q254.288,18.2,249.344,18.824Q248.816,18.968,248.24,18.872L248.144,19.112Q247.472,21.128,246.992,22.328Q246.512,23.528,245.888,24.536Q245.168,25.544,244.712,26.024Q244.256,26.504,243.68,26.504Q243.44,26.504,243.05599999999998,26.312Q242,25.88,241.184,24.944Q240.368,24.008,240.03199999999998,23ZM247.328,6.248Q246.992,5.864,246.992,5.528Q246.992,5.192,247.424,5.096Q247.856,5,248.672,5Q250.784,5,252.464,5.672Q254.144,6.344,255.07999999999998,7.448Q256.016,8.552,256.016,9.8Q256.016,11.864,253.76,13.352Q253.184,13.736,252.704,13.736Q251.888,13.736,251.45600000000002,12.92Q250.448,11.096,249.464,9.44Q248.48,7.784,247.328,6.248ZM254.624,4.184Q254.43200000000002,3.752,254.43200000000002,3.416Q254.43200000000002,2.696,255.584,2.84Q258.608,3.368,260.6,4.688Q262.592,6.008,262.592,7.64Q262.592,9.56,259.856,11.192Q259.52,11.432,259.08799999999997,11.432Q258.224,11.432,257.84000000000003,10.568Q257.408,9.752,255.488,5.912L254.624,4.184ZM285.776,36.872Q285.632,36.92,285.44,36.92Q284.96,36.92,284.96,36.536Q284.96,36.2,285.392,35.768Q287.984,33.512,290.576,29.792Q293.168,26.072,295.08799999999997,21.608Q293.744,22.04,292.688,22.52Q292.11199999999997,22.808,291.296,22.808Q290.72,22.808,289.712,21.8Q288.704,20.792,288.032,19.448Q287.93600000000004,19.256,287.93600000000004,19.016Q287.93600000000004,18.44,288.752,18.44Q290.384,18.44,292.976,18.056Q294.032,17.912,295.18399999999997,17.624L295.08799999999997,10.28Q295.08799999999997,7.592,294.416,5.528Q294.32,5.048,294.32,4.76Q294.32,4.184,294.656,3.824Q294.992,3.464,295.664,3.464Q297.104,3.464,298.544,4.16Q299.984,4.856,300.608,5.528Q301.08799999999997,6.104,301.08799999999997,7.16Q301.08799999999997,7.928,300.848,8.792Q300.8,8.984,300.752,9.224Q300.704,9.464,300.704,9.752Q300.512,11.24,300.416,16.52L302.144,16.088Q303.152,15.704,303.968,15.704Q304.4,15.704,304.688,15.848Q305.504,16.328,306.128,17.096Q307.18399999999997,14.792,307.952,12.608Q308.72,10.424,309.776,7.208Q310.256,5.624,310.448,3.272Q310.496,2.552,311.216,2.552Q311.696,2.552,312.176,2.696Q313.23199999999997,3.032,314.432,4.28Q315.632,5.528,315.92,6.488Q316.15999999999997,7.112,316.15999999999997,7.496Q316.15999999999997,7.976,315.968,8.384Q315.776,8.792,315.248,9.656L314.72,10.52L314.144,11.528Q317.88800000000003,11.144,318.608,10.808Q319.03999999999996,10.616,319.76,10.136Q320.24,9.752,320.672,9.752Q321.152,9.752,321.824,10.208Q322.496,10.664,322.784,10.856Q323.79200000000003,11.528,324.656,12.536Q325.52,13.544,325.52,14.12Q325.52,14.6,325.15999999999997,15.032Q324.8,15.464,324.128,15.992Q323.216,16.712,322.928,17.144Q321.344,19.592,318.8,22.184Q325.472,26.504,330.94399999999996,27.944Q331.424,28.04,331.712,28.232Q332,28.424,332,28.664Q332,28.904,331.664,29.192Q331.664,29.192,330.368,30.2Q329.36,31.064,328.664,31.52Q327.96799999999996,31.976,327.2,32.216Q326.72,32.36,326.24,32.36Q325.13599999999997,32.36,323.744,31.544L324.224,32.072Q324.656,32.504,324.656,33.08Q324.656,33.464,324.32,34.376Q323.36,36.92,323.072,40.904Q322.976,42.488,322.64,43.16Q322.304,43.832,321.152,44.648Q319.664,45.704,318.94399999999996,45.704Q318.416,45.704,318.128,44.984Q317.93600000000004,44.552,317.88800000000003,43.904Q317.84000000000003,43.256,317.84000000000003,43.064Q316.4,43.16,315.776,43.16Q313.424,43.256,312.176,43.448Q312.128,44.504,311.72,45.176Q311.312,45.848,310.544,45.848Q309.92,45.848,309.152,45.368Q308.144,44.792,307.544,44.048Q306.944,43.304,306.944,42.008Q306.944,39.272,306.704,36.296Q306.464,33.32,305.84000000000003,31.592Q304.256,32.264,302.432,32.888Q301.664,33.08,301.424,33.08Q300.704,33.08,300.704,32.696Q300.704,32.36,301.616,31.736Q304.256,30.008,307.20799999999997,27.32Q310.15999999999997,24.632,312.656,21.848Q312.608,21.8,309.872,18.92L309.152,18.104Q305.93600000000004,21.608,303.344,22.712Q303.296,22.76,303.152,22.76Q303.008,22.76,303.008,22.568Q303.008,22.28,303.248,21.992Q304.20799999999997,20.648,304.64,19.928Q302.672,20.024,301.472,20.264L300.32,20.456L300.32,22.136Q302.528,22.472,304.11199999999997,23.336Q304.976,23.768,305.624,24.512Q306.272,25.256,306.272,25.976Q306.272,26.936,305.624,27.704Q304.976,28.472,304.15999999999997,28.472Q303.776,28.472,303.344,28.184Q302.72,27.752,302.024,26.984Q301.328,26.216,300.32,24.92Q300.32,39.56,300.608,42.872Q300.704,44.312,300.2,45.296Q299.696,46.28,298.736,46.28Q297.632,46.28,296.79200000000003,45.44Q295.952,44.6,295.544,43.928Q295.13599999999997,43.256,295.04,43.112Q294.752,42.536,294.752,41.96Q294.752,41.672,294.896,41.144Q294.992,40.76,295.20799999999997,40.016Q295.424,39.272,295.424,38.696L295.328,29.72Q293.312,32.264,290.96,33.92Q288.608,35.576,285.776,36.872ZM309.296,29.768Q310.448,30.056,310.928,30.296Q315.296,29.864,317.552,29.48Q318.08000000000004,29.384,318.512,29.192Q318.608,29.144,318.94399999999996,29.048Q319.28,28.952,319.568,28.952Q319.904,28.952,320.336,29.096L320.48,29.144Q318.464,27.56,315.872,25.016Q312.8,27.704,309.296,29.768ZM310.592,16.472Q311.12,16.616,311.744,17.048L314.76800000000003,19.352Q316.06399999999996,17.816,316.928,16.232Q317.024,16.088,317.024,15.848Q317.024,15.608,316.592,15.656Q314.672,15.896,313.472,15.896Q312.896,15.896,312.704,15.848Q312.032,15.8,311.6,15.176L310.592,16.472ZM311.648,34.232Q311.552,36.584,311.79200000000003,39.224Q314.24,39.128,318.32,38.648Q318.416,36.632,318.416,35.912L318.464,34.616Q318.464,34.136,318.32,33.944Q318.176,33.752,317.648,33.8Q313.08799999999997,34.088,311.88800000000003,34.232L311.648,34.232ZM349.52,26.36Q349.328,26.552,348.94399999999996,26.552Q348.56,26.552,348.152,26.384Q347.744,26.216,347.552,26.024Q346.928,25.4,344.48,22.616Q342.08000000000004,19.832,340.928,18.728Q340.64,18.344,340.64,18.104Q340.64,17.624,341.744,17.432Q342.848,17.192,344.192,17.192Q347.024,17.192,348.656,17.912Q350.24,18.584,351.00800000000004,19.688Q351.776,20.792,351.776,22.088Q351.776,23.288,351.176,24.416Q350.576,25.544,349.52,26.36ZM336.512,31.112Q336.176,30.584,336.176,30.152Q336.176,29.384,337.424,29.288Q341.264,28.952,355.856,26.648Q355.856,17.768,355.568,8.744Q355.52,7.208,355.23199999999997,6.008Q354.94399999999996,4.808,354.368,3.416Q354.272,3.272,354.272,2.936Q354.272,2.552,354.608,2.312Q354.94399999999996,2.072,355.616,2.072Q357.872,2.072,359.744,2.768Q361.616,3.464,362.86400000000003,4.568Q363.44,5,363.44,5.624Q363.44,6.056,363.224,6.68Q363.00800000000004,7.304,362.91200000000003,7.64Q362.576,8.504,362.528,9.464Q362.48,10.424,362.48,10.568Q362.336,13.448,362.336,18.056L362.384,25.592Q368.72,24.584,370.304,24.248Q370.544,24.2,370.928,24.2Q371.93600000000004,24.2,372.704,24.872Q373.472,25.592,373.928,26.24Q374.384,26.888,375.152,28.328Q375.392,28.904,375.392,29.336Q375.392,29.96,375.05600000000004,30.416Q374.72,30.872,374.144,30.872Q373.568,30.872,372.224,30.776Q371.024,30.632,369.392,30.632Q367.328,30.632,362.432,31.112Q362.48,33.416,362.48,37.496Q362.48,40.952,362.384,42.152Q362.192,44.888,361.4,46.496Q360.608,48.104,359.36,48.104Q358.88,48.104,358.304,47.816Q356.86400000000003,47.096,355.904,45.728Q354.94399999999996,44.36,354.94399999999996,42.44Q354.94399999999996,42.008,355.23199999999997,40.568Q355.28,40.28,355.376,39.848Q355.472,39.416,355.52,38.888Q355.712,35.912,355.808,31.928Q346.15999999999997,33.176,341.504,34.52Q340.88,34.664,340.448,34.664Q340.06399999999996,34.664,339.824,34.52Q338.672,33.704,337.904,33.032Q337.13599999999997,32.36,336.512,31.112ZM344.288,8.744Q343.952,8.408,343.952,8.072Q343.952,7.592,344.672,7.448Q345.872,7.208,346.928,7.208Q349.23199999999997,7.208,350.81600000000003,7.928Q352.352,8.6,353.096,9.608Q353.84000000000003,10.616,353.84000000000003,11.816Q353.84000000000003,12.872,353.288,13.928Q352.736,14.984,351.824,15.848Q351.584,16.088,351.248,16.088Q350.96000000000004,16.088,350.648,15.944Q350.336,15.8,350.192,15.656Q348.94399999999996,14.456,346.448,11.384Q344.624,9.08,344.288,8.744ZM382.688,37.352Q382.496,37.352,382.496,37.208Q382.496,37.064,382.664,36.872Q382.832,36.68,383.024,36.584Q386.384,34.952,391.304,31.208Q396.224,27.464,401.168,22.904Q397.18399999999997,23.48,393.96799999999996,24.08Q390.752,24.68,389.408,25.064Q389.216,25.112,388.832,25.112Q387.536,25.112,386.36,24.152Q385.18399999999997,23.192,384.416,21.8Q384.272,21.512,384.272,21.272Q384.272,20.84,384.656,20.624Q385.03999999999996,20.408,385.664,20.408Q388.736,20.264,399.632,18.824L399.632,14.36Q396.99199999999996,14.744,396.03200000000004,15.032Q395.36,15.176,394.688,14.36Q394.01599999999996,13.544,393.488,12.656Q392.96000000000004,11.768,392.76800000000003,11.48L392.672,11.096Q392.672,10.76,392.91200000000003,10.496Q393.152,10.232,393.584,10.184Q395.744,9.992,399.44,9.32Q399.05600000000004,4.28,398.624,3.032Q398.576,2.936,398.576,2.744Q398.576,2.264,399.296,2.216Q401.072,2.12,403.4,2.6Q405.728,3.08,406.352,3.608Q406.64,3.896,406.64,4.472Q406.64,5,406.4,6.44Q406.304,6.824,406.256,7.184Q406.20799999999997,7.544,406.15999999999997,7.832L406.928,7.688Q407.12,7.64,407.408,7.64Q407.93600000000004,7.64,408.272,7.856Q408.608,8.072,408.89599999999996,8.36Q409.18399999999997,8.648,409.328,8.792Q409.76,9.224,410.216,10.184Q410.672,11.144,410.81600000000003,11.672Q410.96000000000004,12.152,410.696,12.68Q410.432,13.208,409.856,13.208Q407.696,13.304,405.824,13.544L405.68,18.008Q406.15999999999997,17.912,406.352,17.912Q409.808,14.36,411.99199999999996,11.504Q414.176,8.648,414.56,7.016Q414.704,6.008,415.52,6.008Q415.76,6.008,415.904,6.056Q416.86400000000003,6.536,418.376,7.832Q419.88800000000003,9.128,420.368,9.992Q420.656,10.472,420.656,10.856Q420.656,11.336,420.176,11.912Q419.696,12.536,418.03999999999996,13.952Q416.384,15.368,415.952,15.752L415.03999999999996,16.52Q416.81600000000003,16.232,417.632,15.992Q418.88,15.656,419.312,15.656Q420.272,15.656,421.18399999999997,16.568Q421.952,17.192,422.528,18.104Q423.10400000000004,19.016,423.296,19.784Q423.392,20.168,423.392,20.264Q423.392,20.936,422.576,20.936Q417.872,20.936,409.424,21.848Q407.36,23.912,404.91200000000003,26.072Q406.448,25.832,408.368,25.448Q408.94399999999996,25.352,409.328,25.016Q409.376,24.968,409.664,24.824Q409.952,24.68,410.336,24.776Q411.68,25.064,413.648,26.048Q415.616,27.032,416.192,27.944Q416.336,28.232,416.336,28.568Q416.336,28.904,416.192,29.528Q416.048,30.152,416,30.536Q415.856,33.128,415.856,37.544Q415.856,40.376,415.76,43.352Q415.712,45.08,414.248,46.496Q412.784,47.912,410.86400000000003,48.344Q409.952,48.44,409.568,48.008Q409.18399999999997,47.576,408.89599999999996,46.664L408.56,45.32Q408.32,45.416,408.03200000000004,45.32Q407.216,45.224,402.56,45.656L401.216,45.8Q400.688,47.24,399.248,48.056Q398.432,48.344,397.496,47.432Q396.56,46.52,395.93600000000004,45.416Q395.504,44.696,395.312,43.856Q395.12,43.016,395.216,42.344Q395.84000000000003,38.744,395.744,32.888Q388.832,36.968,382.736,37.352L382.688,37.352ZM401.408,40.904Q406.352,40.424,407.264,40.28Q407.408,40.232,407.696,40.232Q408.08000000000004,40.232,408.56,40.664L408.94399999999996,41.048Q409.08799999999997,37.496,409.08799999999997,35.144Q409.08799999999997,32.408,409.03999999999996,30.632Q409.03999999999996,30.296,408.824,30.2Q408.608,30.104,408.224,30.104Q406.304,30.104,401.456,30.824L401.456,33.704L404.624,33.128Q405.05600000000004,33.08,405.464,33.008Q405.872,32.936,406.304,32.936Q406.784,32.936,407.12,33.128Q408.368,33.8,408.752,35Q408.848,35.288,408.848,35.528Q408.848,36.2,408.368,36.752Q407.88800000000003,37.304,407.12,37.304Q405.536,37.304,401.93600000000004,37.784Q401.6,37.784,401.408,37.688L401.408,40.904Z" fill="#DCBC46" fill-opacity="1"/></g></g></svg>