<svg xmlns="http://www.w3.org/2000/svg" xmlns:xlink="http://www.w3.org/1999/xlink" fill="none" version="1.1" width="412" height="48" viewBox="0 0 412 48"><defs><linearGradient x1="412" y1="24" x2="188" y2="24" gradientUnits="userSpaceOnUse" id="master_svg0_53_6657"><stop offset="2.857142873108387%" stop-color="#474747" stop-opacity="1"/><stop offset="100%" stop-color="#151515" stop-opacity="1"/></linearGradient></defs><g><g><path d="M2.24,35.7C2.968,34.748000000000005,3.64,33.768,4.34,32.704L4.34,44.94L7.728,44.94L7.728,26.375999999999998C8.596,24.416,9.38,22.4,10.052,20.328L6.496,19.432C5.292,23.996000000000002,3.528,27.916,1.344,31.192C1.596,32.732,1.904,34.104,2.24,35.7ZM24.64,30.380000000000003L26.096,25.872L26.096,22.876L15.456,22.876C15.82,22.008,16.128,21.084,16.464,20.132L12.936,19.628C11.872,23.128,10.5,26.04,8.484,28.84C9.464,29.567999999999998,10.22,30.268,11.144,31.136C12.264,29.512,13.216,27.887999999999998,14.028,26.18L22.596,26.18L21.308,29.596C22.316,29.82,23.604,30.072,24.64,30.380000000000003ZM12.656,44.66C13.832,44.66,15.232,44.632000000000005,16.128,44.548C18.564,44.379999999999995,19.488,43.147999999999996,19.488,40.656L19.488,27.72L16.016,27.72L16.016,39.872C16.016,40.936,15.652,41.328,14.616,41.328C13.636,41.328,12.908,41.3,12.04,41.216C12.236,42.168,12.516,43.708,12.656,44.66ZM23.268,40.964L26.6,39.9C25.732,37.464,24.556,34.16,23.352,30.912L20.216,31.808C21.28,34.86,22.316,38.052,23.268,40.964ZM11.676,40.936C12.824,38.108000000000004,14.196,34.495999999999995,15.148,31.752000000000002L12.012,30.716C11.116,33.292,9.772,36.932,8.512,39.620000000000005C9.772,40.04,10.64,40.46,11.676,40.936ZM43.96,30.464C44.548,29.344,45.08,28.168,45.612,26.908L50.26,26.908C50.232,30.380000000000003,50.12,35.952,50.008,38.556C49.952,40.376000000000005,49.364,41.019999999999996,47.544,41.019999999999996C46.284,41.019999999999996,44.94,40.992000000000004,43.708,40.936C43.932,41.972,44.184,43.147999999999996,44.408,44.519999999999996C46.06,44.519999999999996,47.656,44.492000000000004,48.972,44.408C52.276,44.239999999999995,53.368,42.728,53.452,39.284C53.564,35.504000000000005,53.704,29.82,53.844,23.548000000000002L46.928,23.548000000000002L48.048,20.244L44.604,19.432C43.652,22.82,42.364,26.012,40.992,28.756L40.992,23.548000000000002L36.904,23.548000000000002C37.212,22.456,37.52,21.336,37.884,20.048000000000002L34.132,19.516C33.908,20.748,33.628,22.12,33.264,23.548000000000002L30.408,23.548000000000002L30.408,44.632000000000005L33.74,44.632000000000005L33.74,42.756L37.66,42.756L37.66,44.464L40.992,44.464L40.992,28.868000000000002C42,29.344,43.036,29.932000000000002,43.96,30.464ZM46.172,37.519999999999996L49.14,35.56C47.824,33.712,46.536,32.004,45.192,30.212L42.504,32.004C43.848,33.852000000000004,45.08,35.784,46.172,37.519999999999996ZM33.74,34.832L37.66,34.832L37.66,39.424L33.74,39.424L33.74,34.832ZM33.74,26.880000000000003L37.66,26.880000000000003L37.66,31.5L33.74,31.5L33.74,26.880000000000003ZM62.916,33.628L63.784,33.628C64.708,33.628,65.296,34.412,65.296,36.036C65.296,36.848,65.212,37.632000000000005,65.044,38.556C64.876,39.424,64.764,40.263999999999996,64.764,41.076C64.764,44.1,66.108,45.472,68.964,45.472L69.888,45.472L69.888,43.372L68.964,43.372C67.564,43.372,66.976,42.7,66.976,41.076C66.976,40.348,67.088,39.367999999999995,67.256,38.611999999999995C67.424,37.8,67.536,36.932,67.536,36.036C67.536,34.44,66.696,33.32,65.436,32.564C66.668,31.948,67.536,30.856,67.536,29.092C67.536,28.224,67.424,27.356,67.256,26.544C67.088,25.759999999999998,66.976,24.724,66.976,24.024C66.976,22.512,67.508,21.756,68.964,21.756L69.888,21.756L69.888,19.656L68.964,19.656C66.08,19.656,64.708,21.252,64.764,24.024C64.792,24.892,64.932,25.788,65.072,26.6C65.24,27.496000000000002,65.296,28.28,65.296,29.092C65.296,30.716,64.736,31.528,63.784,31.528L62.916,31.528L62.916,33.628ZM80.22,31.584C80.416,30.52,80.668,29.372,80.836,28.224L82.432,28.224L82.432,33.376000000000005L78.176,34.188L78.456,37.884L82.432,36.903999999999996L82.432,44.995999999999995L85.624,44.995999999999995L85.624,36.092C86.24,35.980000000000004,86.884,35.84,87.528,35.672C87.472,34.748000000000005,87.444,33.544,87.444,32.256L85.624,32.704L85.624,28.224L87.472,28.224L87.472,25.060000000000002L85.624,25.060000000000002L85.624,19.544L82.432,19.544L82.432,25.060000000000002L81.088,25.060000000000002L81.396,21.951999999999998L79.24,21.756C78.988,25.732,78.624,28.42,78.036,30.8L80.22,31.584ZM88.144,36.092L90.804,36.092L88.62,37.912C89.768,39.172,90.692,40.348,91.7,41.635999999999996L94.192,39.592C93.1,38.388000000000005,92.008,37.212,90.916,36.092L96.936,36.092L96.936,39.956C96.936,41.076,96.544,41.495999999999995,95.396,41.495999999999995C94.528,41.495999999999995,93.436,41.468,92.484,41.44C92.764,42.672,92.96,43.68,93.1,44.744C94.304,44.744,95.704,44.744,97.02,44.688C99.456,44.548,100.296,43.484,100.296,40.824L100.296,36.092L102.872,36.092L102.872,33.068L100.296,33.068L100.296,31.444000000000003L96.936,31.444000000000003L96.936,33.068L88.144,33.068L88.144,36.092ZM88.844,25.451999999999998L93.66,25.451999999999998L93.66,27.804000000000002L87.864,27.804000000000002L87.864,30.828L103.068,30.828L103.068,27.804000000000002L97.02,27.804000000000002L97.02,25.451999999999998L101.976,25.451999999999998L101.976,22.428L97.02,22.428L97.02,19.488L93.66,19.488L93.66,22.428L88.844,22.428L88.844,25.451999999999998ZM108.64,45.108000000000004C111.076,41.244,111.72,38.275999999999996,111.72,31.668L111.72,24.052C114.38,24.024,117.012,23.912,119.56,23.8L119.56,25.816000000000003L112.42,25.816000000000003L112.42,28.728L119.56,28.728L119.56,30.576L113.4,30.576L113.4,39.088L116.676,39.088L116.676,33.488L126.224,33.488L126.224,39.088L129.5,39.088L129.5,30.576L123.004,30.576L123.004,28.728L130.76,28.728L130.76,25.816000000000003L123.004,25.816000000000003L123.004,23.604C125.72,23.464,128.24,23.268,130.48,23.044L129.248,19.908C122.864,20.58,116.564,20.887999999999998,108.304,21L108.304,31.584C108.304,37.1,107.8,39.367999999999995,106.008,42.532C106.904,43.344,107.828,44.268,108.64,45.108000000000004ZM112.7,45.108000000000004C117.292,44.044,119.952,42.644,121.464,40.768C124.012,42.028,126.7,43.456,129.444,45.052L131.152,42C128.1,40.6,125.328,39.396,122.668,38.388000000000005C122.864,37.828,122.976,37.296,123.088,36.708C123.2,35.980000000000004,123.256,35.168,123.284,34.384L119.812,34.384C119.812,35.224000000000004,119.728,36.036,119.588,36.708C119.028,39.312,117.236,40.712,110.992,42.056C111.636,43.092,112.252,44.184,112.7,45.108000000000004ZM146.412,33.628L146.412,31.528L145.516,31.528C144.564,31.528,144.004,30.716,144.004,29.092C144.004,28.308,144.088,27.468,144.228,26.6C144.368,25.788,144.508,24.892,144.536,24.024C144.592,21.252,143.248,19.656,140.336,19.656L139.44,19.656L139.44,21.756L140.336,21.756C141.792,21.756,142.324,22.512,142.324,24.024C142.324,24.724,142.212,25.759999999999998,142.044,26.544C141.876,27.356,141.764,28.224,141.764,29.092C141.764,30.856,142.66,31.948,143.864,32.564C142.632,33.32,141.764,34.44,141.764,36.036C141.764,36.932,141.876,37.8,142.044,38.611999999999995C142.212,39.367999999999995,142.324,40.348,142.324,41.076C142.324,42.7,141.736,43.372,140.336,43.372L139.44,43.372L139.44,45.472L140.336,45.472C143.22,45.472,144.536,44.1,144.536,41.076C144.536,40.263999999999996,144.424,39.424,144.256,38.556C144.088,37.632000000000005,144.004,36.848,144.004,36.036C144.004,34.412,144.592,33.628,145.516,33.628L146.412,33.628ZM155.036,35.14L165.928,35.14L165.928,41.076C163.94,40.739999999999995,162.708,39.928,161.756,38.36C161.924,37.66,162.092,36.876000000000005,162.26,36.007999999999996L159.04,35.56C158.62,39.256,157.668,40.712,154.728,42.784C155.54,43.652,156.24,44.519999999999996,156.884,45.248000000000005C158.676,43.988,159.824,42.812,160.636,41.356C162.288,43.54,164.472,44.128,168.672,44.184C172.116,44.268,175.924,44.296,179.088,44.296C179.312,43.428,179.564,42.391999999999996,179.872,41.328C176.484,41.384,172.256,41.384,169.288,41.356L169.288,39.452L177.716,39.452L177.716,36.82L169.288,36.82L169.288,35.14L179.648,35.14L179.648,32.284L155.036,32.284L155.036,35.14ZM157.836,30.884L176.764,30.884L176.764,20.468L157.836,20.468L157.836,30.884ZM161.28,26.796L173.32,26.796L173.32,28.364L161.28,28.364L161.28,26.796ZM161.28,23.212L173.32,23.212L173.32,24.695999999999998L161.28,24.695999999999998L161.28,23.212Z" fill="#343B45" fill-opacity="1"/></g><g><path d="M206.96,19.064Q206.336,18.968,205.64,18.608Q204.944,18.248,204.704,18.104Q204.07999999999998,17.72,203.768,16.976Q203.456,16.232,203.408,15.416Q200.576,16.04,199.376,16.424Q199.232,16.472,198.89600000000002,16.472Q197.744,16.472,196.4,15.416Q195.056,14.36,194.432,12.824Q194.336,12.44,194.336,12.344Q194.336,11.96,194.576,11.792Q194.816,11.624,195.104,11.624Q197.216,11.624,202.592,11Q201.44,6.392,200.144,4.856Q200,4.616,200,4.424Q200,4.088,200.38400000000001,3.824Q200.768,3.56,201.152,3.656Q203.408,3.848,204.872,4.28Q206.336,4.712,206.96,5.528Q207.488,6.2,207.584,8.36L207.632,10.424Q210.32,10.136,215.6,9.416Q215.648,7.352,215.40800000000002,5.744Q215.168,4.136,214.832,3.368Q214.688,2.984,214.688,2.696Q214.688,2.264,214.928,2Q215.168,1.736,215.40800000000002,1.736Q217.376,1.544,219.89600000000002,2.384Q222.416,3.224,223.328,4.376Q223.61599999999999,4.712,223.61599999999999,5.096Q223.61599999999999,5.336,223.472,5.792Q223.328,6.248,223.232,6.632Q222.94400000000002,7.784,222.848,8.312Q225.008,7.88,225.488,7.88Q225.824,7.88,226.16,8.024Q227.168,8.36,228.05599999999998,9.392Q228.94400000000002,10.424,229.376,11.384Q229.56799999999998,11.864,229.56799999999998,12.056Q229.56799999999998,12.68,228.94400000000002,12.68Q225.632,12.68,220.928,13.064Q219.2,15.656,215.312,18.584Q215.696,18.92,215.792,19.304Q227.45600000000002,18.056,228.992,17.672Q229.664,17.528,230.096,17.528Q231.008,17.528,231.32,17.864Q231.632,18.2,231.68,18.248Q232.304,18.872,232.928,19.856Q233.552,20.84,233.84,21.56Q233.936,21.8,233.936,22.232Q233.936,22.952,233.43200000000002,23.384Q232.928,23.816,232.16,23.816L228.416,23.768Q222.03199999999998,23.768,215.312,24.2Q215.024,26.936,214.88,29.672Q218.336,29.192,219.152,28.376Q219.728,27.8,220.496,27.8Q220.784,27.8,220.928,27.848Q222.07999999999998,28.232,223.304,29.048Q224.528,29.864,225.44,30.728Q226.064,31.304,226.064,32.072Q226.064,32.552,225.728,33.128Q225.296,33.848,225.10399999999998,34.928Q224.912,36.008,224.72,38.072Q224.43200000000002,40.808,224.048,42.68Q223.52,44.696,222.296,45.752Q221.072,46.808,219.728,46.808Q218.912,46.808,218.216,46.376Q217.52,45.944,217.184,45.176Q217.04,44.84,216.89600000000002,44.312Q216.752,43.784,216.656,43.448L208.736,44.312Q208.256,44.312,208.016,44.264Q208.016,45.56,207.536,46.28Q207.056,47,206.192,47Q206,47,205.61599999999999,46.904Q201.392,45.8,201.344,42.44Q201.344,39.128,200.744,35.504Q200.144,31.88,199.28,30.344Q199.04,29.96,199.04,29.624Q199.04,29,200.38400000000001,28.952Q200.768,28.904,201.488,28.904Q204.656,28.904,206.336,30.152L206.72,30.488L208.59199999999998,30.344Q208.832,26.792,208.832,24.728Q200.288,25.688,194.336,27.32Q193.952,27.416,193.712,27.416Q192.608,27.416,191.576,26.504Q190.544,25.592,189.896,24.416Q189.248,23.24,189.248,22.664Q189.248,21.8,190.736,21.8Q192.512,21.8,208.208,20.168Q207.968,19.304,207.728,18.872Q207.44,19.064,206.96,19.064ZM206.912,35Q207.10399999999998,36.872,207.44,39.512Q210.272,39.224,214.496,38.456Q214.784,38.408,215.312,38.408Q216.272,38.408,216.944,38.888Q217.424,36.824,217.424,34.76Q217.424,33.992,216.944,34.136Q215.168,34.28,214.448,34.328Q213.10399999999998,34.472,211.208,34.616Q209.312,34.76,206.912,35ZM207.776,16.904Q208.208,16.376,208.976,16.52Q210.032,16.664,211.568,17.096Q213.10399999999998,17.528,214.208,17.96Q214.784,16.184,215.216,13.64Q212.816,13.928,207.728,14.648L207.776,16.904ZM246.07999999999998,26.984Q245.696,27.32,244.784,27.464Q244.54399999999998,27.512,244.064,27.512Q242.336,27.512,241.328,26.552Q240.32,25.592,240.32,23.768Q240.32,21.128,242.096,20.312Q242.912,19.928,243.824,19.928Q244.54399999999998,19.928,245.072,20.12Q247.52,20.936,247.52,23.864Q247.52,25.928,246.07999999999998,26.984ZM278.048,23.384Q277.904,23.048,277.52,22.088Q277.376,21.608,277.13599999999997,21.176Q276.896,20.744,276.56,20.36Q274.592,20.504,271.808,21.08Q271.76,23.096,271.08799999999997,24.224Q270.416,25.352,269.312,25.448Q268.544,25.448,267.536,24.464Q266.528,23.48,265.904,22.04Q265.28,20.6,265.472,19.352Q265.52,18.872,265.52,17.768Q265.52,14.888,264.968,11.384Q264.416,7.88,263.744,6.584Q263.6,6.296,263.6,6.008Q263.6,5.576,263.93600000000004,5.264Q264.272,4.952,264.896,4.904Q266.72,4.808,268.304,5.384Q269.88800000000003,5.96,270.704,7.016L270.944,7.352Q272.91200000000003,7.112,274.688,6.8Q276.464,6.488,276.896,6.344Q277.856,6.104,278.576,5.696Q279.296,5.288,279.584,5.192Q280.11199999999997,4.952,280.976,4.952Q281.504,4.952,281.696,5.048Q284,5.96,285.488,7.4Q286.15999999999997,8.216,286.15999999999997,9.032Q286.15999999999997,9.464,285.968,9.992Q285.632,10.808,285.512,11.36Q285.392,11.912,285.2,13.256Q285.008,14.504,284.744,16.304Q284.48,18.104,284.192,19.496Q283.856,20.696,283.448,21.344Q283.04,21.992,281.88800000000003,22.76Q279.824,24.152,279.056,24.152Q278.384,24.152,278.048,23.384ZM256.06399999999996,28.616Q255.92000000000002,28.376,255.92000000000002,28.136Q255.92000000000002,27.752,256.20799999999997,27.512Q256.496,27.272,257.024,27.224Q259.376,27.08,261.44,28.04Q263.216,27.848,264.8,27.608Q266.384,27.368,266.72,27.224Q267.872,26.888,269.024,26.312Q269.79200000000003,26.12,270.224,26.12Q270.704,26.12,270.896,26.216Q273.152,27.272,274.016,28.28Q274.688,28.952,274.688,29.576Q274.688,30.008,274.496,30.392Q274.15999999999997,31.064,274.04,31.544Q273.92,32.024,273.872,33.176Q273.728,34.376,273.416,36.32Q273.104,38.264,272.76800000000003,39.848Q272.576,40.808,272.24,41.408Q271.904,42.008,271.13599999999997,42.728Q269.6,43.832,268.592,43.832Q267.872,43.832,267.488,43.16L267.104,42.2Q266.81600000000003,41.384,266.624,41.048Q265.328,41.096,263.408,41.48Q263.264,43.064,262.64,43.928Q262.016,44.792,261.152,44.792Q260.48,44.792,259.64,43.976Q258.8,43.16,258.176,41.936Q257.552,40.712,257.504,39.56Q257.408,36.44,257.048,33.08Q256.688,29.72,256.06399999999996,28.616ZM262.64,31.88Q262.736,33.416,263.216,37.544Q264.752,37.256,267.248,37.208Q267.296,35.816,267.464,34.256Q267.632,32.696,267.728,31.928L267.728,31.832Q267.728,31.496,267.512,31.328Q267.296,31.16,266.96,31.208Q266.24,31.304,265.04,31.472Q263.84000000000003,31.64,262.64,31.88ZM271.328,14.504L271.472,16.568Q274.448,16.04,277.952,15.8Q278.096,13.928,278.048,12.2Q278.048,11.432,277.28,11.432Q276.8,11.432,273.728,11.816Q271.664,12.104,271.18399999999997,12.152L271.328,14.504ZM274.832,26.792Q274.688,26.504,274.688,26.216Q274.688,25.736,275.12,25.448Q275.552,25.16,276.368,25.16Q277.808,25.16,279.152,25.592Q280.496,26.024,281.312,26.792Q283.23199999999997,26.552,284.91200000000003,26.24Q286.592,25.928,286.976,25.736Q288.08,25.4,288.68,25.112Q289.28,24.824,289.424,24.728Q290.144,24.488,290.72,24.488Q291.248,24.488,291.44,24.632Q293.984,25.592,294.992,26.888Q295.616,27.8,295.616,28.424Q295.616,28.856,295.424,29.288Q295.13599999999997,30.2,294.992,30.8Q294.848,31.4,294.656,32.552Q294.56,33.464,294.08,36.464Q293.6,39.464,293.312,40.376Q293.12,41.432,292.76,42.08Q292.4,42.728,291.44,43.544Q289.712,44.984,288.704,44.984Q287.93600000000004,44.984,287.552,44.12Q287.168,43.304,287.024,42.824Q286.736,42.152,286.472,41.72Q286.20799999999997,41.288,285.68,40.808Q284,40.808,282.416,41.048Q282.272,42.536,281.744,43.352Q281.216,44.168,280.496,44.168Q280.11199999999997,44.168,279.584,43.88Q278.096,42.968,277.06399999999996,41.816Q276.032,40.664,276.224,38.984Q276.32,37.64,276.32,36.68Q276.32,33.848,275.88800000000003,30.872Q275.456,27.896,274.832,26.792ZM281.79200000000003,31.112Q281.84000000000003,32.168,282.224,36.92Q284.81600000000003,36.488,287.552,36.632Q288.08,32.984,288.032,31.112Q288.032,30.44,287.264,30.44L285.488,30.68Q284.576,30.776,283.592,30.92Q282.608,31.064,281.79200000000003,31.112ZM310.592,20.168Q310.06399999999996,19.544,309.824,19.088Q309.584,18.632,309.584,17.864Q309.584,15.896,309.368,12.848Q309.152,9.8,308.86400000000003,8.936Q308.672,8.456,309.008,8.144Q309.344,7.832,310.016,7.832Q310.928,7.832,312.128,8.216Q313.328,8.6,313.904,9.128Q314.288,9.464,314.384,9.896Q314.48,10.328,314.432,11.192Q314.384,11.288,314.384,12.008Q314.384,12.104,314.528,17.432L314.624,19.688Q314.624,21.944,313.424,21.944Q312.8,21.944,311.984,21.392Q311.168,20.84,310.592,20.168ZM303.68,33.992Q307.472,31.928,311.456,28.976Q315.44,26.024,318.224,23.168Q321.00800000000004,20.312,321.536,18.536Q321.68,18.056,321.91999999999996,17.84Q322.15999999999997,17.624,322.592,17.624Q322.928,17.624,323.12,17.672Q326.384,18.488,327.296,19.4Q327.872,19.832,327.872,20.312Q327.872,20.648,327.68,20.888Q329.93600000000004,22.664,333.10400000000004,24.584Q336.272,26.504,338.24,27.416Q341.88800000000003,29.096,345.584,30.056Q346.496,30.296,346.496,30.584Q346.496,30.824,345.96799999999996,31.208Q344.91200000000003,31.976,343.496,32.696Q342.08000000000004,33.416,340.832,33.752Q340.06399999999996,33.944,339.152,33.944Q337.52,33.944,336.368,33.032Q334.496,31.544,332.048,29.336Q327.584,25.4,325.23199999999997,23.672Q323.072,25.88,321.296,27.32L326.624,26.408Q327.00800000000004,26.312,327.584,26.312Q328.11199999999997,26.312,328.352,26.504Q328.832,26.84,329.408,27.488Q329.98400000000004,28.136,330.224,28.616L330.32,29Q330.32,29.624,329.264,29.768L327.10400000000004,29.96Q327.10400000000004,30.392,327.05600000000004,30.632Q327.00800000000004,30.872,326.91200000000003,31.832Q330.224,31.304,331.03999999999996,31.16Q331.28,31.112,331.664,31.112Q332.192,31.112,332.528,31.304Q333.10400000000004,31.64,333.776,32.456Q334.448,33.272,334.736,33.992Q334.784,34.088,334.784,34.328Q334.784,35.096,333.728,35.24Q333.344,35.24,332.096,35.336Q333.584,35.864,334.496,36.68Q334.832,37.016,334.832,37.4Q334.832,38.024,333.728,38.84Q331.328,40.472,329.264,41.624Q333.296,41.288,334.976,41Q335.216,40.952,335.6,40.952Q336.464,40.952,337.23199999999997,41.528Q337.664,41.912,338.288,42.92Q338.91200000000003,43.928,339.10400000000004,44.744Q339.152,44.888,339.152,45.128Q339.152,45.848,338,45.848L336.128,45.848Q330.608,45.848,323.79200000000003,46.16Q316.976,46.472,314.048,47.048Q313.904,47.096,313.616,47.096Q312.416,47.096,311.312,46.016Q310.20799999999997,44.936,309.392,43.688Q309.056,43.208,309.056,42.968Q309.056,42.776,309.392,42.68Q309.728,42.584,310.544,42.584Q313.616,42.584,317.072,42.392Q316.832,42.2,316.736,42.008Q316.352,41.288,315.824,39.896Q315.104,37.976,314.72,37.352L314.672,37.208Q313.904,36.92,313.256,36.2Q312.608,35.48,312.32,34.712Q312.224,34.52,312.224,34.232Q312.224,33.512,313.13599999999997,33.464Q314.81600000000003,33.464,321.10400000000004,32.6L320.96000000000004,30.584L320,30.632Q318.848,30.632,317.93600000000004,29.816Q310.88,34.52,304.15999999999997,35.144L303.824,35.144Q303.008,35.144,303.008,34.76Q303.008,34.376,303.68,33.992ZM315.584,5.288Q315.488,4.952,315.728,4.568Q315.968,4.184,316.688,4.184Q317.744,4.232,319.23199999999997,4.64Q320.72,5.048,321.248,5.576Q321.68,5.96,321.824,6.344Q321.96799999999996,6.728,321.91999999999996,7.544Q321.68,10.136,321.584,14.12L321.488,17.096Q321.392,18.584,320.648,19.688Q319.904,20.792,318.89599999999996,20.792Q317.88800000000003,20.792,316.88,19.448Q315.824,18.248,316.06399999999996,16.184Q316.304,13.64,316.304,11.768Q316.304,9.656,316.08799999999997,7.904Q315.872,6.152,315.584,5.288ZM316.352,37.208Q318.08000000000004,37.784,319.08799999999997,38.648Q320.24,39.608,320.24,40.664Q320.24,41.144,319.928,41.6Q319.616,42.056,319.08799999999997,42.344L321.152,42.2Q321.2,40.616,321.2,36.488Q317.696,36.92,316.352,37.208ZM322.928,16.568Q324.704,13.736,326.144,10.064Q327.584,6.392,327.584,3.944Q327.584,3.32,327.536,3.032Q327.44,2.504,327.68,2.216Q327.91999999999996,1.928,328.448,1.928Q328.784,1.928,328.976,1.976Q332.336,3.08,333.44,5.144Q333.728,5.528,333.728,6.2Q333.728,6.68,333.512,7.16Q333.296,7.64,333.03200000000004,8.12Q332.76800000000003,8.6,332.624,8.84L331.904,9.944L337.18399999999997,9.032Q338,8.888,338.528,8.888Q339.584,8.888,340.11199999999997,9.416Q340.832,9.992,342.03200000000004,11.624Q342.224,11.96,342.224,12.296Q342.224,13.064,341.264,13.112L338.72,13.448Q334.06399999999996,13.928,331.712,14.504Q331.08799999999997,14.648,330.56,14.648Q329.696,14.648,329.024,14.12L328.496,13.688Q326.192,15.704,323.312,17.096L323.12,17.192Q322.928,17.192,322.832,16.976Q322.736,16.76,322.928,16.568ZM327.296,41.816Q328.15999999999997,40.52,328.832,38.576Q329.504,36.632,329.6,35.528L326.72,35.816Q326.624,39.848,326.624,41.864L327.296,41.816ZM329.264,16.664Q328.976,16.376,328.976,16.136Q328.976,15.896,329.168,15.776Q329.36,15.656,329.696,15.656Q333.96799999999996,15.656,335.648,17.288Q336.89599999999996,18.488,336.89599999999996,20.024Q336.89599999999996,20.744,336.56,21.368Q336.224,21.992,335.648,22.328Q335.168,22.616,334.736,22.616Q333.872,22.616,333.2,21.512Q330.656,18.2,329.264,16.664ZM357.91999999999996,26.984Q357.536,27.32,356.624,27.464Q356.384,27.512,355.904,27.512Q354.176,27.512,353.168,26.552Q352.15999999999997,25.592,352.15999999999997,23.768Q352.15999999999997,21.128,353.93600000000004,20.312Q354.752,19.928,355.664,19.928Q356.384,19.928,356.91200000000003,20.12Q359.36,20.936,359.36,23.864Q359.36,25.928,357.91999999999996,26.984ZM382.11199999999997,46.088Q381.248,45.656,380.336,44.6Q379.424,43.544,378.94399999999996,42.488Q378.848,42.2,378.848,42.056Q378.848,41.576,379.52,41.048Q380.91200000000003,39.8,381.10400000000004,38.552Q381.296,36.776,381.632,28.472Q381.96799999999996,20.168,382.01599999999996,16.424Q382.01599999999996,14.6,381.872,13.832L380.48,14.024Q380.336,14.552,380.24,15.656Q380.144,16.76,380.144,17Q379.616,27.752,376.256,34.448Q372.89599999999996,41.144,365.98400000000004,45.128Q365.696,45.224,365.552,45.224Q365.264,45.224,365.072,45.104Q364.88,44.984,364.88,44.744Q364.88,44.504,365.12,44.216Q369.91999999999996,38.072,371.672,31.184Q373.424,24.296,373.76,15.992Q373.808,14.648,373.616,13.136Q373.424,11.624,373.08799999999997,10.472Q372.99199999999996,10.088,372.99199999999996,9.944Q372.99199999999996,9.176,374,9.176Q375.872,9.176,377.528,9.728Q379.18399999999997,10.28,380.192,11.192Q383.93600000000004,9.368,387.10400000000004,7.208Q390.272,5.048,391.424,3.368Q391.904,2.552,392.48,2.552Q392.91200000000003,2.552,393.248,2.84Q394.4,3.56,395.6,5Q396.8,6.44,397.13599999999997,7.64Q397.18399999999997,7.784,397.18399999999997,8.072Q397.18399999999997,8.888,396.176,9.512Q394.736,10.376,392.12,11.288Q389.504,12.2,386.528,12.92Q387.2,13.16,387.584,13.448Q387.96799999999996,13.784,387.96799999999996,14.408Q388.784,13.88,389.93600000000004,13.88Q390.464,13.88,390.608,13.976Q391.328,14.312,391.76,15.056Q392.192,15.8,393.10400000000004,17.672Q394.64,20.888,397.784,25.304Q400.928,29.72,403.616,32.888Q405.296,34.616,407.312,36.56Q409.328,38.504,410.624,39.416Q411.248,39.848,411.248,40.328Q411.248,40.808,410.576,40.952Q408.752,41.336,406.352,41.672Q403.952,42.008,402.704,42.008Q401.312,42.008,400.64,41.576Q399.96799999999996,41.144,399.416,40.448Q398.86400000000003,39.752,398.576,39.416Q396.368,36.248,393.248,29.696Q390.128,23.144,388.688,18.296Q388.448,17.432,387.872,16.52Q387.776,19.016,387.584,21.896L387.00800000000004,31.4Q386.72,36.68,386.72,36.872L386.72,37.064Q386.72,37.592,387.10400000000004,37.4L390.03200000000004,35.624Q389.456,33.752,389.072,33.032Q388.832,32.312,388.832,32.072Q388.832,31.448,389.456,31.448Q389.648,31.448,390.03200000000004,31.544Q391.808,32.12,393.584,33.608Q395.36,35.096,396.224,36.776Q396.752,37.832,396.752,38.984Q396.752,40.136,396.224,41.072Q395.696,42.008,394.784,42.584Q394.20799999999997,42.872,393.68,42.872Q393.05600000000004,42.872,392.576,42.464Q392.096,42.056,391.904,41.288L390.656,37.4Q388.688,40.568,387.296,42.632Q385.904,44.696,384.608,45.992Q384.08000000000004,46.568,383.504,46.568Q382.976,46.568,382.11199999999997,46.088Z" fill="url(#master_svg0_53_6657)" fill-opacity="1"/><path d="M206.96,19.064Q206.336,18.968,205.64,18.608Q204.944,18.248,204.704,18.104Q204.07999999999998,17.72,203.768,16.976Q203.456,16.232,203.408,15.416Q200.576,16.04,199.376,16.424Q199.232,16.472,198.89600000000002,16.472Q197.744,16.472,196.4,15.416Q195.056,14.36,194.432,12.824Q194.336,12.44,194.336,12.344Q194.336,11.96,194.576,11.792Q194.816,11.624,195.104,11.624Q197.216,11.624,202.592,11Q201.44,6.392,200.144,4.856Q200,4.616,200,4.424Q200,4.088,200.38400000000001,3.824Q200.768,3.56,201.152,3.656Q203.408,3.848,204.872,4.28Q206.336,4.712,206.96,5.528Q207.488,6.2,207.584,8.36L207.632,10.424Q210.32,10.136,215.6,9.416Q215.648,7.352,215.40800000000002,5.744Q215.168,4.136,214.832,3.368Q214.688,2.984,214.688,2.696Q214.688,2.264,214.928,2Q215.168,1.736,215.40800000000002,1.736Q217.376,1.544,219.89600000000002,2.384Q222.416,3.224,223.328,4.376Q223.61599999999999,4.712,223.61599999999999,5.096Q223.61599999999999,5.336,223.472,5.792Q223.328,6.248,223.232,6.632Q222.94400000000002,7.784,222.848,8.312Q225.008,7.88,225.488,7.88Q225.824,7.88,226.16,8.024Q227.168,8.36,228.05599999999998,9.392Q228.94400000000002,10.424,229.376,11.384Q229.56799999999998,11.864,229.56799999999998,12.056Q229.56799999999998,12.68,228.94400000000002,12.68Q225.632,12.68,220.928,13.064Q219.2,15.656,215.312,18.584Q215.696,18.92,215.792,19.304Q227.45600000000002,18.056,228.992,17.672Q229.664,17.528,230.096,17.528Q231.008,17.528,231.32,17.864Q231.632,18.2,231.68,18.248Q232.304,18.872,232.928,19.856Q233.552,20.84,233.84,21.56Q233.936,21.8,233.936,22.232Q233.936,22.952,233.43200000000002,23.384Q232.928,23.816,232.16,23.816L228.416,23.768Q222.03199999999998,23.768,215.312,24.2Q215.024,26.936,214.88,29.672Q218.336,29.192,219.152,28.376Q219.728,27.8,220.496,27.8Q220.784,27.8,220.928,27.848Q222.07999999999998,28.232,223.304,29.048Q224.528,29.864,225.44,30.728Q226.064,31.304,226.064,32.072Q226.064,32.552,225.728,33.128Q225.296,33.848,225.10399999999998,34.928Q224.912,36.008,224.72,38.072Q224.43200000000002,40.808,224.048,42.68Q223.52,44.696,222.296,45.752Q221.072,46.808,219.728,46.808Q218.912,46.808,218.216,46.376Q217.52,45.944,217.184,45.176Q217.04,44.84,216.89600000000002,44.312Q216.752,43.784,216.656,43.448L208.736,44.312Q208.256,44.312,208.016,44.264Q208.016,45.56,207.536,46.28Q207.056,47,206.192,47Q206,47,205.61599999999999,46.904Q201.392,45.8,201.344,42.44Q201.344,39.128,200.744,35.504Q200.144,31.88,199.28,30.344Q199.04,29.96,199.04,29.624Q199.04,29,200.38400000000001,28.952Q200.768,28.904,201.488,28.904Q204.656,28.904,206.336,30.152L206.72,30.488L208.59199999999998,30.344Q208.832,26.792,208.832,24.728Q200.288,25.688,194.336,27.32Q193.952,27.416,193.712,27.416Q192.608,27.416,191.576,26.504Q190.544,25.592,189.896,24.416Q189.248,23.24,189.248,22.664Q189.248,21.8,190.736,21.8Q192.512,21.8,208.208,20.168Q207.968,19.304,207.728,18.872Q207.44,19.064,206.96,19.064ZM206.912,35Q207.10399999999998,36.872,207.44,39.512Q210.272,39.224,214.496,38.456Q214.784,38.408,215.312,38.408Q216.272,38.408,216.944,38.888Q217.424,36.824,217.424,34.76Q217.424,33.992,216.944,34.136Q215.168,34.28,214.448,34.328Q213.10399999999998,34.472,211.208,34.616Q209.312,34.76,206.912,35ZM207.776,16.904Q208.208,16.376,208.976,16.52Q210.032,16.664,211.568,17.096Q213.10399999999998,17.528,214.208,17.96Q214.784,16.184,215.216,13.64Q212.816,13.928,207.728,14.648L207.776,16.904ZM246.07999999999998,26.984Q245.696,27.32,244.784,27.464Q244.54399999999998,27.512,244.064,27.512Q242.336,27.512,241.328,26.552Q240.32,25.592,240.32,23.768Q240.32,21.128,242.096,20.312Q242.912,19.928,243.824,19.928Q244.54399999999998,19.928,245.072,20.12Q247.52,20.936,247.52,23.864Q247.52,25.928,246.07999999999998,26.984ZM278.048,23.384Q277.904,23.048,277.52,22.088Q277.376,21.608,277.13599999999997,21.176Q276.896,20.744,276.56,20.36Q274.592,20.504,271.808,21.08Q271.76,23.096,271.08799999999997,24.224Q270.416,25.352,269.312,25.448Q268.544,25.448,267.536,24.464Q266.528,23.48,265.904,22.04Q265.28,20.6,265.472,19.352Q265.52,18.872,265.52,17.768Q265.52,14.888,264.968,11.384Q264.416,7.88,263.744,6.584Q263.6,6.296,263.6,6.008Q263.6,5.576,263.93600000000004,5.264Q264.272,4.952,264.896,4.904Q266.72,4.808,268.304,5.384Q269.88800000000003,5.96,270.704,7.016L270.944,7.352Q272.91200000000003,7.112,274.688,6.8Q276.464,6.488,276.896,6.344Q277.856,6.104,278.576,5.696Q279.296,5.288,279.584,5.192Q280.11199999999997,4.952,280.976,4.952Q281.504,4.952,281.696,5.048Q284,5.96,285.488,7.4Q286.15999999999997,8.216,286.15999999999997,9.032Q286.15999999999997,9.464,285.968,9.992Q285.632,10.808,285.512,11.36Q285.392,11.912,285.2,13.256Q285.008,14.504,284.744,16.304Q284.48,18.104,284.192,19.496Q283.856,20.696,283.448,21.344Q283.04,21.992,281.88800000000003,22.76Q279.824,24.152,279.056,24.152Q278.384,24.152,278.048,23.384ZM256.06399999999996,28.616Q255.92000000000002,28.376,255.92000000000002,28.136Q255.92000000000002,27.752,256.20799999999997,27.512Q256.496,27.272,257.024,27.224Q259.376,27.08,261.44,28.04Q263.216,27.848,264.8,27.608Q266.384,27.368,266.72,27.224Q267.872,26.888,269.024,26.312Q269.79200000000003,26.12,270.224,26.12Q270.704,26.12,270.896,26.216Q273.152,27.272,274.016,28.28Q274.688,28.952,274.688,29.576Q274.688,30.008,274.496,30.392Q274.15999999999997,31.064,274.04,31.544Q273.92,32.024,273.872,33.176Q273.728,34.376,273.416,36.32Q273.104,38.264,272.76800000000003,39.848Q272.576,40.808,272.24,41.408Q271.904,42.008,271.13599999999997,42.728Q269.6,43.832,268.592,43.832Q267.872,43.832,267.488,43.16L267.104,42.2Q266.81600000000003,41.384,266.624,41.048Q265.328,41.096,263.408,41.48Q263.264,43.064,262.64,43.928Q262.016,44.792,261.152,44.792Q260.48,44.792,259.64,43.976Q258.8,43.16,258.176,41.936Q257.552,40.712,257.504,39.56Q257.408,36.44,257.048,33.08Q256.688,29.72,256.06399999999996,28.616ZM262.64,31.88Q262.736,33.416,263.216,37.544Q264.752,37.256,267.248,37.208Q267.296,35.816,267.464,34.256Q267.632,32.696,267.728,31.928L267.728,31.832Q267.728,31.496,267.512,31.328Q267.296,31.16,266.96,31.208Q266.24,31.304,265.04,31.472Q263.84000000000003,31.64,262.64,31.88ZM271.328,14.504L271.472,16.568Q274.448,16.04,277.952,15.8Q278.096,13.928,278.048,12.2Q278.048,11.432,277.28,11.432Q276.8,11.432,273.728,11.816Q271.664,12.104,271.18399999999997,12.152L271.328,14.504ZM274.832,26.792Q274.688,26.504,274.688,26.216Q274.688,25.736,275.12,25.448Q275.552,25.16,276.368,25.16Q277.808,25.16,279.152,25.592Q280.496,26.024,281.312,26.792Q283.23199999999997,26.552,284.91200000000003,26.24Q286.592,25.928,286.976,25.736Q288.08,25.4,288.68,25.112Q289.28,24.824,289.424,24.728Q290.144,24.488,290.72,24.488Q291.248,24.488,291.44,24.632Q293.984,25.592,294.992,26.888Q295.616,27.8,295.616,28.424Q295.616,28.856,295.424,29.288Q295.13599999999997,30.2,294.992,30.8Q294.848,31.4,294.656,32.552Q294.56,33.464,294.08,36.464Q293.6,39.464,293.312,40.376Q293.12,41.432,292.76,42.08Q292.4,42.728,291.44,43.544Q289.712,44.984,288.704,44.984Q287.93600000000004,44.984,287.552,44.12Q287.168,43.304,287.024,42.824Q286.736,42.152,286.472,41.72Q286.20799999999997,41.288,285.68,40.808Q284,40.808,282.416,41.048Q282.272,42.536,281.744,43.352Q281.216,44.168,280.496,44.168Q280.11199999999997,44.168,279.584,43.88Q278.096,42.968,277.06399999999996,41.816Q276.032,40.664,276.224,38.984Q276.32,37.64,276.32,36.68Q276.32,33.848,275.88800000000003,30.872Q275.456,27.896,274.832,26.792ZM281.79200000000003,31.112Q281.84000000000003,32.168,282.224,36.92Q284.81600000000003,36.488,287.552,36.632Q288.08,32.984,288.032,31.112Q288.032,30.44,287.264,30.44L285.488,30.68Q284.576,30.776,283.592,30.92Q282.608,31.064,281.79200000000003,31.112ZM310.592,20.168Q310.06399999999996,19.544,309.824,19.088Q309.584,18.632,309.584,17.864Q309.584,15.896,309.368,12.848Q309.152,9.8,308.86400000000003,8.936Q308.672,8.456,309.008,8.144Q309.344,7.832,310.016,7.832Q310.928,7.832,312.128,8.216Q313.328,8.6,313.904,9.128Q314.288,9.464,314.384,9.896Q314.48,10.328,314.432,11.192Q314.384,11.288,314.384,12.008Q314.384,12.104,314.528,17.432L314.624,19.688Q314.624,21.944,313.424,21.944Q312.8,21.944,311.984,21.392Q311.168,20.84,310.592,20.168ZM303.68,33.992Q307.472,31.928,311.456,28.976Q315.44,26.024,318.224,23.168Q321.00800000000004,20.312,321.536,18.536Q321.68,18.056,321.91999999999996,17.84Q322.15999999999997,17.624,322.592,17.624Q322.928,17.624,323.12,17.672Q326.384,18.488,327.296,19.4Q327.872,19.832,327.872,20.312Q327.872,20.648,327.68,20.888Q329.93600000000004,22.664,333.10400000000004,24.584Q336.272,26.504,338.24,27.416Q341.88800000000003,29.096,345.584,30.056Q346.496,30.296,346.496,30.584Q346.496,30.824,345.96799999999996,31.208Q344.91200000000003,31.976,343.496,32.696Q342.08000000000004,33.416,340.832,33.752Q340.06399999999996,33.944,339.152,33.944Q337.52,33.944,336.368,33.032Q334.496,31.544,332.048,29.336Q327.584,25.4,325.23199999999997,23.672Q323.072,25.88,321.296,27.32L326.624,26.408Q327.00800000000004,26.312,327.584,26.312Q328.11199999999997,26.312,328.352,26.504Q328.832,26.84,329.408,27.488Q329.98400000000004,28.136,330.224,28.616L330.32,29Q330.32,29.624,329.264,29.768L327.10400000000004,29.96Q327.10400000000004,30.392,327.05600000000004,30.632Q327.00800000000004,30.872,326.91200000000003,31.832Q330.224,31.304,331.03999999999996,31.16Q331.28,31.112,331.664,31.112Q332.192,31.112,332.528,31.304Q333.10400000000004,31.64,333.776,32.456Q334.448,33.272,334.736,33.992Q334.784,34.088,334.784,34.328Q334.784,35.096,333.728,35.24Q333.344,35.24,332.096,35.336Q333.584,35.864,334.496,36.68Q334.832,37.016,334.832,37.4Q334.832,38.024,333.728,38.84Q331.328,40.472,329.264,41.624Q333.296,41.288,334.976,41Q335.216,40.952,335.6,40.952Q336.464,40.952,337.23199999999997,41.528Q337.664,41.912,338.288,42.92Q338.91200000000003,43.928,339.10400000000004,44.744Q339.152,44.888,339.152,45.128Q339.152,45.848,338,45.848L336.128,45.848Q330.608,45.848,323.79200000000003,46.16Q316.976,46.472,314.048,47.048Q313.904,47.096,313.616,47.096Q312.416,47.096,311.312,46.016Q310.20799999999997,44.936,309.392,43.688Q309.056,43.208,309.056,42.968Q309.056,42.776,309.392,42.68Q309.728,42.584,310.544,42.584Q313.616,42.584,317.072,42.392Q316.832,42.2,316.736,42.008Q316.352,41.288,315.824,39.896Q315.104,37.976,314.72,37.352L314.672,37.208Q313.904,36.92,313.256,36.2Q312.608,35.48,312.32,34.712Q312.224,34.52,312.224,34.232Q312.224,33.512,313.13599999999997,33.464Q314.81600000000003,33.464,321.10400000000004,32.6L320.96000000000004,30.584L320,30.632Q318.848,30.632,317.93600000000004,29.816Q310.88,34.52,304.15999999999997,35.144L303.824,35.144Q303.008,35.144,303.008,34.76Q303.008,34.376,303.68,33.992ZM315.584,5.288Q315.488,4.952,315.728,4.568Q315.968,4.184,316.688,4.184Q317.744,4.232,319.23199999999997,4.64Q320.72,5.048,321.248,5.576Q321.68,5.96,321.824,6.344Q321.96799999999996,6.728,321.91999999999996,7.544Q321.68,10.136,321.584,14.12L321.488,17.096Q321.392,18.584,320.648,19.688Q319.904,20.792,318.89599999999996,20.792Q317.88800000000003,20.792,316.88,19.448Q315.824,18.248,316.06399999999996,16.184Q316.304,13.64,316.304,11.768Q316.304,9.656,316.08799999999997,7.904Q315.872,6.152,315.584,5.288ZM316.352,37.208Q318.08000000000004,37.784,319.08799999999997,38.648Q320.24,39.608,320.24,40.664Q320.24,41.144,319.928,41.6Q319.616,42.056,319.08799999999997,42.344L321.152,42.2Q321.2,40.616,321.2,36.488Q317.696,36.92,316.352,37.208ZM322.928,16.568Q324.704,13.736,326.144,10.064Q327.584,6.392,327.584,3.944Q327.584,3.32,327.536,3.032Q327.44,2.504,327.68,2.216Q327.91999999999996,1.928,328.448,1.928Q328.784,1.928,328.976,1.976Q332.336,3.08,333.44,5.144Q333.728,5.528,333.728,6.2Q333.728,6.68,333.512,7.16Q333.296,7.64,333.03200000000004,8.12Q332.76800000000003,8.6,332.624,8.84L331.904,9.944L337.18399999999997,9.032Q338,8.888,338.528,8.888Q339.584,8.888,340.11199999999997,9.416Q340.832,9.992,342.03200000000004,11.624Q342.224,11.96,342.224,12.296Q342.224,13.064,341.264,13.112L338.72,13.448Q334.06399999999996,13.928,331.712,14.504Q331.08799999999997,14.648,330.56,14.648Q329.696,14.648,329.024,14.12L328.496,13.688Q326.192,15.704,323.312,17.096L323.12,17.192Q322.928,17.192,322.832,16.976Q322.736,16.76,322.928,16.568ZM327.296,41.816Q328.15999999999997,40.52,328.832,38.576Q329.504,36.632,329.6,35.528L326.72,35.816Q326.624,39.848,326.624,41.864L327.296,41.816ZM329.264,16.664Q328.976,16.376,328.976,16.136Q328.976,15.896,329.168,15.776Q329.36,15.656,329.696,15.656Q333.96799999999996,15.656,335.648,17.288Q336.89599999999996,18.488,336.89599999999996,20.024Q336.89599999999996,20.744,336.56,21.368Q336.224,21.992,335.648,22.328Q335.168,22.616,334.736,22.616Q333.872,22.616,333.2,21.512Q330.656,18.2,329.264,16.664ZM357.91999999999996,26.984Q357.536,27.32,356.624,27.464Q356.384,27.512,355.904,27.512Q354.176,27.512,353.168,26.552Q352.15999999999997,25.592,352.15999999999997,23.768Q352.15999999999997,21.128,353.93600000000004,20.312Q354.752,19.928,355.664,19.928Q356.384,19.928,356.91200000000003,20.12Q359.36,20.936,359.36,23.864Q359.36,25.928,357.91999999999996,26.984ZM382.11199999999997,46.088Q381.248,45.656,380.336,44.6Q379.424,43.544,378.94399999999996,42.488Q378.848,42.2,378.848,42.056Q378.848,41.576,379.52,41.048Q380.91200000000003,39.8,381.10400000000004,38.552Q381.296,36.776,381.632,28.472Q381.96799999999996,20.168,382.01599999999996,16.424Q382.01599999999996,14.6,381.872,13.832L380.48,14.024Q380.336,14.552,380.24,15.656Q380.144,16.76,380.144,17Q379.616,27.752,376.256,34.448Q372.89599999999996,41.144,365.98400000000004,45.128Q365.696,45.224,365.552,45.224Q365.264,45.224,365.072,45.104Q364.88,44.984,364.88,44.744Q364.88,44.504,365.12,44.216Q369.91999999999996,38.072,371.672,31.184Q373.424,24.296,373.76,15.992Q373.808,14.648,373.616,13.136Q373.424,11.624,373.08799999999997,10.472Q372.99199999999996,10.088,372.99199999999996,9.944Q372.99199999999996,9.176,374,9.176Q375.872,9.176,377.528,9.728Q379.18399999999997,10.28,380.192,11.192Q383.93600000000004,9.368,387.10400000000004,7.208Q390.272,5.048,391.424,3.368Q391.904,2.552,392.48,2.552Q392.91200000000003,2.552,393.248,2.84Q394.4,3.56,395.6,5Q396.8,6.44,397.13599999999997,7.64Q397.18399999999997,7.784,397.18399999999997,8.072Q397.18399999999997,8.888,396.176,9.512Q394.736,10.376,392.12,11.288Q389.504,12.2,386.528,12.92Q387.2,13.16,387.584,13.448Q387.96799999999996,13.784,387.96799999999996,14.408Q388.784,13.88,389.93600000000004,13.88Q390.464,13.88,390.608,13.976Q391.328,14.312,391.76,15.056Q392.192,15.8,393.10400000000004,17.672Q394.64,20.888,397.784,25.304Q400.928,29.72,403.616,32.888Q405.296,34.616,407.312,36.56Q409.328,38.504,410.624,39.416Q411.248,39.848,411.248,40.328Q411.248,40.808,410.576,40.952Q408.752,41.336,406.352,41.672Q403.952,42.008,402.704,42.008Q401.312,42.008,400.64,41.576Q399.96799999999996,41.144,399.416,40.448Q398.86400000000003,39.752,398.576,39.416Q396.368,36.248,393.248,29.696Q390.128,23.144,388.688,18.296Q388.448,17.432,387.872,16.52Q387.776,19.016,387.584,21.896L387.00800000000004,31.4Q386.72,36.68,386.72,36.872L386.72,37.064Q386.72,37.592,387.10400000000004,37.4L390.03200000000004,35.624Q389.456,33.752,389.072,33.032Q388.832,32.312,388.832,32.072Q388.832,31.448,389.456,31.448Q389.648,31.448,390.03200000000004,31.544Q391.808,32.12,393.584,33.608Q395.36,35.096,396.224,36.776Q396.752,37.832,396.752,38.984Q396.752,40.136,396.224,41.072Q395.696,42.008,394.784,42.584Q394.20799999999997,42.872,393.68,42.872Q393.05600000000004,42.872,392.576,42.464Q392.096,42.056,391.904,41.288L390.656,37.4Q388.688,40.568,387.296,42.632Q385.904,44.696,384.608,45.992Q384.08000000000004,46.568,383.504,46.568Q382.976,46.568,382.11199999999997,46.088Z" fill="#F35231" fill-opacity="1"/></g></g></svg>