<svg xmlns="http://www.w3.org/2000/svg" xmlns:xlink="http://www.w3.org/1999/xlink" fill="none" version="1.1" width="380" height="48" viewBox="0 0 380 48"><defs><linearGradient x1="380" y1="24" x2="188" y2="24" gradientUnits="userSpaceOnUse" id="master_svg0_53_10732"><stop offset="2.857142873108387%" stop-color="#474747" stop-opacity="1"/><stop offset="100%" stop-color="#151515" stop-opacity="1"/></linearGradient></defs><g><g><path d="M2.24,35.7C2.968,34.748000000000005,3.64,33.768,4.34,32.704L4.34,44.94L7.728,44.94L7.728,26.375999999999998C8.596,24.416,9.38,22.4,10.052,20.328L6.496,19.432C5.292,23.996000000000002,3.528,27.916,1.344,31.192C1.596,32.732,1.904,34.104,2.24,35.7ZM24.64,30.380000000000003L26.096,25.872L26.096,22.876L15.456,22.876C15.82,22.008,16.128,21.084,16.464,20.132L12.936,19.628C11.872,23.128,10.5,26.04,8.484,28.84C9.464,29.567999999999998,10.22,30.268,11.144,31.136C12.264,29.512,13.216,27.887999999999998,14.028,26.18L22.596,26.18L21.308,29.596C22.316,29.82,23.604,30.072,24.64,30.380000000000003ZM12.656,44.66C13.832,44.66,15.232,44.632000000000005,16.128,44.548C18.564,44.379999999999995,19.488,43.147999999999996,19.488,40.656L19.488,27.72L16.016,27.72L16.016,39.872C16.016,40.936,15.652,41.328,14.616,41.328C13.636,41.328,12.908,41.3,12.04,41.216C12.236,42.168,12.516,43.708,12.656,44.66ZM23.268,40.964L26.6,39.9C25.732,37.464,24.556,34.16,23.352,30.912L20.216,31.808C21.28,34.86,22.316,38.052,23.268,40.964ZM11.676,40.936C12.824,38.108000000000004,14.196,34.495999999999995,15.148,31.752000000000002L12.012,30.716C11.116,33.292,9.772,36.932,8.512,39.620000000000005C9.772,40.04,10.64,40.46,11.676,40.936ZM43.96,30.464C44.548,29.344,45.08,28.168,45.612,26.908L50.26,26.908C50.232,30.380000000000003,50.12,35.952,50.008,38.556C49.952,40.376000000000005,49.364,41.019999999999996,47.544,41.019999999999996C46.284,41.019999999999996,44.94,40.992000000000004,43.708,40.936C43.932,41.972,44.184,43.147999999999996,44.408,44.519999999999996C46.06,44.519999999999996,47.656,44.492000000000004,48.972,44.408C52.276,44.239999999999995,53.368,42.728,53.452,39.284C53.564,35.504000000000005,53.704,29.82,53.844,23.548000000000002L46.928,23.548000000000002L48.048,20.244L44.604,19.432C43.652,22.82,42.364,26.012,40.992,28.756L40.992,23.548000000000002L36.904,23.548000000000002C37.212,22.456,37.52,21.336,37.884,20.048000000000002L34.132,19.516C33.908,20.748,33.628,22.12,33.264,23.548000000000002L30.408,23.548000000000002L30.408,44.632000000000005L33.74,44.632000000000005L33.74,42.756L37.66,42.756L37.66,44.464L40.992,44.464L40.992,28.868000000000002C42,29.344,43.036,29.932000000000002,43.96,30.464ZM46.172,37.519999999999996L49.14,35.56C47.824,33.712,46.536,32.004,45.192,30.212L42.504,32.004C43.848,33.852000000000004,45.08,35.784,46.172,37.519999999999996ZM33.74,34.832L37.66,34.832L37.66,39.424L33.74,39.424L33.74,34.832ZM33.74,26.880000000000003L37.66,26.880000000000003L37.66,31.5L33.74,31.5L33.74,26.880000000000003ZM62.916,33.628L63.784,33.628C64.708,33.628,65.296,34.412,65.296,36.036C65.296,36.848,65.212,37.632000000000005,65.044,38.556C64.876,39.424,64.764,40.263999999999996,64.764,41.076C64.764,44.1,66.108,45.472,68.964,45.472L69.888,45.472L69.888,43.372L68.964,43.372C67.564,43.372,66.976,42.7,66.976,41.076C66.976,40.348,67.088,39.367999999999995,67.256,38.611999999999995C67.424,37.8,67.536,36.932,67.536,36.036C67.536,34.44,66.696,33.32,65.436,32.564C66.668,31.948,67.536,30.856,67.536,29.092C67.536,28.224,67.424,27.356,67.256,26.544C67.088,25.759999999999998,66.976,24.724,66.976,24.024C66.976,22.512,67.508,21.756,68.964,21.756L69.888,21.756L69.888,19.656L68.964,19.656C66.08,19.656,64.708,21.252,64.764,24.024C64.792,24.892,64.932,25.788,65.072,26.6C65.24,27.496000000000002,65.296,28.28,65.296,29.092C65.296,30.716,64.736,31.528,63.784,31.528L62.916,31.528L62.916,33.628ZM80.22,31.584C80.416,30.52,80.668,29.372,80.836,28.224L82.432,28.224L82.432,33.376000000000005L78.176,34.188L78.456,37.884L82.432,36.903999999999996L82.432,44.995999999999995L85.624,44.995999999999995L85.624,36.092C86.24,35.980000000000004,86.884,35.84,87.528,35.672C87.472,34.748000000000005,87.444,33.544,87.444,32.256L85.624,32.704L85.624,28.224L87.472,28.224L87.472,25.060000000000002L85.624,25.060000000000002L85.624,19.544L82.432,19.544L82.432,25.060000000000002L81.088,25.060000000000002L81.396,21.951999999999998L79.24,21.756C78.988,25.732,78.624,28.42,78.036,30.8L80.22,31.584ZM88.144,36.092L90.804,36.092L88.62,37.912C89.768,39.172,90.692,40.348,91.7,41.635999999999996L94.192,39.592C93.1,38.388000000000005,92.008,37.212,90.916,36.092L96.936,36.092L96.936,39.956C96.936,41.076,96.544,41.495999999999995,95.396,41.495999999999995C94.528,41.495999999999995,93.436,41.468,92.484,41.44C92.764,42.672,92.96,43.68,93.1,44.744C94.304,44.744,95.704,44.744,97.02,44.688C99.456,44.548,100.296,43.484,100.296,40.824L100.296,36.092L102.872,36.092L102.872,33.068L100.296,33.068L100.296,31.444000000000003L96.936,31.444000000000003L96.936,33.068L88.144,33.068L88.144,36.092ZM88.844,25.451999999999998L93.66,25.451999999999998L93.66,27.804000000000002L87.864,27.804000000000002L87.864,30.828L103.068,30.828L103.068,27.804000000000002L97.02,27.804000000000002L97.02,25.451999999999998L101.976,25.451999999999998L101.976,22.428L97.02,22.428L97.02,19.488L93.66,19.488L93.66,22.428L88.844,22.428L88.844,25.451999999999998ZM108.64,45.108000000000004C111.076,41.244,111.72,38.275999999999996,111.72,31.668L111.72,24.052C114.38,24.024,117.012,23.912,119.56,23.8L119.56,25.816000000000003L112.42,25.816000000000003L112.42,28.728L119.56,28.728L119.56,30.576L113.4,30.576L113.4,39.088L116.676,39.088L116.676,33.488L126.224,33.488L126.224,39.088L129.5,39.088L129.5,30.576L123.004,30.576L123.004,28.728L130.76,28.728L130.76,25.816000000000003L123.004,25.816000000000003L123.004,23.604C125.72,23.464,128.24,23.268,130.48,23.044L129.248,19.908C122.864,20.58,116.564,20.887999999999998,108.304,21L108.304,31.584C108.304,37.1,107.8,39.367999999999995,106.008,42.532C106.904,43.344,107.828,44.268,108.64,45.108000000000004ZM112.7,45.108000000000004C117.292,44.044,119.952,42.644,121.464,40.768C124.012,42.028,126.7,43.456,129.444,45.052L131.152,42C128.1,40.6,125.328,39.396,122.668,38.388000000000005C122.864,37.828,122.976,37.296,123.088,36.708C123.2,35.980000000000004,123.256,35.168,123.284,34.384L119.812,34.384C119.812,35.224000000000004,119.728,36.036,119.588,36.708C119.028,39.312,117.236,40.712,110.992,42.056C111.636,43.092,112.252,44.184,112.7,45.108000000000004ZM146.412,33.628L146.412,31.528L145.516,31.528C144.564,31.528,144.004,30.716,144.004,29.092C144.004,28.308,144.088,27.468,144.228,26.6C144.368,25.788,144.508,24.892,144.536,24.024C144.592,21.252,143.248,19.656,140.336,19.656L139.44,19.656L139.44,21.756L140.336,21.756C141.792,21.756,142.324,22.512,142.324,24.024C142.324,24.724,142.212,25.759999999999998,142.044,26.544C141.876,27.356,141.764,28.224,141.764,29.092C141.764,30.856,142.66,31.948,143.864,32.564C142.632,33.32,141.764,34.44,141.764,36.036C141.764,36.932,141.876,37.8,142.044,38.611999999999995C142.212,39.367999999999995,142.324,40.348,142.324,41.076C142.324,42.7,141.736,43.372,140.336,43.372L139.44,43.372L139.44,45.472L140.336,45.472C143.22,45.472,144.536,44.1,144.536,41.076C144.536,40.263999999999996,144.424,39.424,144.256,38.556C144.088,37.632000000000005,144.004,36.848,144.004,36.036C144.004,34.412,144.592,33.628,145.516,33.628L146.412,33.628ZM155.036,35.14L165.928,35.14L165.928,41.076C163.94,40.739999999999995,162.708,39.928,161.756,38.36C161.924,37.66,162.092,36.876000000000005,162.26,36.007999999999996L159.04,35.56C158.62,39.256,157.668,40.712,154.728,42.784C155.54,43.652,156.24,44.519999999999996,156.884,45.248000000000005C158.676,43.988,159.824,42.812,160.636,41.356C162.288,43.54,164.472,44.128,168.672,44.184C172.116,44.268,175.924,44.296,179.088,44.296C179.312,43.428,179.564,42.391999999999996,179.872,41.328C176.484,41.384,172.256,41.384,169.288,41.356L169.288,39.452L177.716,39.452L177.716,36.82L169.288,36.82L169.288,35.14L179.648,35.14L179.648,32.284L155.036,32.284L155.036,35.14ZM157.836,30.884L176.764,30.884L176.764,20.468L157.836,20.468L157.836,30.884ZM161.28,26.796L173.32,26.796L173.32,28.364L161.28,28.364L161.28,26.796ZM161.28,23.212L173.32,23.212L173.32,24.695999999999998L161.28,24.695999999999998L161.28,23.212Z" fill="#343B45" fill-opacity="1"/></g><g><path d="M196.736,31.736Q196.208,31.736,195.464,31.256Q194.72,30.776,194.096,30.2Q193.664,29.864,193.52,29.504Q193.376,29.144,193.376,28.664Q193.376,28.424,193.472,27.56Q193.568,26.024,193.568,24.632Q193.568,20.408,193.04,17Q192.752,15.176,192.56,14.648Q192.368,14.312,192.368,14.024Q192.368,13.4,193.52,13.4Q194.528,13.4,195.68,13.808Q196.832,14.216,197.408,14.744L197.6,14.888Q198.992,14.744,199.328,14.696L199.232,7.736Q199.232,7.4,199.208,6.488Q199.184,5.576,199.064,4.664Q198.944,3.752,198.656,3.032Q198.416,2.552,198.416,2.12Q198.416,1.592,199.184,1.592Q202.592,1.448,204.512,3.32Q204.704,3.512,204.704,3.992Q204.704,4.424,204.632,4.856Q204.56,5.288,204.512,5.72Q204.32,7.064,204.32,8.36L204.224,14.168L204.656,14.072Q205.088,13.976,205.568,13.664Q206.048,13.352,206.576,12.968Q207.008,12.488,207.392,12.488Q207.776,12.488,208.208,12.776Q210.32,14.696,210.752,15.368Q211.232,15.848,211.232,16.328Q211.232,16.616,210.992,17.48Q210.512,18.776,210.248,21.704Q209.984,24.632,209.984,26.888Q209.936,27.992,209.40800000000002,28.856Q208.88,29.72,207.776,30.536Q207.296,30.872,206.816,30.872Q206.24,30.872,206.048,30.152L205.904,29.816L204.224,29.96Q204.272,31.64,204.272,34.856Q206.432,34.088,206.816,33.944L205.856,32.456Q205.856,32.408,205.784,32.288Q205.712,32.168,205.712,32.024Q205.712,31.688,206.432,31.496Q207.2,31.4,207.68,31.4Q209.40800000000002,31.4,211.28,32.456Q212.288,33.08,212.792,33.992Q213.296,34.904,213.296,35.96Q213.296,37.16,212.648,38.12Q212,39.08,210.992,39.32Q210.32,39.416,209.864,39.104Q209.40800000000002,38.792,209.264,38.216Q208.832,36.872,207.488,34.952Q202.304,38.84,196.88,42.632Q195.92,43.304,195.248,43.304Q194.624,43.304,194.096,42.776Q193.328,42.2,192.8,41.36Q192.272,40.52,191.552,39.176Q191.312,38.552,191.312,38.456Q191.312,37.736,192.704,37.688Q195.776,37.496,199.424,36.392Q199.376,34.52,199.376,30.44L197.792,30.584Q197.408,31.736,196.736,31.736ZM197.744,21.56Q197.744,23.96,197.936,25.928L199.328,25.832L199.328,19.256L197.792,19.544L197.744,21.56ZM205.472,25.304L205.568,23.528Q205.76,20.984,205.808,18.92Q205.808,18.488,205.184,18.344L204.224,18.44L204.224,25.448L205.472,25.304ZM209.792,12.824Q209.504,12.296,209.504,11.96Q209.504,11.336,210.608,11.24Q213.536,11.384,218.38400000000001,10.52Q223.232,9.656,227.40800000000002,8.696Q228.128,8.552,228.656,8.552Q229.904,8.552,230.624,9.368Q232.4,11.384,232.59199999999998,12.344Q232.736,12.68,232.736,12.968Q232.736,13.64,231.728,13.64Q228.176,13.64,221.6,14.504Q221.936,14.84,222.07999999999998,15.224Q222.224,15.608,222.224,16.184L222.128,17.336Q221.984,19.448,221.936,20.264Q223.52,20.264,225.56,20.624Q227.6,20.984,228.752,21.512Q231.776,22.76,231.776,25.352Q231.776,27.032,230.43200000000002,28.952Q229.856,29.672,228.94400000000002,29.672Q228.224,29.672,227.888,29.192Q225.296,25.736,221.792,23.288Q221.552,29.384,221.552,35.336Q221.552,39.224,221.696,41.192Q221.792,42.92,221.504,44.456Q221.216,45.992,220.64,46.928Q220.064,47.864,219.392,47.864Q218.864,47.864,218.38400000000001,47.336Q218.144,47.144,217.16,46.352Q216.176,45.56,215.576,44.336Q214.976,43.112,215.072,41.624Q215.12,40.616,215.216,39.488Q215.312,38.36,215.36,37.112Q216.07999999999998,28.184,216.07999999999998,21.752Q216.07999999999998,19.736,216.032,18.728Q215.936,16.568,215.648,15.416Q215.072,15.464,213.92000000000002,15.656Q213.728,15.704,213.296,15.704Q211.232,15.704,209.792,12.824ZM265.904,18.44Q265.328,18.488,264.848,18.44Q264.416,21.608,263.384,23.696Q262.352,25.784,260.6,27.368Q258.848,28.952,255.632,31.16Q255.44,31.256,255.344,31.256Q255.10399999999998,31.256,254.98399999999998,31.04Q254.864,30.824,255.00799999999998,30.488Q257.84000000000003,25.4,258.776,21.176Q259.712,16.952,259.712,11.672Q259.712,10.664,259.592,9.896Q259.472,9.128,259.13599999999997,8.216L259.08799999999997,7.88Q259.08799999999997,7.448,259.856,7.4Q260.81600000000003,7.4,262.352,7.664Q263.88800000000003,7.928,264.8,8.312Q268.544,6.296,270.608,3.272Q271.08799999999997,2.6,271.808,2.6Q272.192,2.6,272.528,2.792Q274.928,4.136,275.984,6.104Q276.08,6.392,276.08,6.632Q276.08,7.4,275.024,7.976Q273.248,8.696,271.13599999999997,9.416Q269.024,10.136,265.76,10.568Q265.28,13.016,265.28,13.256Q265.28,13.784,265.23199999999997,14.024Q267.92,13.736,273.296,12.824L275.984,12.392Q276.704,12.248,277.18399999999997,12.248Q278.288,12.248,279.056,12.92Q279.632,13.592,280.18399999999997,14.456Q280.736,15.32,280.88,15.896Q280.928,16.04,280.928,16.328Q280.928,17.288,279.584,17.288Q275.79200000000003,17.288,273.152,17.528L273.344,17.672Q273.776,18.056,273.776,18.68Q273.776,18.968,273.656,19.52Q273.536,20.072,273.488,20.456Q273.44,21.08,273.44,21.92Q273.44,22.76,273.392,23.624Q273.392,26.408,273.344,27.608Q273.248,29.432,272.79200000000003,30.32Q272.336,31.208,271.424,31.208Q271.08799999999997,31.208,270.56,31.064Q269.312,30.584,268.23199999999997,29.384Q267.152,28.184,267.296,26.744Q267.632,24.152,267.632,20.072L267.584,18.2Q267.104,18.248,265.904,18.44ZM238.448,21.032Q238.208,20.696,238.208,20.504Q238.208,20.024,239.552,19.832Q243.344,19.208,248.624,17.912Q248.72,15.32,248.72,13.976Q247.328,14.216,246.56,14.456Q245.792,14.6,244.304,13.976Q243.776,13.784,243.07999999999998,13.184Q242.38400000000001,12.584,241.808,11.816Q241.664,11.528,241.664,11.288Q241.664,10.856,242.24,10.712Q245.696,10.184,248.624,9.608L248.576,8.552Q248.528,7.016,248,5.144Q247.56799999999998,4.04,247.56799999999998,3.656Q247.56799999999998,3.176,248.144,3.176Q249.584,3.176,251.528,3.512Q253.47199999999998,3.848,254.192,4.232Q254.816,4.472,254.816,5.096Q254.816,5.336,254.768,5.576Q254.72,5.816,254.72,6.056Q254.624,7.4,254.624,8.024Q254.768,7.976,255.10399999999998,7.976Q255.488,7.976,255.776,8.12Q256.352,8.552,256.904,9.344Q257.456,10.136,257.648,10.808L257.744,11.192Q257.744,11.768,257.048,12.056Q256.352,12.344,254.576,12.776Q254.48000000000002,12.776,254.43200000000002,12.824L254.38400000000001,16.376Q255.536,16.04,256.304,15.752L257.744,15.32L257.84000000000003,15.32Q258.08,15.32,258.296,15.464Q258.512,15.608,258.512,15.848Q258.512,16.088,258.224,16.376Q256.832,17.528,254.336,18.968Q254.336,23.144,254.096,25.448Q253.952,27.368,252.584,29.24Q251.216,31.112,249.872,31.784Q249.296,32.072,248.768,32.072Q248.096,32.072,247.856,31.688Q247.76,31.592,247.232,30.776Q246.07999999999998,29.144,245.312,28.136Q244.54399999999998,27.128,243.488,26.024Q243.392,25.928,243.392,25.688Q243.392,25.304,243.92000000000002,25.352Q245.072,25.496,245.888,25.496Q246.704,25.496,247.184,25.448Q247.61599999999999,25.448,247.856,25.04Q248.096,24.632,248.144,24.056Q248.24,23.432,248.336,22.184Q246.07999999999998,23.384,243.68,24.44Q242.96,24.776,242.24,24.776Q241.328,24.776,240.89600000000002,24.248Q239.36,22.952,238.448,21.032ZM248.672,33.848Q248.38400000000001,33.416,248.38400000000001,33.128Q248.38400000000001,32.504,249.68,32.312Q251.45600000000002,32.168,253.47199999999998,32.936Q256.736,32.792,261.032,32.144Q265.328,31.496,266.432,30.728Q266.96,30.392,267.488,30.392Q267.824,30.392,268.4,30.536Q269.072,30.728,270.584,31.52Q272.096,32.312,272.96,33.08Q273.392,33.512,273.392,33.896Q273.392,34.136,273.056,35.048Q272.72,35.912,272.432,38.744Q272.288,40.52,272.096,41.84Q271.904,43.16,271.472,44.216Q271.08799999999997,45.128,269.696,45.848Q268.304,46.568,267.008,46.568Q265.616,46.568,265.13599999999997,45.704L264.56,44.648Q258.128,45.176,256.016,45.368Q255.872,46.376,255.44,47.048Q255.00799999999998,47.72,254.288,47.768Q253.56799999999998,47.96,252.44,47.408Q251.312,46.856,250.64,46.04Q250.112,45.416,249.872,44.36Q249.632,43.304,249.68,42.296Q249.728,41.96,249.728,41.144Q249.728,39.128,249.416,36.824Q249.10399999999998,34.52,248.672,33.848ZM255.824,37.112Q255.824,39.8,255.92000000000002,41.048Q261.296,40.52,265.568,40.232Q265.712,38.216,265.76,37.88Q265.76,37.4,265.856,36.44Q265.856,36.2,265.688,36.104Q265.52,36.008,265.08799999999997,35.96Q263.79200000000003,36.008,260.88800000000003,36.368Q257.984,36.728,255.824,37.112ZM292.4,24.152Q291.488,23.864,290.336,21.992Q290,21.56,290,21.128Q290,20.456,290.86400000000003,19.736Q291.728,19.016,292.544,16.808Q293.36,14.6,293.36,12.632Q293.36,12.152,293.84000000000003,12.152Q294.176,12.152,294.8,12.44Q296.288,13.208,297.2,14.264Q297.632,14.744,297.68,15.128Q301.712,14.744,308.81600000000003,13.736Q310.736,11.192,311.96,8.192Q313.18399999999997,5.192,313.18399999999997,3.08Q313.18399999999997,2.696,313.08799999999997,2.12L313.08799999999997,1.928Q313.08799999999997,1.544,313.328,1.256Q313.568,0.967999,314,1.016Q315.392,1.208,317.072,2.192Q318.752,3.176,319.424,4.04Q320.24,5.144,320.24,5.72Q320.24,6.056,320.024,6.344Q319.808,6.632,319.13599999999997,7.304L318.128,8.36Q315.584,11.192,313.52,13.016Q315.584,12.632,316.06399999999996,12.488Q316.688,12.296,317.744,11.768Q318.512,11.384,318.94399999999996,11.24Q319.376,11.096,319.76,11.144Q321.91999999999996,11.672,324.752,14.504Q325.52,15.272,325.976,15.848Q326.432,16.424,326.432,17Q326.432,17.72,325.23199999999997,18.008Q324.128,18.296,322.856,18.776Q321.584,19.256,320.432,19.736Q317.88800000000003,20.744,316.928,21.032L316.544,21.128Q316.20799999999997,21.128,316.20799999999997,20.792Q316.20799999999997,20.744,316.352,20.312L317.12,18.632L317.79200000000003,17.24Q317.84000000000003,17.144,317.84000000000003,16.952Q317.84000000000003,16.712,317.624,16.544Q317.408,16.376,316.976,16.424L312.416,17Q311.168,17.192,305.696,17.912Q300.224,18.632,298.4,19.064Q297.344,19.304,296.624,19.208Q295.664,21.8,294.896,22.904Q294.56,23.48,294.008,23.864Q293.456,24.248,292.88,24.248Q292.688,24.248,292.4,24.152ZM293.312,32.888Q293.264,32.744,293.264,32.504Q293.264,32.12,293.504,31.856Q293.744,31.592,294.176,31.592Q297.344,31.592,305.552,30.248Q305.504,29.48,305.264,28.328Q305.12,27.896,305.12,27.608Q305.12,26.456,306.896,26.552Q307.23199999999997,26.552,308.048,26.792L309.152,24.968L309.824,23.864L307.808,24.344Q306.752,24.68,305.36,25.064L303.152,25.688Q302.72,25.832,302.384,25.832Q301.472,25.832,300.8,25.088Q300.128,24.344,298.976,22.568Q298.736,22.328,298.736,21.992Q298.736,21.704,299,21.512Q299.264,21.32,299.79200000000003,21.368Q302.528,21.512,305.81600000000003,20.864Q309.104,20.216,310.928,19.352Q311.12,19.256,311.456,19.04Q311.79200000000003,18.824,312.08,18.824Q312.56,18.824,313.52,19.496Q314.24,20.024,314.96,20.864Q315.68,21.704,316.15999999999997,22.616Q316.496,23.192,316.496,23.768Q316.496,24.728,315.44,25.112Q314.192,25.688,310.544,27.704Q311.36,28.088,311.648,28.472Q311.93600000000004,28.808,311.93600000000004,29.144Q316.448,28.28,318.32,27.704Q319.616,27.224,320.81600000000003,27.224Q321.96799999999996,27.224,322.496,27.704Q323.93600000000004,29,324.848,31.256Q324.99199999999996,31.592,324.99199999999996,31.88Q324.99199999999996,32.456,324.368,32.672Q323.744,32.888,322.88,32.792Q321.392,32.648,318.224,32.648Q315.632,32.648,311.264,33.272Q311.168,35.288,311.168,35.864L311.216,37.976Q311.264,38.6,311.264,39.848Q311.264,43.112,310.616,44.744Q309.968,46.376,307.952,47.384Q307.472,47.624,306.896,47.624Q306.176,47.624,305.624,47.144Q305.072,46.664,304.736,45.752Q304.304,44.504,303.584,43.808Q302.86400000000003,43.112,301.376,42.152Q301.04,41.96,301.04,41.624Q301.04,41.24,301.472,41.24Q302.624,41.288,304.20799999999997,41.096Q304.88,41.048,305.312,40.76Q305.744,40.472,305.79200000000003,39.608Q305.84000000000003,38.648,305.84000000000003,36.728Q305.84000000000003,34.952,305.79200000000003,34.184Q300.896,35,297.344,35.912Q296.86400000000003,36.008,296.624,36.008Q295.808,36.008,295.23199999999997,35.576Q294.56,34.904,294.224,34.472Q293.88800000000003,34.04,293.312,32.888ZM295.856,6.632Q295.856,6.584,295.784,6.464Q295.712,6.344,295.712,6.2Q295.712,5.672,296.672,5.672Q297.92,5.672,299.24,6.056Q300.56,6.44,301.52,7.112Q303.584,8.36,303.584,10.136Q303.584,11.144,302.84000000000003,12.032Q302.096,12.92,300.848,13.448Q300.56,13.544,300.416,13.544Q300.08,13.544,299.79200000000003,13.376Q299.504,13.208,299.408,13.064Q298.256,10.28,295.856,6.632ZM302.624,4.76Q302.624,4.712,302.552,4.592Q302.48,4.472,302.48,4.328Q302.48,4.088,302.72,3.968Q302.96,3.848,303.632,3.848Q304.784,3.848,306.056,4.232Q307.328,4.616,308.24,5.24Q310.352,6.536,310.352,8.264Q310.352,9.272,309.584,10.184Q308.81600000000003,11.096,307.568,11.624Q307.424,11.672,307.18399999999997,11.672Q306.848,11.672,306.536,11.504Q306.224,11.336,306.128,11.192Q305.024,8.456,302.624,4.76ZM337.616,42.824Q337.52,42.872,337.23199999999997,42.872Q336.99199999999996,42.872,336.8,42.8Q336.608,42.728,336.608,42.584Q336.608,42.344,337.18399999999997,42.008L338.672,41.048Q342.32,38.696,344.648,37.04Q346.976,35.384,349.352,33.08Q351.728,30.776,353.36,28.04Q353.312,27.992,353.312,27.896Q351.248,30.104,347.504,32.12Q343.76,34.136,340.352,34.664L340.20799999999997,34.664Q339.44,34.664,339.44,34.328Q339.44,34.04,339.96799999999996,33.656L341.264,32.648Q343.952,30.632,345.96799999999996,28.856Q347.98400000000004,27.08,350.144,24.536Q345.00800000000004,27.896,340.01599999999996,28.184Q339.728,28.184,339.584,28.088Q339.44,27.992,339.728,27.8Q345.91999999999996,23.432,348.176,20.936Q348.128,20.984,347.98400000000004,20.984Q347.216,21.032,346.23199999999997,20.48Q345.248,19.928,344.76800000000003,19.352Q343.952,18.44,343.952,18.008Q343.952,17.528,344.72,17.432Q347.168,17.144,351.608,16.136Q356.048,15.128,358.592,14.216Q358.784,14.168,359.216,14.168Q360.08000000000004,14.168,360.56,14.6Q361.13599999999997,15.032,361.472,15.464Q361.808,15.896,362.24,16.76Q362.528,17.432,362.528,17.864Q362.528,18.344,362.144,18.68Q361.952,18.92,361.688,18.992Q361.424,19.064,360.91999999999996,19.04Q360.416,19.016,360.03200000000004,19.016Q358.736,19.016,356.384,19.352Q356.048,19.736,355.376,20.312L354.03200000000004,21.56Q355.904,23.336,357.2,26.408Q361.13599999999997,21.896,361.76,19.544Q361.856,19.16,362.12,19.04Q362.384,18.92,362.624,19.016Q364.06399999999996,19.832,365,20.672Q365.93600000000004,21.512,366.224,21.992Q366.656,22.472,366.656,23.048Q366.656,23.864,365.312,24.776Q362.672,26.648,359.12,27.8Q361.328,29.624,365.552,32.456L368.192,34.328Q369.824,35.432,372.10400000000004,36.68Q374.384,37.928,376.352,38.792Q376.736,38.936,376.736,39.128Q376.736,39.368,376.4,39.512L375.296,39.992Q374.86400000000003,40.184,373.03999999999996,40.928Q371.216,41.672,369.632,42.056Q369.344,42.104,368.86400000000003,42.104Q367.616,42.104,366.32,41.048Q362.96000000000004,37.88,359.264,33.32Q359.696,35.816,359.696,38.312Q359.696,41.912,358.736,44.12Q358.15999999999997,45.464,357.32,46.208Q356.48,46.952,355.18399999999997,47.48Q354.416,47.864,353.93600000000004,47.864Q352.976,47.864,352.448,46.568Q352.256,46.04,351.752,45.536Q351.248,45.032,350.144,44.024Q349.08799999999997,43.16,348.704,42.728Q348.512,42.44,348.512,42.296Q348.512,42.008,349.03999999999996,42.008Q350.048,42.008,350.696,42.056Q351.344,42.104,351.632,42.104Q352.06399999999996,42.056,352.23199999999997,41.864Q352.4,41.672,352.448,41.48Q352.496,41.288,352.496,41.24Q353.504,39.416,353.744,35.288Q348.32,41.096,337.616,42.824ZM336.128,18.872Q335.93600000000004,18.68,335.72,18.392Q335.504,18.104,335.504,17.768Q335.504,17.192,336.128,16.424Q337.28,15.08,338.336,12.968Q339.392,10.856,339.152,9.272L339.10400000000004,8.984Q339.10400000000004,8.504,339.776,8.504Q341.456,8.504,343.472,9.848Q344.144,10.424,344.384,11L352.496,10.088L352.448,9.944Q351.248,7.352,350.504,5.888Q349.76,4.424,348.752,3.032Q348.656,2.888,348.656,2.552Q348.656,2.168,348.91999999999996,1.928Q349.18399999999997,1.688,349.76,1.688Q351.10400000000004,1.688,352.712,2.168Q354.32,2.648,355.28,3.368Q357.536,5,357.536,6.92Q357.536,8.456,356.336,9.56Q361.664,8.84,363.776,8.408Q364.784,8.12,365.504,7.688Q366.656,7.16,367.13599999999997,7.16Q368.336,7.16,369.824,8.144Q371.312,9.128,372.416,10.232Q372.89599999999996,10.76,373.20799999999997,11.384Q373.52,12.008,373.52,12.584Q373.52,13.784,372.08000000000004,14.168Q369.00800000000004,15.032,367.352,15.584Q365.696,16.136,364.352,16.808Q364.01599999999996,16.952,363.824,16.952Q363.296,16.952,363.584,16.28Q364.352,14.888,364.832,13.688Q364.88,13.592,364.88,13.4Q364.88,13.16,364.11199999999997,13.208Q359.744,13.688,352.616,14.576Q345.488,15.464,344,15.8Q343.616,15.896,343.328,15.992Q342.608,17.528,341.36,19.352Q340.832,20.168,340.328,20.504Q339.824,20.84,338.91200000000003,20.792Q338.384,20.744,337.712,20.24Q337.03999999999996,19.736,336.128,18.872Z" fill="url(#master_svg0_53_10732)" fill-opacity="1"/><path d="M196.736,31.736Q196.208,31.736,195.464,31.256Q194.72,30.776,194.096,30.2Q193.664,29.864,193.52,29.504Q193.376,29.144,193.376,28.664Q193.376,28.424,193.472,27.56Q193.568,26.024,193.568,24.632Q193.568,20.408,193.04,17Q192.752,15.176,192.56,14.648Q192.368,14.312,192.368,14.024Q192.368,13.4,193.52,13.4Q194.528,13.4,195.68,13.808Q196.832,14.216,197.408,14.744L197.6,14.888Q198.992,14.744,199.328,14.696L199.232,7.736Q199.232,7.4,199.208,6.488Q199.184,5.576,199.064,4.664Q198.944,3.752,198.656,3.032Q198.416,2.552,198.416,2.12Q198.416,1.592,199.184,1.592Q202.592,1.448,204.512,3.32Q204.704,3.512,204.704,3.992Q204.704,4.424,204.632,4.856Q204.56,5.288,204.512,5.72Q204.32,7.064,204.32,8.36L204.224,14.168L204.656,14.072Q205.088,13.976,205.568,13.664Q206.048,13.352,206.576,12.968Q207.008,12.488,207.392,12.488Q207.776,12.488,208.208,12.776Q210.32,14.696,210.752,15.368Q211.232,15.848,211.232,16.328Q211.232,16.616,210.992,17.48Q210.512,18.776,210.248,21.704Q209.984,24.632,209.984,26.888Q209.936,27.992,209.40800000000002,28.856Q208.88,29.72,207.776,30.536Q207.296,30.872,206.816,30.872Q206.24,30.872,206.048,30.152L205.904,29.816L204.224,29.96Q204.272,31.64,204.272,34.856Q206.432,34.088,206.816,33.944L205.856,32.456Q205.856,32.408,205.784,32.288Q205.712,32.168,205.712,32.024Q205.712,31.688,206.432,31.496Q207.2,31.4,207.68,31.4Q209.40800000000002,31.4,211.28,32.456Q212.288,33.08,212.792,33.992Q213.296,34.904,213.296,35.96Q213.296,37.16,212.648,38.12Q212,39.08,210.992,39.32Q210.32,39.416,209.864,39.104Q209.40800000000002,38.792,209.264,38.216Q208.832,36.872,207.488,34.952Q202.304,38.84,196.88,42.632Q195.92,43.304,195.248,43.304Q194.624,43.304,194.096,42.776Q193.328,42.2,192.8,41.36Q192.272,40.52,191.552,39.176Q191.312,38.552,191.312,38.456Q191.312,37.736,192.704,37.688Q195.776,37.496,199.424,36.392Q199.376,34.52,199.376,30.44L197.792,30.584Q197.408,31.736,196.736,31.736ZM197.744,21.56Q197.744,23.96,197.936,25.928L199.328,25.832L199.328,19.256L197.792,19.544L197.744,21.56ZM205.472,25.304L205.568,23.528Q205.76,20.984,205.808,18.92Q205.808,18.488,205.184,18.344L204.224,18.44L204.224,25.448L205.472,25.304ZM209.792,12.824Q209.504,12.296,209.504,11.96Q209.504,11.336,210.608,11.24Q213.536,11.384,218.38400000000001,10.52Q223.232,9.656,227.40800000000002,8.696Q228.128,8.552,228.656,8.552Q229.904,8.552,230.624,9.368Q232.4,11.384,232.59199999999998,12.344Q232.736,12.68,232.736,12.968Q232.736,13.64,231.728,13.64Q228.176,13.64,221.6,14.504Q221.936,14.84,222.07999999999998,15.224Q222.224,15.608,222.224,16.184L222.128,17.336Q221.984,19.448,221.936,20.264Q223.52,20.264,225.56,20.624Q227.6,20.984,228.752,21.512Q231.776,22.76,231.776,25.352Q231.776,27.032,230.43200000000002,28.952Q229.856,29.672,228.94400000000002,29.672Q228.224,29.672,227.888,29.192Q225.296,25.736,221.792,23.288Q221.552,29.384,221.552,35.336Q221.552,39.224,221.696,41.192Q221.792,42.92,221.504,44.456Q221.216,45.992,220.64,46.928Q220.064,47.864,219.392,47.864Q218.864,47.864,218.38400000000001,47.336Q218.144,47.144,217.16,46.352Q216.176,45.56,215.576,44.336Q214.976,43.112,215.072,41.624Q215.12,40.616,215.216,39.488Q215.312,38.36,215.36,37.112Q216.07999999999998,28.184,216.07999999999998,21.752Q216.07999999999998,19.736,216.032,18.728Q215.936,16.568,215.648,15.416Q215.072,15.464,213.92000000000002,15.656Q213.728,15.704,213.296,15.704Q211.232,15.704,209.792,12.824ZM265.904,18.44Q265.328,18.488,264.848,18.44Q264.416,21.608,263.384,23.696Q262.352,25.784,260.6,27.368Q258.848,28.952,255.632,31.16Q255.44,31.256,255.344,31.256Q255.10399999999998,31.256,254.98399999999998,31.04Q254.864,30.824,255.00799999999998,30.488Q257.84000000000003,25.4,258.776,21.176Q259.712,16.952,259.712,11.672Q259.712,10.664,259.592,9.896Q259.472,9.128,259.13599999999997,8.216L259.08799999999997,7.88Q259.08799999999997,7.448,259.856,7.4Q260.81600000000003,7.4,262.352,7.664Q263.88800000000003,7.928,264.8,8.312Q268.544,6.296,270.608,3.272Q271.08799999999997,2.6,271.808,2.6Q272.192,2.6,272.528,2.792Q274.928,4.136,275.984,6.104Q276.08,6.392,276.08,6.632Q276.08,7.4,275.024,7.976Q273.248,8.696,271.13599999999997,9.416Q269.024,10.136,265.76,10.568Q265.28,13.016,265.28,13.256Q265.28,13.784,265.23199999999997,14.024Q267.92,13.736,273.296,12.824L275.984,12.392Q276.704,12.248,277.18399999999997,12.248Q278.288,12.248,279.056,12.92Q279.632,13.592,280.18399999999997,14.456Q280.736,15.32,280.88,15.896Q280.928,16.04,280.928,16.328Q280.928,17.288,279.584,17.288Q275.79200000000003,17.288,273.152,17.528L273.344,17.672Q273.776,18.056,273.776,18.68Q273.776,18.968,273.656,19.52Q273.536,20.072,273.488,20.456Q273.44,21.08,273.44,21.92Q273.44,22.76,273.392,23.624Q273.392,26.408,273.344,27.608Q273.248,29.432,272.79200000000003,30.32Q272.336,31.208,271.424,31.208Q271.08799999999997,31.208,270.56,31.064Q269.312,30.584,268.23199999999997,29.384Q267.152,28.184,267.296,26.744Q267.632,24.152,267.632,20.072L267.584,18.2Q267.104,18.248,265.904,18.44ZM238.448,21.032Q238.208,20.696,238.208,20.504Q238.208,20.024,239.552,19.832Q243.344,19.208,248.624,17.912Q248.72,15.32,248.72,13.976Q247.328,14.216,246.56,14.456Q245.792,14.6,244.304,13.976Q243.776,13.784,243.07999999999998,13.184Q242.38400000000001,12.584,241.808,11.816Q241.664,11.528,241.664,11.288Q241.664,10.856,242.24,10.712Q245.696,10.184,248.624,9.608L248.576,8.552Q248.528,7.016,248,5.144Q247.56799999999998,4.04,247.56799999999998,3.656Q247.56799999999998,3.176,248.144,3.176Q249.584,3.176,251.528,3.512Q253.47199999999998,3.848,254.192,4.232Q254.816,4.472,254.816,5.096Q254.816,5.336,254.768,5.576Q254.72,5.816,254.72,6.056Q254.624,7.4,254.624,8.024Q254.768,7.976,255.10399999999998,7.976Q255.488,7.976,255.776,8.12Q256.352,8.552,256.904,9.344Q257.456,10.136,257.648,10.808L257.744,11.192Q257.744,11.768,257.048,12.056Q256.352,12.344,254.576,12.776Q254.48000000000002,12.776,254.43200000000002,12.824L254.38400000000001,16.376Q255.536,16.04,256.304,15.752L257.744,15.32L257.84000000000003,15.32Q258.08,15.32,258.296,15.464Q258.512,15.608,258.512,15.848Q258.512,16.088,258.224,16.376Q256.832,17.528,254.336,18.968Q254.336,23.144,254.096,25.448Q253.952,27.368,252.584,29.24Q251.216,31.112,249.872,31.784Q249.296,32.072,248.768,32.072Q248.096,32.072,247.856,31.688Q247.76,31.592,247.232,30.776Q246.07999999999998,29.144,245.312,28.136Q244.54399999999998,27.128,243.488,26.024Q243.392,25.928,243.392,25.688Q243.392,25.304,243.92000000000002,25.352Q245.072,25.496,245.888,25.496Q246.704,25.496,247.184,25.448Q247.61599999999999,25.448,247.856,25.04Q248.096,24.632,248.144,24.056Q248.24,23.432,248.336,22.184Q246.07999999999998,23.384,243.68,24.44Q242.96,24.776,242.24,24.776Q241.328,24.776,240.89600000000002,24.248Q239.36,22.952,238.448,21.032ZM248.672,33.848Q248.38400000000001,33.416,248.38400000000001,33.128Q248.38400000000001,32.504,249.68,32.312Q251.45600000000002,32.168,253.47199999999998,32.936Q256.736,32.792,261.032,32.144Q265.328,31.496,266.432,30.728Q266.96,30.392,267.488,30.392Q267.824,30.392,268.4,30.536Q269.072,30.728,270.584,31.52Q272.096,32.312,272.96,33.08Q273.392,33.512,273.392,33.896Q273.392,34.136,273.056,35.048Q272.72,35.912,272.432,38.744Q272.288,40.52,272.096,41.84Q271.904,43.16,271.472,44.216Q271.08799999999997,45.128,269.696,45.848Q268.304,46.568,267.008,46.568Q265.616,46.568,265.13599999999997,45.704L264.56,44.648Q258.128,45.176,256.016,45.368Q255.872,46.376,255.44,47.048Q255.00799999999998,47.72,254.288,47.768Q253.56799999999998,47.96,252.44,47.408Q251.312,46.856,250.64,46.04Q250.112,45.416,249.872,44.36Q249.632,43.304,249.68,42.296Q249.728,41.96,249.728,41.144Q249.728,39.128,249.416,36.824Q249.10399999999998,34.52,248.672,33.848ZM255.824,37.112Q255.824,39.8,255.92000000000002,41.048Q261.296,40.52,265.568,40.232Q265.712,38.216,265.76,37.88Q265.76,37.4,265.856,36.44Q265.856,36.2,265.688,36.104Q265.52,36.008,265.08799999999997,35.96Q263.79200000000003,36.008,260.88800000000003,36.368Q257.984,36.728,255.824,37.112ZM292.4,24.152Q291.488,23.864,290.336,21.992Q290,21.56,290,21.128Q290,20.456,290.86400000000003,19.736Q291.728,19.016,292.544,16.808Q293.36,14.6,293.36,12.632Q293.36,12.152,293.84000000000003,12.152Q294.176,12.152,294.8,12.44Q296.288,13.208,297.2,14.264Q297.632,14.744,297.68,15.128Q301.712,14.744,308.81600000000003,13.736Q310.736,11.192,311.96,8.192Q313.18399999999997,5.192,313.18399999999997,3.08Q313.18399999999997,2.696,313.08799999999997,2.12L313.08799999999997,1.928Q313.08799999999997,1.544,313.328,1.256Q313.568,0.967999,314,1.016Q315.392,1.208,317.072,2.192Q318.752,3.176,319.424,4.04Q320.24,5.144,320.24,5.72Q320.24,6.056,320.024,6.344Q319.808,6.632,319.13599999999997,7.304L318.128,8.36Q315.584,11.192,313.52,13.016Q315.584,12.632,316.06399999999996,12.488Q316.688,12.296,317.744,11.768Q318.512,11.384,318.94399999999996,11.24Q319.376,11.096,319.76,11.144Q321.91999999999996,11.672,324.752,14.504Q325.52,15.272,325.976,15.848Q326.432,16.424,326.432,17Q326.432,17.72,325.23199999999997,18.008Q324.128,18.296,322.856,18.776Q321.584,19.256,320.432,19.736Q317.88800000000003,20.744,316.928,21.032L316.544,21.128Q316.20799999999997,21.128,316.20799999999997,20.792Q316.20799999999997,20.744,316.352,20.312L317.12,18.632L317.79200000000003,17.24Q317.84000000000003,17.144,317.84000000000003,16.952Q317.84000000000003,16.712,317.624,16.544Q317.408,16.376,316.976,16.424L312.416,17Q311.168,17.192,305.696,17.912Q300.224,18.632,298.4,19.064Q297.344,19.304,296.624,19.208Q295.664,21.8,294.896,22.904Q294.56,23.48,294.008,23.864Q293.456,24.248,292.88,24.248Q292.688,24.248,292.4,24.152ZM293.312,32.888Q293.264,32.744,293.264,32.504Q293.264,32.12,293.504,31.856Q293.744,31.592,294.176,31.592Q297.344,31.592,305.552,30.248Q305.504,29.48,305.264,28.328Q305.12,27.896,305.12,27.608Q305.12,26.456,306.896,26.552Q307.23199999999997,26.552,308.048,26.792L309.152,24.968L309.824,23.864L307.808,24.344Q306.752,24.68,305.36,25.064L303.152,25.688Q302.72,25.832,302.384,25.832Q301.472,25.832,300.8,25.088Q300.128,24.344,298.976,22.568Q298.736,22.328,298.736,21.992Q298.736,21.704,299,21.512Q299.264,21.32,299.79200000000003,21.368Q302.528,21.512,305.81600000000003,20.864Q309.104,20.216,310.928,19.352Q311.12,19.256,311.456,19.04Q311.79200000000003,18.824,312.08,18.824Q312.56,18.824,313.52,19.496Q314.24,20.024,314.96,20.864Q315.68,21.704,316.15999999999997,22.616Q316.496,23.192,316.496,23.768Q316.496,24.728,315.44,25.112Q314.192,25.688,310.544,27.704Q311.36,28.088,311.648,28.472Q311.93600000000004,28.808,311.93600000000004,29.144Q316.448,28.28,318.32,27.704Q319.616,27.224,320.81600000000003,27.224Q321.96799999999996,27.224,322.496,27.704Q323.93600000000004,29,324.848,31.256Q324.99199999999996,31.592,324.99199999999996,31.88Q324.99199999999996,32.456,324.368,32.672Q323.744,32.888,322.88,32.792Q321.392,32.648,318.224,32.648Q315.632,32.648,311.264,33.272Q311.168,35.288,311.168,35.864L311.216,37.976Q311.264,38.6,311.264,39.848Q311.264,43.112,310.616,44.744Q309.968,46.376,307.952,47.384Q307.472,47.624,306.896,47.624Q306.176,47.624,305.624,47.144Q305.072,46.664,304.736,45.752Q304.304,44.504,303.584,43.808Q302.86400000000003,43.112,301.376,42.152Q301.04,41.96,301.04,41.624Q301.04,41.24,301.472,41.24Q302.624,41.288,304.20799999999997,41.096Q304.88,41.048,305.312,40.76Q305.744,40.472,305.79200000000003,39.608Q305.84000000000003,38.648,305.84000000000003,36.728Q305.84000000000003,34.952,305.79200000000003,34.184Q300.896,35,297.344,35.912Q296.86400000000003,36.008,296.624,36.008Q295.808,36.008,295.23199999999997,35.576Q294.56,34.904,294.224,34.472Q293.88800000000003,34.04,293.312,32.888ZM295.856,6.632Q295.856,6.584,295.784,6.464Q295.712,6.344,295.712,6.2Q295.712,5.672,296.672,5.672Q297.92,5.672,299.24,6.056Q300.56,6.44,301.52,7.112Q303.584,8.36,303.584,10.136Q303.584,11.144,302.84000000000003,12.032Q302.096,12.92,300.848,13.448Q300.56,13.544,300.416,13.544Q300.08,13.544,299.79200000000003,13.376Q299.504,13.208,299.408,13.064Q298.256,10.28,295.856,6.632ZM302.624,4.76Q302.624,4.712,302.552,4.592Q302.48,4.472,302.48,4.328Q302.48,4.088,302.72,3.968Q302.96,3.848,303.632,3.848Q304.784,3.848,306.056,4.232Q307.328,4.616,308.24,5.24Q310.352,6.536,310.352,8.264Q310.352,9.272,309.584,10.184Q308.81600000000003,11.096,307.568,11.624Q307.424,11.672,307.18399999999997,11.672Q306.848,11.672,306.536,11.504Q306.224,11.336,306.128,11.192Q305.024,8.456,302.624,4.76ZM337.616,42.824Q337.52,42.872,337.23199999999997,42.872Q336.99199999999996,42.872,336.8,42.8Q336.608,42.728,336.608,42.584Q336.608,42.344,337.18399999999997,42.008L338.672,41.048Q342.32,38.696,344.648,37.04Q346.976,35.384,349.352,33.08Q351.728,30.776,353.36,28.04Q353.312,27.992,353.312,27.896Q351.248,30.104,347.504,32.12Q343.76,34.136,340.352,34.664L340.20799999999997,34.664Q339.44,34.664,339.44,34.328Q339.44,34.04,339.96799999999996,33.656L341.264,32.648Q343.952,30.632,345.96799999999996,28.856Q347.98400000000004,27.08,350.144,24.536Q345.00800000000004,27.896,340.01599999999996,28.184Q339.728,28.184,339.584,28.088Q339.44,27.992,339.728,27.8Q345.91999999999996,23.432,348.176,20.936Q348.128,20.984,347.98400000000004,20.984Q347.216,21.032,346.23199999999997,20.48Q345.248,19.928,344.76800000000003,19.352Q343.952,18.44,343.952,18.008Q343.952,17.528,344.72,17.432Q347.168,17.144,351.608,16.136Q356.048,15.128,358.592,14.216Q358.784,14.168,359.216,14.168Q360.08000000000004,14.168,360.56,14.6Q361.13599999999997,15.032,361.472,15.464Q361.808,15.896,362.24,16.76Q362.528,17.432,362.528,17.864Q362.528,18.344,362.144,18.68Q361.952,18.92,361.688,18.992Q361.424,19.064,360.91999999999996,19.04Q360.416,19.016,360.03200000000004,19.016Q358.736,19.016,356.384,19.352Q356.048,19.736,355.376,20.312L354.03200000000004,21.56Q355.904,23.336,357.2,26.408Q361.13599999999997,21.896,361.76,19.544Q361.856,19.16,362.12,19.04Q362.384,18.92,362.624,19.016Q364.06399999999996,19.832,365,20.672Q365.93600000000004,21.512,366.224,21.992Q366.656,22.472,366.656,23.048Q366.656,23.864,365.312,24.776Q362.672,26.648,359.12,27.8Q361.328,29.624,365.552,32.456L368.192,34.328Q369.824,35.432,372.10400000000004,36.68Q374.384,37.928,376.352,38.792Q376.736,38.936,376.736,39.128Q376.736,39.368,376.4,39.512L375.296,39.992Q374.86400000000003,40.184,373.03999999999996,40.928Q371.216,41.672,369.632,42.056Q369.344,42.104,368.86400000000003,42.104Q367.616,42.104,366.32,41.048Q362.96000000000004,37.88,359.264,33.32Q359.696,35.816,359.696,38.312Q359.696,41.912,358.736,44.12Q358.15999999999997,45.464,357.32,46.208Q356.48,46.952,355.18399999999997,47.48Q354.416,47.864,353.93600000000004,47.864Q352.976,47.864,352.448,46.568Q352.256,46.04,351.752,45.536Q351.248,45.032,350.144,44.024Q349.08799999999997,43.16,348.704,42.728Q348.512,42.44,348.512,42.296Q348.512,42.008,349.03999999999996,42.008Q350.048,42.008,350.696,42.056Q351.344,42.104,351.632,42.104Q352.06399999999996,42.056,352.23199999999997,41.864Q352.4,41.672,352.448,41.48Q352.496,41.288,352.496,41.24Q353.504,39.416,353.744,35.288Q348.32,41.096,337.616,42.824ZM336.128,18.872Q335.93600000000004,18.68,335.72,18.392Q335.504,18.104,335.504,17.768Q335.504,17.192,336.128,16.424Q337.28,15.08,338.336,12.968Q339.392,10.856,339.152,9.272L339.10400000000004,8.984Q339.10400000000004,8.504,339.776,8.504Q341.456,8.504,343.472,9.848Q344.144,10.424,344.384,11L352.496,10.088L352.448,9.944Q351.248,7.352,350.504,5.888Q349.76,4.424,348.752,3.032Q348.656,2.888,348.656,2.552Q348.656,2.168,348.91999999999996,1.928Q349.18399999999997,1.688,349.76,1.688Q351.10400000000004,1.688,352.712,2.168Q354.32,2.648,355.28,3.368Q357.536,5,357.536,6.92Q357.536,8.456,356.336,9.56Q361.664,8.84,363.776,8.408Q364.784,8.12,365.504,7.688Q366.656,7.16,367.13599999999997,7.16Q368.336,7.16,369.824,8.144Q371.312,9.128,372.416,10.232Q372.89599999999996,10.76,373.20799999999997,11.384Q373.52,12.008,373.52,12.584Q373.52,13.784,372.08000000000004,14.168Q369.00800000000004,15.032,367.352,15.584Q365.696,16.136,364.352,16.808Q364.01599999999996,16.952,363.824,16.952Q363.296,16.952,363.584,16.28Q364.352,14.888,364.832,13.688Q364.88,13.592,364.88,13.4Q364.88,13.16,364.11199999999997,13.208Q359.744,13.688,352.616,14.576Q345.488,15.464,344,15.8Q343.616,15.896,343.328,15.992Q342.608,17.528,341.36,19.352Q340.832,20.168,340.328,20.504Q339.824,20.84,338.91200000000003,20.792Q338.384,20.744,337.712,20.24Q337.03999999999996,19.736,336.128,18.872Z" fill="#21C8E2" fill-opacity="1"/></g></g></svg>